<?xml version="1.0" encoding="UTF-8" standalone="no"?>
<svg
   viewBox="0 0 230 230"
   version="1.1"
   id="svg353"
   sodipodi:docname="01n.svg"
   width="200"
   height="200"
   inkscape:version="1.2.2 (b0a84865, 2022-12-01)"
   xmlns:inkscape="http://www.inkscape.org/namespaces/inkscape"
   xmlns:sodipodi="http://sodipodi.sourceforge.net/DTD/sodipodi-0.dtd"
   xmlns="http://www.w3.org/2000/svg"
   xmlns:svg="http://www.w3.org/2000/svg">
  <defs
     id="defs357" />
  <sodipodi:namedview
     id="namedview355"
     pagecolor="#ffffff"
     bordercolor="#000000"
     borderopacity="0.25"
     inkscape:showpageshadow="2"
     inkscape:pageopacity="0.0"
     inkscape:pagecheckerboard="0"
     inkscape:deskcolor="#d1d1d1"
     showgrid="false"
     showguides="true"
     inkscape:zoom="5.135"
     inkscape:cx="66.699124"
     inkscape:cy="100.58423"
     inkscape:window-width="2222"
     inkscape:window-height="1205"
     inkscape:window-x="255"
     inkscape:window-y="76"
     inkscape:window-maximized="0"
     inkscape:current-layer="svg353">
    <sodipodi:guide
       position="19.93184,163.03797"
       orientation="1,0"
       id="guide586"
       inkscape:locked="false" />
    <sodipodi:guide
       position="215.89094,149.15287"
       orientation="1,0"
       id="guide588"
       inkscape:locked="false" />
  </sodipodi:namedview>
  <linearGradient
     id="a"
     gradientUnits="userSpaceOnUse"
     x1="220.83501"
     y1="160.98"
     x2="153.258"
     y2="244.42999"
     gradientTransform="translate(17.692308,12.989289)">
    <stop
       offset="0"
       stop-color="#5abfd5"
       id="stop332" />
    <stop
       offset="1"
       stop-color="#0f298f"
       id="stop334" />
  </linearGradient>
  <path
     fill-rule="evenodd"
     clip-rule="evenodd"
     fill="url(#a)"
     d="m 83.792308,133.18929 c -23.5,-40.700001 -19.9,-88.100001 6.2,-114.900001 -7.1,2.2 -14,5.1 -20.7,9 -47.4,27.3 -63.6000003,87.900001 -36.3,135.200001 27.3,47.3 87.900002,63.6 135.200002,36.2 6.7,-3.9 12.7,-8.4 18.1,-13.4 -36.2,9.2 -79.1,-11.4 -102.500002,-52.1 z"
     id="path337"
     style="fill:url(#a)" />
  <linearGradient
     id="b"
     gradientUnits="userSpaceOnUse"
     x1="661.77301"
     y1="-271.14001"
     x2="749.89203"
     y2="-249.16901"
     gradientTransform="matrix(1,0,0,-1,-592.30769,6.9892892)">
    <stop
       offset="0"
       stop-color="#a1a1a0"
       id="stop339" />
    <stop
       offset="1"
       stop-color="#fff"
       id="stop341" />
  </linearGradient>
  <path
     fill="url(#b)"
     d="m 187.29231,51.089289 -30,-6.1 -6.1,-30 c -0.1,-0.5 -0.5,-1 -1.1,-1.1 -0.7,-0.1 -1.3,0.4 -1.4,1.1 l -6,30 -30,6.1 c -0.5,0.1 -1,0.5 -1.1,1.1 -0.1,0.7 0.4,1.3 1.1,1.4 l 30,6.1 6.1,30 c 0.1,0.5 0.5,1 1.1,1.1 0.7,0.1 1.3,-0.4 1.4,-1.1 l 6.1,-30 30,-6.1 c 0.5,-0.1 1,-0.5 1.1,-1.1 -0.1,-0.7 -0.5,-1.3 -1.2,-1.4 z"
     id="path344"
     style="fill:url(#b)" />
  <linearGradient
     id="c"
     gradientUnits="userSpaceOnUse"
     x1="759.56201"
     y1="-247.94099"
     x2="694.49298"
     y2="-296.974"
     gradientTransform="matrix(1,0,0,-1,-592.30769,6.9892892)">
    <stop
       offset="0"
       stop-color="#a1a1a0"
       id="stop346" />
    <stop
       offset="1"
       stop-color="#fff"
       id="stop348" />
  </linearGradient>
  <path
     fill="url(#c)"
     d="m 214.89231,118.88929 -21.3,-4.4 -4.4,-21.300001 c 0,-0.4 -0.3,-0.7 -0.8,-0.8 -0.5,-0.1 -0.9,0.3 -1,0.8 l -4.4,21.300001 -21.3,4.4 c -0.4,0.1 -0.7,0.4 -0.8,0.8 -0.1,0.5 0.3,0.9 0.8,1 l 21.3,4.4 4.4,21.3 c 0.1,0.4 0.3,0.7 0.8,0.8 0.5,0.1 0.9,-0.3 1,-0.8 l 4.4,-21.3 21.3,-4.4 c 0.4,-0.1 0.7,-0.4 0.8,-0.8 0,-0.5 -0.3,-1 -0.8,-1 z"
     id="path351"
     style="fill:url(#c)" />
</svg>
