<svg width="283" height="234" xmlns="http://www.w3.org/2000/svg"><defs><linearGradient x1="45.283%" y1="25.266%" x2="58.85%" y2="100.379%" id="a"><stop stop-color="#FEBF10" offset="0%"/><stop stop-color="#F58020" offset="100%"/></linearGradient><linearGradient x1="45.512%" y1="25.124%" x2="59.072%" y2="100.224%" id="b"><stop stop-color="#FEBF10" offset="0%"/><stop stop-color="#F58020" offset="100%"/></linearGradient><linearGradient x1="2.521%" y1="82.039%" x2="120.148%" y2="2.629%" id="c"><stop stop-color="#F6EB16" offset="0%"/><stop stop-color="#F58020" offset="100%"/></linearGradient><linearGradient x1="17.01%" y1="70.311%" x2="67.357%" y2="48.87%" id="d"><stop stop-color="#A1A1A0" offset="0%"/><stop stop-color="#FFF" offset="100%"/></linearGradient><linearGradient x1="90.27%" y1="21.364%" x2="36.213%" y2="93.284%" id="e"><stop stop-color="#A1A1A0" offset="0%"/><stop stop-color="#FFF" offset="100%"/></linearGradient><linearGradient x1="36.418%" y1="13.013%" x2="55.338%" y2="121.48%" id="f"><stop stop-color="#A1A1A0" offset="0%"/><stop stop-color="#FFF" offset="100%"/></linearGradient><linearGradient x1="17.009%" y1="70.312%" x2="67.353%" y2="48.872%" id="g"><stop stop-color="#A1A1A0" offset="0%"/><stop stop-color="#FFF" offset="100%"/></linearGradient><linearGradient x1="90.275%" y1="21.363%" x2="36.215%" y2="93.281%" id="h"><stop stop-color="#A1A1A0" offset="0%"/><stop stop-color="#FFF" offset="100%"/></linearGradient><linearGradient x1="36.416%" y1="13.006%" x2="55.338%" y2="121.481%" id="i"><stop stop-color="#A1A1A0" offset="0%"/><stop stop-color="#FFF" offset="100%"/></linearGradient></defs><g fill="none" fill-rule="evenodd"><path d="M67.734 142.688l37.929-1.709-28.336 25.276 36.316-11.101-21.157 31.537 32.417-19.775-12.654 35.794 26.473-27.207-3.352 37.817 18.885-32.933 6.16 37.463 10.092-36.599 15.287 34.756.67-37.956 23.45 29.855-8.795-36.931 30.143 23.089-17.7-33.584 34.927 14.874-25.491-28.129 37.539 5.716-31.685-20.911 37.775-3.802-35.895-12.361 35.645-13.068-37.837-3.068 31.269-21.521-37.414 6.457 24.944-28.632-34.631 15.552 17.031-33.931-29.671 23.679 8.065-37.104-22.858 30.319-1.421-37.943-14.608 35.049-10.797-36.4-5.429 37.574-19.517-32.568 4.095 37.751-27.013-26.689 13.348 35.537-32.796-19.14 21.768 31.107-36.524-10.37 28.82 24.716-37.953-.977 34.057 16.772-37.001 8.504 37.162 7.773-33.732 17.442z" fill="#FEBF10" opacity=".502"/><path d="M8.052 160.542l42.937-7.438-28.594 32.873L62.12 168.1l-19.525 38.955 34.04-27.2-9.221 42.584 26.204-34.805 1.659 43.535 16.722-40.233 12.442 41.752 6.185-43.111 22.436 37.337-4.724-43.299 31.008 30.598-15.35-40.768 37.649 21.922-25.009-35.676 41.93 11.883-33.1-28.344 43.559 1.077-39.093-19.208 42.446-9.793-42.657-8.888 38.699-20.04-43.522 1.998 32.491-29.027-41.666 12.756 24.252-36.2-37.178 22.719 14.482-41.095-30.351 31.243 3.808-43.398-21.632 37.821L121.991.207 110.44 42.218 92.877 2.344l-.741 43.56-26.931-34.248 10.118 42.386-34.607-26.48 20.34 38.527-40.103-17.03 29.281 32.254-43.079-6.522 36.386 23.965-43.349 4.389 41.205 14.164L.499 132.333l43.428 3.474-35.875 24.735z" fill="url(#a)" transform="translate(50)"/><path d="M37.68 120.759c-3.746-42.887 28.016-80.754 70.904-84.502 42.895-3.746 80.757 28.014 84.502 70.911 3.748 42.891-28.016 80.752-70.906 84.497-42.892 3.744-80.752-28.015-84.5-70.906z" fill="url(#b)" transform="translate(50)"/><path d="M87.668 120.771c-3.754-42.895 28.021-80.753 70.906-84.507 42.894-3.75 80.751 28.02 84.5 70.907 6.811 49.804-147.707 65.388-155.406 13.6z" fill="#F6EB16" opacity=".118"/><path d="M100.302 103.158c-10.562-16.802-.594-40.845 22.258-53.666 22.84-12.827 49.952-9.599 60.516 7.199 10.561 16.807.581 40.851-22.267 53.671-22.843 12.822-49.95 9.591-60.507-7.204z" fill="#F6EB16" opacity=".255"/><path d="M114.214 190.275a78.021 78.021 0 007.802-.279c41.955-3.67 73.035-40.719 69.362-82.672-3.662-41.965-40.704-73.035-82.659-69.373-41.962 3.672-73.044 40.704-69.37 82.663 3.434 39.339 36.203 69.111 74.865 69.661zm-.049 3.385c-40.375-.573-74.599-31.654-78.191-72.748-3.828-43.823 28.626-82.505 72.451-86.325 43.819-3.838 82.496 28.62 86.331 72.439 3.834 43.824-28.617 82.494-72.455 86.333a77.329 77.329 0 01-8.136.301z" fill="url(#c)" transform="translate(50)"/><path d="M15.829 96.507C7.089 96.507.002 89.421.002 80.68c0-7.367 5.039-13.562 11.859-15.322a27.854 27.854 0 01-.604-5.777c0-15.225 12.253-27.592 27.431-27.781C42.139 13.773 57.993.142 77.027.142c15.381 0 28.687 8.904 35.047 21.837a22.074 22.074 0 017.86-1.438c12.235 0 22.158 9.923 22.158 22.157 0 1.822-.222 3.595-.639 5.289 12.852.408 23.147 10.953 23.147 23.902 0 13.207-10.71 23.914-23.916 23.914-23.537 0-80.817.704-124.855.704z" fill="url(#d)" transform="translate(0 137)"/><path d="M126.534 95.855c-26.271.152-68.665.598-104.256.647a21.66 21.66 0 01-4.471-14.379c.6-11.457 9.972-20.386 21.265-20.608a17.084 17.084 0 01.004-1.678c.485-9.273 8.402-16.404 17.675-15.919 2.397.124 4.649.746 6.667 1.763 5.213-8.416 14.733-13.809 25.315-13.257 14.688.769 26.149 12.718 26.562 27.167 9.592 3.49 16.211 12.932 15.65 23.648a23.728 23.728 0 01-4.411 12.616z" fill="url(#e)" transform="translate(0 137)"/><path d="M157.144 89.236a23.837 23.837 0 01-16.459 6.566c-16.517 0-49.654.35-83.168.555a23.916 23.916 0 0113.21-11.828C71.142 70.08 82.6 58.131 97.29 57.363c10.581-.553 20.102 4.841 25.315 13.255a16.762 16.762 0 016.667-1.761c9.271-.485 17.189 6.646 17.672 15.918.03.564.03 1.123.005 1.677a21.608 21.608 0 0110.195 2.784z" fill="url(#f)" transform="translate(0 137)"/><path d="M10.773 73.402C4.827 73.402.003 68.01.003 61.36c0-5.604 3.429-10.316 8.071-11.656a23.554 23.554 0 01-.41-4.395c0-11.58 8.34-20.99 18.667-21.133C28.678 10.46 39.468.092 52.42.092c10.47 0 19.524 6.774 23.854 16.613a13.633 13.633 0 015.35-1.095c8.327 0 15.08 7.55 15.08 16.858 0 1.388-.152 2.734-.433 4.024 8.746.308 15.754 8.33 15.754 18.18 0 10.046-7.29 18.193-16.277 18.193-16.022 0-55.005.537-84.976.537z" fill="url(#g)" transform="translate(140 160)"/><path d="M118.674 60.777c-17.88.117-46.73.453-70.954.493-2.075-3.019-3.233-6.845-3.043-10.94.408-8.719 6.787-15.509 14.472-15.679-.02-.422-.02-.845.003-1.278.33-7.054 5.719-12.478 12.029-12.108 1.63.094 3.163.569 4.536 1.339 3.55-6.4 10.027-10.504 17.229-10.083 9.998.584 17.796 9.674 18.077 20.665 6.53 2.655 11.033 9.836 10.65 17.99-.165 3.591-1.258 6.878-2.999 9.601z" fill="url(#h)" transform="translate(140 160)"/><path d="M139.506 55.739c-2.918 3.097-6.86 4.997-11.202 4.997-11.238 0-33.792.265-56.601.42 1.835-4.129 5.042-7.393 8.991-8.997.284-10.993 8.079-20.083 18.079-20.667 7.2-.42 13.678 3.682 17.228 10.084a10.483 10.483 0 014.537-1.34c6.31-.37 11.698 5.056 12.027 12.11.022.43.022.853.004 1.275 2.505.057 4.873.816 6.937 2.118z" fill="url(#i)" transform="translate(140 160)"/></g></svg>