<svg xmlns="http://www.w3.org/2000/svg" width="400" height="400"><linearGradient id="a" gradientUnits="userSpaceOnUse" x1="220.835" y1="160.98" x2="153.258" y2="244.43"><stop offset="0" stop-color="#5abfd5"/><stop offset="1" stop-color="#0f298f"/></linearGradient><path fill-rule="evenodd" clip-rule="evenodd" fill="url(#a)" d="M177.736 97.076c18.803-4.322 37.582-2.648 54.344 3.766-4.268.149-8.58.699-12.896 1.692-36.444 8.377-59.204 44.726-50.825 81.168 8.379 36.444 44.726 59.204 81.17 50.825 17.485-4.021 31.817-14.484 41.076-28.303-6.885 35.166-33.751 64.769-70.922 73.312-50.378 11.581-100.625-19.881-112.206-70.255-11.581-50.377 19.881-100.624 70.259-112.205z"/><linearGradient id="b" gradientUnits="userSpaceOnUse" x1="661.773" y1="-271.14" x2="749.892" y2="-249.169" gradientTransform="matrix(1 0 0 -1 -610 -6)"><stop offset="0" stop-color="#a1a1a0"/><stop offset="1" stop-color="#fff"/></linearGradient><path fill="url(#b)" d="M38.832 295.559c-9.294 0-16.83-7.535-16.83-16.83 0-7.834 5.358-14.42 12.61-16.292-.42-1.98-.642-4.04-.642-6.143 0-16.189 13.029-29.339 29.168-29.541 3.669-19.168 20.528-33.662 40.767-33.662 16.355 0 30.504 9.468 37.267 23.219a23.488 23.488 0 018.357-1.528c13.01 0 23.561 10.552 23.561 23.561 0 1.937-.236 3.822-.679 5.623 13.666.435 24.613 11.646 24.613 25.416 0 14.044-11.389 25.429-25.431 25.429-25.027-.001-85.934.748-132.761.748z"/><linearGradient id="c" gradientUnits="userSpaceOnUse" x1="759.562" y1="-247.941" x2="694.493" y2="-296.974" gradientTransform="matrix(1 0 0 -1 -610 -6)"><stop offset="0" stop-color="#a1a1a0"/><stop offset="1" stop-color="#fff"/></linearGradient><path fill="url(#c)" d="M156.547 294.865c-27.935.161-73.014.636-110.859.688a23.03 23.03 0 01-4.754-15.289c.638-12.183 10.604-21.678 22.611-21.913-.027-.59-.026-1.182.005-1.784.516-9.86 8.934-17.442 18.794-16.928 2.549.132 4.943.794 7.089 1.876 5.543-8.949 15.666-14.685 26.918-14.098 15.618.818 27.805 13.524 28.244 28.888 10.2 3.711 17.237 13.751 16.641 25.146a25.218 25.218 0 01-4.689 13.414z"/><linearGradient id="d" gradientUnits="userSpaceOnUse" x1="731.738" y1="-265.295" x2="751.783" y2="-310.315" gradientTransform="matrix(1 0 0 -1 -610 -6)"><stop offset="0" stop-color="#a1a1a0"/><stop offset="1" stop-color="#fff"/></linearGradient><path fill="url(#d)" d="M189.096 287.827a25.344 25.344 0 01-17.501 6.981c-17.563 0-52.798.373-88.435.591a25.428 25.428 0 0114.046-12.577c.441-15.364 12.625-28.07 28.245-28.887 11.251-.588 21.375 5.147 26.918 14.095a17.826 17.826 0 017.089-1.872c9.858-.517 18.278 7.066 18.792 16.926.032.599.032 1.194.005 1.783a22.973 22.973 0 0110.841 2.96z"/><linearGradient id="e" gradientUnits="userSpaceOnUse" x1="843.134" y1="-280.354" x2="898.391" y2="-266.577" gradientTransform="matrix(1 0 0 -1 -610 -6)"><stop offset="0" stop-color="#a1a1a0"/><stop offset="1" stop-color="#fff"/></linearGradient><path fill="url(#e)" d="M225.019 293.432c-5.826 0-10.554-4.726-10.554-10.555 0-4.911 3.36-9.041 7.908-10.217a18.516 18.516 0 01-.402-3.853c0-10.149 8.172-18.398 18.29-18.522 2.3-12.024 12.872-21.111 25.563-21.111 10.258 0 19.129 5.938 23.372 14.561a14.72 14.72 0 015.24-.958c8.159 0 14.774 6.617 14.774 14.775a14.9 14.9 0 01-.422 3.527c8.569.27 15.436 7.302 15.436 15.937 0 8.806-7.144 15.945-15.948 15.945-15.698 0-53.892.471-83.257.471z"/><linearGradient id="f" gradientUnits="userSpaceOnUse" x1="904.458" y1="-265.807" x2="863.653" y2="-296.556" gradientTransform="matrix(1 0 0 -1 -610 -6)"><stop offset="0" stop-color="#a1a1a0"/><stop offset="1" stop-color="#fff"/></linearGradient><path fill="url(#f)" d="M298.838 292.999c-17.52.102-45.786.396-69.52.432a14.455 14.455 0 01-2.981-9.589c.399-7.643 6.649-13.594 14.18-13.742-.019-.371-.019-.741.002-1.121.324-6.183 5.604-10.937 11.786-10.613 1.598.083 3.1.499 4.444 1.174 3.479-5.609 9.824-9.207 16.88-8.839 9.797.513 17.438 8.48 17.713 18.114 6.397 2.328 10.81 8.621 10.435 15.769a15.827 15.827 0 01-2.939 8.415z"/><linearGradient id="g" gradientUnits="userSpaceOnUse" x1="887.008" y1="-276.69" x2="899.578" y2="-304.923" gradientTransform="matrix(1 0 0 -1 -610 -6)"><stop offset="0" stop-color="#a1a1a0"/><stop offset="1" stop-color="#fff"/></linearGradient><path fill="url(#g)" d="M319.249 288.583a15.89 15.89 0 01-10.977 4.38c-11.01 0-33.108.233-55.457.369a15.949 15.949 0 018.81-7.887c.278-9.637 7.916-17.604 17.713-18.115 7.056-.368 13.403 3.228 16.881 8.838a11.184 11.184 0 014.444-1.173c6.183-.324 11.462 4.431 11.784 10.614.021.376.021.747.004 1.117a14.41 14.41 0 016.798 1.857z"/></svg>