<svg xmlns="http://www.w3.org/2000/svg" width="400" height="400"><path opacity=".502" fill="#FEBF10" d="M141.734 219.688l37.929-1.709-28.336 25.276 36.316-11.101-21.157 31.537 32.417-19.775-12.654 35.794 26.474-27.207-3.353 37.817 18.885-32.934 6.16 37.464 10.092-36.599 15.287 34.756.67-37.956 23.45 29.855-8.795-36.931 30.143 23.089-17.7-33.584 34.927 14.874-25.491-28.129 37.539 5.716-31.685-20.912 37.775-3.8-35.895-12.362 35.645-13.068-37.837-3.068 31.269-21.521-37.414 6.457 24.944-28.632-34.631 15.552 17.031-33.931-29.671 23.679 8.065-37.104-22.858 30.319-1.421-37.943-14.608 35.049-10.797-36.4-5.429 37.574-19.517-32.568 4.095 37.751-27.013-26.689 13.348 35.537-32.796-19.14 21.768 31.107-36.524-10.37 28.82 24.716-37.953-.977 34.057 16.772-37.001 8.504 37.162 7.773z"/><linearGradient id="a" gradientUnits="userSpaceOnUse" x1="-28.049" y1="271.988" x2="-21.717" y2="271.988" gradientTransform="matrix(4.975 27.578 -27.544 4.981 7860.517 -445.29)"><stop offset="0" stop-color="#febf10"/><stop offset="1" stop-color="#f58020"/></linearGradient><path fill="url(#a)" d="M132.052 237.542l42.937-7.438-28.594 32.873L186.12 245.1l-19.525 38.955 34.04-27.2-9.221 42.584 26.204-34.805 1.659 43.535 16.722-40.233 12.442 41.752 6.185-43.111 22.436 37.337-4.724-43.299 31.008 30.598-15.35-40.768 37.649 21.922-25.009-35.676 41.93 11.883-33.1-28.344 43.559 1.077-39.093-19.207 42.446-9.794-42.657-8.888 38.699-20.04-43.522 1.998 32.491-29.027-41.666 12.756 24.252-36.2-37.178 22.719 14.482-41.095-30.351 31.243 3.808-43.398-21.632 37.821-7.113-42.988-11.552 42.011-17.562-39.874-.74 43.56-26.932-34.248 10.118 42.386-34.607-26.48 20.34 38.527-40.103-17.03 29.281 32.254-43.079-6.522 36.386 23.965-43.349 4.389 41.205 14.164-40.898 15.024 43.428 3.474z"/><linearGradient id="b" gradientUnits="userSpaceOnUse" x1="-20.229" y1="268.343" x2="-13.898" y2="268.343" gradientTransform="rotate(79.765 2854.096 2965.574) scale(18.803)"><stop offset="0" stop-color="#febf10"/><stop offset="1" stop-color="#f58020"/></linearGradient><path fill="url(#b)" d="M161.68 197.759c-3.746-42.887 28.016-80.754 70.904-84.502 42.895-3.746 80.757 28.014 84.502 70.911 3.748 42.891-28.016 80.752-70.906 84.497-42.892 3.744-80.752-28.015-84.5-70.906z"/><path opacity=".118" fill="#F6EB16" d="M161.668 197.771c-3.754-42.895 28.021-80.753 70.906-84.507 42.894-3.75 80.751 28.02 84.5 70.907 6.811 49.804-147.707 65.388-155.406 13.6z"/><path opacity=".255" fill="#F6EB16" d="M174.302 180.158c-10.562-16.802-.594-40.845 22.258-53.666 22.84-12.827 49.952-9.599 60.516 7.199 10.561 16.807.581 40.851-22.268 53.671-22.842 12.822-49.949 9.591-60.506-7.204z"/><linearGradient id="c" gradientUnits="userSpaceOnUse" x1="-44.419" y1="293.437" x2="-38.085" y2="293.437" gradientTransform="rotate(-34.023 -17446.75 2501.372) scale(35.722)"><stop offset="0" stop-color="#f6eb16"/><stop offset="1" stop-color="#f58020"/></linearGradient><path fill="url(#c)" d="M238.214 267.275a78.021 78.021 0 007.802-.279c41.955-3.67 73.035-40.719 69.362-82.672-3.662-41.965-40.704-73.035-82.659-69.373-41.962 3.672-73.044 40.704-69.37 82.663 3.434 39.339 36.203 69.111 74.865 69.661zm-.049 3.385c-40.375-.573-74.599-31.654-78.191-72.748-3.828-43.823 28.626-82.505 72.451-86.325 43.819-3.838 82.496 28.62 86.331 72.439 3.834 43.824-28.617 82.494-72.455 86.333a77.319 77.319 0 01-8.136.301z"/><linearGradient id="d" gradientUnits="userSpaceOnUse" x1="433.06" y1="381.356" x2="581.227" y2="344.414" gradientTransform="translate(-358 -155)"><stop offset="0" stop-color="#a1a1a0"/><stop offset="1" stop-color="#fff"/></linearGradient><path fill="url(#d)" d="M53.3 277.507c-15.626 0-28.298-12.669-28.298-28.3 0-13.17 9.009-24.247 21.203-27.396a49.794 49.794 0 01-1.08-10.329c0-27.221 21.907-49.331 49.045-49.671 6.17-32.236 34.517-56.604 68.547-56.604 27.501 0 51.291 15.921 62.663 39.042a39.531 39.531 0 0114.054-2.57c21.876 0 39.618 17.74 39.618 39.617 0 3.256-.397 6.426-1.143 9.457 22.979.729 41.388 19.586 41.388 42.734 0 23.615-19.148 42.763-42.762 42.763-42.083-.003-144.498 1.257-223.235 1.257z"/><linearGradient id="e" gradientUnits="userSpaceOnUse" x1="597.489" y1="342.353" x2="488.079" y2="424.8" gradientTransform="translate(-358 -155)"><stop offset="0" stop-color="#a1a1a0"/><stop offset="1" stop-color="#fff"/></linearGradient><path fill="url(#e)" d="M251.234 276.344c-46.971.272-122.768 1.066-186.405 1.157-5.451-7.092-8.498-16.082-7.994-25.708 1.071-20.483 17.829-36.445 38.021-36.847-.046-.99-.045-1.989.007-2.998.868-16.582 15.022-29.33 31.601-28.462a29.858 29.858 0 0111.919 3.15c9.32-15.045 26.342-24.688 45.262-23.699 26.263 1.374 46.754 22.737 47.491 48.571 17.15 6.242 28.984 23.12 27.982 42.284a42.401 42.401 0 01-7.884 22.552z"/><linearGradient id="f" gradientUnits="userSpaceOnUse" x1="550.703" y1="371.53" x2="584.407" y2="447.23" gradientTransform="translate(-358 -155)"><stop offset="0" stop-color="#a1a1a0"/><stop offset="1" stop-color="#fff"/></linearGradient><path fill="url(#f)" d="M305.963 264.507c-7.665 7.277-18.024 11.744-29.429 11.744-29.531 0-88.777.62-148.7.99 4.819-9.708 13.247-17.377 23.618-21.149.742-25.836 21.229-47.199 47.494-48.572 18.918-.988 35.94 8.654 45.262 23.698a29.948 29.948 0 0111.921-3.148c16.577-.866 30.734 11.882 31.598 28.462.053 1.009.053 2.012.007 2.999a38.641 38.641 0 0118.229 4.976z"/></svg>