<svg xmlns="http://www.w3.org/2000/svg" width="400" height="400"><linearGradient id="a" gradientUnits="userSpaceOnUse" x1="293.69" y1="152.925" x2="234.133" y2="226.473"><stop offset="0" stop-color="#5abfd5"/><stop offset="1" stop-color="#0f298f"/></linearGradient><path fill-rule="evenodd" clip-rule="evenodd" fill="url(#a)" d="M255.705 96.604c16.573-3.809 33.123-2.334 47.896 3.319a59.947 59.947 0 00-11.365 1.492c-32.119 7.383-52.179 39.418-44.794 71.536 7.385 32.121 39.418 52.179 71.537 44.793 15.411-3.542 28.042-12.765 36.202-24.943-6.067 30.993-29.744 57.082-62.506 64.612-44.399 10.206-88.684-17.522-98.89-61.919-10.207-44.399 17.522-88.683 61.92-98.89z"/><linearGradient id="b" gradientUnits="userSpaceOnUse" x1="438.098" y1="394.514" x2="559.737" y2="364.185" gradientTransform="translate(-358 -155)"><stop offset="0" stop-color="#a1a1a0"/><stop offset="1" stop-color="#fff"/></linearGradient><path fill="url(#b)" d="M62.233 281.507c-12.829 0-23.231-10.4-23.231-23.233 0-10.812 7.396-19.905 17.407-22.491a40.903 40.903 0 01-.887-8.479c0-22.348 17.985-40.499 40.264-40.778 5.065-26.464 28.337-46.469 56.274-46.469 22.578 0 42.108 13.07 51.444 32.052a32.438 32.438 0 0111.538-2.11c17.958 0 32.524 14.564 32.524 32.523 0 2.674-.326 5.276-.938 7.765 18.864.598 33.979 16.079 33.979 35.083 0 19.388-15.721 35.105-35.106 35.105-34.548-.002-118.627 1.032-183.268 1.032z"/><linearGradient id="c" gradientUnits="userSpaceOnUse" x1="573.089" y1="362.494" x2="483.267" y2="430.18" gradientTransform="translate(-358 -155)"><stop offset="0" stop-color="#a1a1a0"/><stop offset="1" stop-color="#fff"/></linearGradient><path fill="url(#c)" d="M224.73 280.553c-38.561.224-100.788.875-153.032.949a31.784 31.784 0 01-6.562-21.105c.879-16.816 14.637-29.92 31.213-30.249a24.97 24.97 0 01.006-2.462c.712-13.613 12.333-24.079 25.943-23.367a24.552 24.552 0 019.785 2.586c7.652-12.351 21.626-20.267 37.158-19.456 21.561 1.128 38.383 18.667 38.989 39.876 14.08 5.124 23.795 18.98 22.972 34.714a34.794 34.794 0 01-6.472 18.514z"/><linearGradient id="d" gradientUnits="userSpaceOnUse" x1="534.679" y1="386.447" x2="562.348" y2="448.594" gradientTransform="translate(-358 -155)"><stop offset="0" stop-color="#a1a1a0"/><stop offset="1" stop-color="#fff"/></linearGradient><path fill="url(#d)" d="M269.661 270.835c-6.293 5.974-14.797 9.64-24.16 9.64-24.244 0-72.883.51-122.077.813 3.957-7.97 10.875-14.265 19.39-17.362.609-21.211 17.427-38.748 38.99-39.877 15.531-.811 29.505 7.105 37.159 19.456a24.625 24.625 0 019.786-2.584c13.609-.712 25.232 9.754 25.94 23.366.043.828.043 1.65.007 2.462a31.713 31.713 0 0114.965 4.086z"/></svg>