<svg xmlns="http://www.w3.org/2000/svg" width="400" height="400"><linearGradient id="a" gradientUnits="userSpaceOnUse" x1="187.169" y1="-17.378" x2="362.296" y2="26.286" gradientTransform="matrix(1 0 0 -1 -106 205)"><stop offset="0" stop-color="#a1a1a0"/><stop offset="1" stop-color="#fff"/></linearGradient><path fill="url(#a)" d="M55.449 282.838c-18.469 0-33.447-14.976-33.447-33.449 0-15.568 10.648-28.657 25.061-32.381a58.923 58.923 0 01-1.277-12.21c0-32.172 25.894-58.307 57.969-58.709 7.292-38.101 40.797-66.901 81.021-66.901 32.505 0 60.623 18.816 74.065 46.146a46.724 46.724 0 0116.61-3.038c25.856 0 46.826 20.968 46.826 46.826 0 3.85-.47 7.596-1.349 11.177 27.157.86 48.915 23.147 48.915 50.511 0 27.912-22.631 50.54-50.54 50.54-49.739 0-170.789 1.488-263.854 1.488z"/><linearGradient id="b" gradientUnits="userSpaceOnUse" x1="381.516" y1="28.723" x2="252.196" y2="-68.727" gradientTransform="matrix(1 0 0 -1 -106 205)"><stop offset="0" stop-color="#a1a1a0"/><stop offset="1" stop-color="#fff"/></linearGradient><path fill="url(#b)" d="M289.399 281.462c-55.519.324-145.107 1.262-220.322 1.37-6.444-8.385-10.044-19.011-9.45-30.389 1.266-24.212 21.074-43.077 44.939-43.55a35.237 35.237 0 01.008-3.545c1.025-19.6 17.754-34.669 37.351-33.642a35.29 35.29 0 0114.088 3.722c11.018-17.782 31.135-29.179 53.498-28.012 31.042 1.623 55.261 26.875 56.134 57.409 20.271 7.377 34.26 27.326 33.075 49.977a50.14 50.14 0 01-9.321 26.66z"/><linearGradient id="c" gradientUnits="userSpaceOnUse" x1="326.221" y1="-5.767" x2="366.058" y2="-95.242" gradientTransform="matrix(1 0 0 -1 -106 205)"><stop offset="0" stop-color="#a1a1a0"/><stop offset="1" stop-color="#fff"/></linearGradient><path fill="url(#c)" d="M354.088 267.474c-9.061 8.599-21.306 13.878-34.783 13.878-34.905 0-104.933.735-175.758 1.172 5.697-11.475 15.659-20.536 27.916-24.997.878-30.538 25.092-55.787 56.136-57.41 22.361-1.169 42.481 10.229 53.499 28.01a35.449 35.449 0 0114.091-3.722c19.593-1.024 36.324 14.047 37.348 33.643.063 1.191.063 2.375.01 3.544a45.623 45.623 0 0121.541 5.882z"/></svg>