<svg xmlns="http://www.w3.org/2000/svg" width="400" height="400"><linearGradient id="a" gradientUnits="userSpaceOnUse" x1="346.752" y1="-28.614" x2="497.941" y2="9.082" gradientTransform="matrix(1 0 0 -1 -252 149)"><stop offset="0" stop-color="#a1a1a0"/><stop offset="1" stop-color="#fff"/></linearGradient><path fill="url(#a)" d="M72.545 229.812c-15.945 0-28.875-12.933-28.875-28.877 0-13.443 9.193-24.743 21.635-27.958a50.854 50.854 0 01-1.103-10.542c0-27.774 22.353-50.335 50.046-50.683 6.297-32.893 35.22-57.759 69.945-57.759 28.065 0 52.338 16.245 63.946 39.841a40.3 40.3 0 0114.336-2.624c22.324 0 40.426 18.102 40.426 40.426a40.55 40.55 0 01-1.162 9.65c23.443.742 42.23 19.984 42.23 43.607 0 24.094-19.539 43.631-43.633 43.631-42.941.001-147.446 1.288-227.791 1.288z"/><linearGradient id="b" gradientUnits="userSpaceOnUse" x1="514.531" y1="11.183" x2="402.887" y2="-72.947" gradientTransform="matrix(1 0 0 -1 -252 149)"><stop offset="0" stop-color="#a1a1a0"/><stop offset="1" stop-color="#fff"/></linearGradient><path fill="url(#b)" d="M274.518 228.622c-47.93.278-125.272 1.089-190.207 1.183-5.562-7.234-8.672-16.408-8.158-26.23 1.093-20.904 18.193-37.192 38.796-37.601a30.956 30.956 0 01.007-3.061c.883-16.918 15.329-29.928 32.246-29.044a30.55 30.55 0 0112.162 3.216c9.513-15.352 26.881-25.19 46.188-24.184 26.801 1.402 47.703 23.2 48.463 49.564 17.496 6.366 29.571 23.588 28.553 43.144a43.292 43.292 0 01-8.05 23.013z"/><linearGradient id="c" gradientUnits="userSpaceOnUse" x1="466.795" y1="-18.586" x2="501.186" y2="-95.829" gradientTransform="matrix(1 0 0 -1 -252 149)"><stop offset="0" stop-color="#a1a1a0"/><stop offset="1" stop-color="#fff"/></linearGradient><path fill="url(#c)" d="M330.367 216.545c-7.823 7.428-18.396 11.98-30.029 11.98-30.138 0-90.591.639-151.735 1.015 4.917-9.909 13.517-17.731 24.099-21.58.757-26.366 21.663-48.164 48.461-49.565 19.308-1.008 36.677 8.831 46.187 24.183a30.58 30.58 0 0112.164-3.216c16.918-.884 31.362 12.127 32.246 29.045.055 1.03.055 2.051.01 3.06a39.43 39.43 0 0118.597 5.078z"/><linearGradient id="d" gradientUnits="userSpaceOnUse" x1="521.596" y1="-114.889" x2="502.894" y2="-134.944" gradientTransform="matrix(1 0 0 -1 -252 149)"><stop offset="0" stop-color="#5bbfd5"/><stop offset="1" stop-color="#293787"/></linearGradient><path fill="url(#d)" d="M276.65 299.161c-8.688 5.016-19.793 2.04-24.81-6.646-7.327-13.037.479-23.707-6.159-46.992 15.744 16.959 29.988 15.966 37.615 28.83 5.015 8.687 2.038 19.795-6.646 24.808z"/><path fill="#FFF" d="M277.036 289.171c2.646-4.213 2.935-9.716.272-14.325-1.517-2.556-3.377-4.396-5.51-5.945 3.547 2.039 6.566 4.257 8.82 8.063 2.637 4.563 2.382 10.005-.197 14.203a1.969 1.969 0 01-3.464.094 1.957 1.957 0 01.079-2.09z"/><linearGradient id="e" gradientUnits="userSpaceOnUse" x1="415.493" y1="-114.887" x2="396.792" y2="-134.942" gradientTransform="matrix(1 0 0 -1 -252 149)"><stop offset="0" stop-color="#5bbfd5"/><stop offset="1" stop-color="#293787"/></linearGradient><path fill="url(#e)" d="M170.547 299.161c-8.686 5.016-19.793 2.04-24.807-6.646-7.329-13.037.477-23.707-6.163-46.992 15.747 16.959 29.992 15.966 37.617 28.83 5.014 8.687 2.038 19.795-6.647 24.808z"/><path fill="#FFF" d="M170.931 289.171c2.647-4.213 2.935-9.716.274-14.325-1.516-2.556-3.376-4.396-5.507-5.945 3.546 2.039 6.563 4.257 8.82 8.063 2.635 4.563 2.377 10.005-.198 14.203a1.968 1.968 0 01-3.465.094 1.965 1.965 0 01.076-2.09z"/><linearGradient id="f" gradientUnits="userSpaceOnUse" x1="483.557" y1="-164.935" x2="464.856" y2="-184.988" gradientTransform="matrix(1 0 0 -1 -252 149)"><stop offset="0" stop-color="#5bbfd5"/><stop offset="1" stop-color="#293787"/></linearGradient><path fill="url(#f)" d="M238.611 349.213c-8.68 5.013-19.789 2.037-24.805-6.646-7.328-13.038.479-23.707-6.164-46.998 15.746 16.963 29.996 15.972 37.615 28.837 5.016 8.682 2.042 19.791-6.646 24.807z"/><path fill="#FFF" d="M238.997 339.217c2.647-4.214 2.937-9.713.274-14.319-1.518-2.559-3.375-4.398-5.508-5.951 3.551 2.046 6.562 4.26 8.82 8.065a13.867 13.867 0 01-.2 14.204 1.973 1.973 0 01-3.466.098 1.993 1.993 0 01.08-2.097z"/></svg>