<svg xmlns="http://www.w3.org/2000/svg" width="400" height="400"><linearGradient id="a" gradientUnits="userSpaceOnUse" x1="200.752" y1="27.388" x2="351.942" y2="65.084" gradientTransform="matrix(1 0 0 -1 -106 205)"><stop offset="0" stop-color="#a1a1a0"/><stop offset="1" stop-color="#fff"/></linearGradient><path fill="url(#a)" d="M72.545 229.812c-15.945 0-28.875-12.933-28.875-28.877 0-13.443 9.193-24.743 21.635-27.958a50.854 50.854 0 01-1.103-10.542c0-27.774 22.353-50.335 50.046-50.683 6.297-32.893 35.22-57.759 69.945-57.759 28.065 0 52.338 16.245 63.946 39.841a40.3 40.3 0 0114.336-2.624c22.324 0 40.426 18.102 40.426 40.426a40.55 40.55 0 01-1.162 9.65c23.443.742 42.23 19.984 42.23 43.607 0 24.094-19.54 43.631-43.633 43.631-42.941.001-147.446 1.288-227.791 1.288z"/><linearGradient id="b" gradientUnits="userSpaceOnUse" x1="368.533" y1="67.184" x2="256.889" y2="-16.946" gradientTransform="matrix(1 0 0 -1 -106 205)"><stop offset="0" stop-color="#a1a1a0"/><stop offset="1" stop-color="#fff"/></linearGradient><path fill="url(#b)" d="M274.518 228.622c-47.93.278-125.272 1.089-190.207 1.183-5.562-7.234-8.672-16.408-8.158-26.23 1.093-20.904 18.193-37.192 38.796-37.601a30.956 30.956 0 01.007-3.061c.883-16.918 15.329-29.928 32.246-29.044a30.55 30.55 0 0112.162 3.216c9.513-15.352 26.881-25.19 46.188-24.184 26.801 1.402 47.703 23.2 48.463 49.564 17.496 6.366 29.571 23.588 28.553 43.144a43.292 43.292 0 01-8.05 23.013z"/><linearGradient id="c" gradientUnits="userSpaceOnUse" x1="320.795" y1="37.415" x2="355.186" y2="-39.829" gradientTransform="matrix(1 0 0 -1 -106 205)"><stop offset="0" stop-color="#a1a1a0"/><stop offset="1" stop-color="#fff"/></linearGradient><path fill="url(#c)" d="M330.367 216.545c-7.823 7.428-18.396 11.98-30.029 11.98-30.138 0-90.591.639-151.735 1.015 4.917-9.909 13.517-17.731 24.099-21.58.757-26.366 21.663-48.164 48.461-49.565 19.308-1.008 36.677 8.831 46.187 24.183a30.58 30.58 0 0112.164-3.216c16.918-.884 31.362 12.127 32.246 29.045a30.34 30.34 0 01.009 3.06 39.43 39.43 0 0118.598 5.078z"/><linearGradient id="d" gradientUnits="userSpaceOnUse" x1="375.597" y1="-58.888" x2="356.895" y2="-78.943" gradientTransform="matrix(1 0 0 -1 -106 205)"><stop offset="0" stop-color="#5bbfd5"/><stop offset="1" stop-color="#293787"/></linearGradient><path fill="url(#d)" d="M276.65 299.161c-8.688 5.016-19.793 2.04-24.81-6.646-7.327-13.037.479-23.707-6.159-46.992 15.744 16.959 29.988 15.966 37.615 28.83 5.015 8.687 2.038 19.795-6.646 24.808z"/><path fill="#FFF" d="M277.036 289.171c2.646-4.213 2.935-9.716.272-14.325-1.517-2.556-3.377-4.396-5.51-5.945 3.547 2.039 6.566 4.257 8.82 8.063 2.637 4.563 2.382 10.005-.197 14.203a1.969 1.969 0 01-3.464.094 1.957 1.957 0 01.079-2.09z"/><linearGradient id="e" gradientUnits="userSpaceOnUse" x1="269.493" y1="-58.887" x2="250.792" y2="-78.942" gradientTransform="matrix(1 0 0 -1 -106 205)"><stop offset="0" stop-color="#5bbfd5"/><stop offset="1" stop-color="#293787"/></linearGradient><path fill="url(#e)" d="M170.547 299.161c-8.686 5.016-19.793 2.04-24.807-6.646-7.329-13.037.477-23.707-6.163-46.992 15.747 16.959 29.992 15.966 37.617 28.83 5.014 8.687 2.038 19.795-6.647 24.808z"/><path fill="#FFF" d="M170.931 289.171c2.647-4.213 2.935-9.716.274-14.325-1.516-2.556-3.376-4.396-5.507-5.945 3.546 2.039 6.563 4.257 8.82 8.063 2.635 4.563 2.377 10.005-.198 14.203a1.968 1.968 0 01-3.465.094 1.965 1.965 0 01.076-2.09z"/><linearGradient id="f" gradientUnits="userSpaceOnUse" x1="255.91" y1="-107.316" x2="239.936" y2="-124.446" gradientTransform="matrix(1 0 0 -1 -106 205)"><stop offset="0" stop-color="#5bbfd5"/><stop offset="1" stop-color="#293787"/></linearGradient><path fill="url(#f)" d="M155.908 342.509c-7.385 4.3-16.828 1.749-21.091-5.697-6.231-11.178.405-20.325-5.24-40.288 13.388 14.539 25.499 13.688 31.981 24.717 4.264 7.447 1.734 16.97-5.65 21.268z"/><path fill="#FFF" d="M156.234 333.943c2.25-3.611 2.495-8.329.233-12.281-1.289-2.19-2.871-3.769-4.682-5.097 3.015 1.748 5.58 3.649 7.499 6.913 2.24 3.912 2.021 8.577-.168 12.177a1.666 1.666 0 01-2.946.081 1.7 1.7 0 01.064-1.793z"/><linearGradient id="g" gradientUnits="userSpaceOnUse" x1="218.921" y1="-54.359" x2="204.283" y2="-70.057" gradientTransform="matrix(1 0 0 -1 -106 205)"><stop offset="0" stop-color="#5bbfd5"/><stop offset="1" stop-color="#293787"/></linearGradient><path fill="url(#g)" d="M118.464 286.919c-6.828 3.912-15.559 1.591-19.5-5.185-5.761-10.171.375-18.495-4.845-36.66 12.378 13.23 23.575 12.455 29.569 22.491 3.942 6.777 1.603 15.443-5.224 19.354z"/><path fill="#FFF" d="M118.766 279.125c2.081-3.287 2.307-7.58.215-11.176-1.192-1.993-2.654-3.429-4.329-4.638 2.787 1.591 5.159 3.32 6.933 6.29 2.071 3.561 1.868 7.806-.156 11.081a1.554 1.554 0 01-2.723.074 1.526 1.526 0 01.06-1.631z"/><linearGradient id="h" gradientUnits="userSpaceOnUse" x1="296.353" y1="-107.652" x2="286.828" y2="-117.865" gradientTransform="matrix(1 0 0 -1 -106 205)"><stop offset="0" stop-color="#5bbfd5"/><stop offset="1" stop-color="#293787"/></linearGradient><path fill="url(#h)" d="M193.958 330.583c-4.442 2.545-10.123 1.035-12.687-3.373-3.748-6.617.244-12.033-3.152-23.852 8.053 8.607 15.338 8.104 19.238 14.633 2.565 4.409 1.043 10.047-3.399 12.592z"/><path fill="#FFF" d="M194.155 325.512a6.994 6.994 0 00.14-7.271c-.775-1.297-1.727-2.23-2.816-3.018 1.813 1.035 3.356 2.16 4.511 4.093a6.997 6.997 0 01-.102 7.209 1.011 1.011 0 01-1.772.048.993.993 0 01.039-1.061z"/><linearGradient id="i" gradientUnits="userSpaceOnUse" x1="323.921" y1="-55.359" x2="309.283" y2="-71.057" gradientTransform="matrix(1 0 0 -1 -106 205)"><stop offset="0" stop-color="#5bbfd5"/><stop offset="1" stop-color="#293787"/></linearGradient><path fill="url(#i)" d="M223.465 287.919c-6.828 3.912-15.559 1.591-19.5-5.185-5.761-10.171.375-18.495-4.845-36.66 12.378 13.23 23.575 12.455 29.569 22.491 3.942 6.777 1.602 15.443-5.224 19.354z"/><path fill="#FFF" d="M223.766 280.125c2.081-3.287 2.308-7.58.216-11.176-1.192-1.993-2.653-3.429-4.329-4.638 2.787 1.591 5.159 3.32 6.934 6.29 2.07 3.561 1.868 7.806-.156 11.081a1.552 1.552 0 01-2.722.074 1.52 1.52 0 01.057-1.631z"/><linearGradient id="j" gradientUnits="userSpaceOnUse" x1="376.266" y1="-114.311" x2="365.048" y2="-126.34" gradientTransform="matrix(1 0 0 -1 -106 205)"><stop offset="0" stop-color="#5bbfd5"/><stop offset="1" stop-color="#293787"/></linearGradient><path fill="url(#j)" d="M274.438 340.598c-5.138 3.041-11.707 1.237-14.673-4.029-4.336-7.905.282-14.375-3.646-28.494 9.314 10.283 17.739 9.681 22.25 17.481 2.967 5.266 1.206 12.003-3.931 15.042z"/><path fill="#FFF" d="M274.665 334.54a8.592 8.592 0 00.162-8.687c-.896-1.549-1.996-2.665-3.257-3.604 2.097 1.236 3.882 2.581 5.217 4.889a8.594 8.594 0 01-.117 8.613 1.191 1.191 0 01-.456.495 1.149 1.149 0 01-1.593-.438c-.23-.41-.198-.903.044-1.268z"/><linearGradient id="k" gradientUnits="userSpaceOnUse" x1="337.559" y1="-108.934" x2="318.857" y2="-128.989" gradientTransform="matrix(1 0 0 -1 -106 205)"><stop offset="0" stop-color="#5bbfd5"/><stop offset="1" stop-color="#293787"/></linearGradient><path fill="url(#k)" d="M238.611 349.213c-8.68 5.014-19.789 2.037-24.805-6.646-7.328-13.039.479-23.707-6.164-46.998 15.746 16.963 29.996 15.972 37.615 28.836 5.016 8.683 2.042 19.792-6.646 24.808z"/><path fill="#FFF" d="M238.997 339.217c2.647-4.214 2.937-9.713.274-14.32-1.518-2.558-3.375-4.397-5.508-5.951 3.551 2.047 6.562 4.261 8.82 8.066a13.867 13.867 0 01-.2 14.204 1.973 1.973 0 01-3.466.098 1.993 1.993 0 01.08-2.097z"/></svg>