<svg xmlns="http://www.w3.org/2000/svg" width="400" height="400"><linearGradient id="a" gradientUnits="userSpaceOnUse" x1="90.153" y1="142.284" x2="301.385" y2="149.661"><stop offset="0" stop-color="#6b6b6b"/><stop offset="1" stop-color="#e3e3e3"/></linearGradient><path fill-rule="evenodd" clip-rule="evenodd" fill="url(#a)" d="M65.722 236.649c-16.892 0-30.593-13.698-30.593-30.592 0-14.245 9.743-26.216 22.923-29.621a53.882 53.882 0 01-1.167-11.17c0-29.429 23.683-53.333 53.023-53.701 6.672-34.85 37.317-61.194 74.109-61.194 29.734 0 55.454 17.211 67.749 42.21a42.738 42.738 0 0115.194-2.778c23.65 0 42.83 19.18 42.83 42.831 0 3.523-.429 6.948-1.233 10.226 24.838.785 44.744 21.172 44.744 46.201 0 25.529-20.701 46.233-46.229 46.233-45.498-.002-156.223 1.355-241.35 1.355z"/><linearGradient id="b" gradientUnits="userSpaceOnUse" x1="240.22" y1="131.994" x2="157.437" y2="237.951"><stop offset="0" stop-color="#6b6b6b"/><stop offset="1" stop-color="#e3e3e3"/></linearGradient><path fill-rule="evenodd" clip-rule="evenodd" fill="url(#b)" d="M279.718 235.392c-50.783.294-132.732 1.153-201.529 1.252a41.858 41.858 0 01-8.644-27.796c1.158-22.146 19.275-39.402 41.104-39.835-.05-1.07-.047-2.152.008-3.244.938-17.927 16.24-31.709 34.167-30.773a32.38 32.38 0 0112.884 3.406c10.08-16.266 28.482-26.69 48.936-25.622 28.395 1.484 50.544 24.58 51.345 52.513 18.542 6.746 31.338 24.993 30.255 45.712a45.875 45.875 0 01-8.526 24.387z"/><linearGradient id="c" gradientUnits="userSpaceOnUse" x1="252.575" y1="178.146" x2="236.987" y2="258.342"><stop offset="0" stop-color="#6b6b6b"/><stop offset="1" stop-color="#e3e3e3"/></linearGradient><path fill-rule="evenodd" clip-rule="evenodd" fill="url(#c)" d="M338.887 222.596c-8.288 7.867-19.487 12.696-31.815 12.696-31.928 0-95.981.669-160.766 1.068 5.212-10.496 14.322-18.785 25.535-22.863.801-27.934 22.951-51.028 51.347-52.512 20.452-1.07 38.853 9.354 48.936 25.622a32.367 32.367 0 0112.887-3.408c17.923-.937 33.226 12.848 34.162 30.771.06 1.095.06 2.174.01 3.247a41.742 41.742 0 0119.704 5.379z"/><linearGradient id="d" gradientUnits="userSpaceOnUse" x1="177.328" y1="337.989" x2="146.183" y2="252.419"><stop offset="0" stop-color="#ff3909"/><stop offset="1" stop-color="#fcd50e"/></linearGradient><path fill-rule="evenodd" clip-rule="evenodd" fill="url(#d)" d="M163.173 244.533l15.857 45.033-17.56 4.645 27.758 67.06-53.431-82.821 19.407-5.422-14.763-28.495z"/><linearGradient id="e" gradientUnits="userSpaceOnUse" x1="257.22" y1="337.993" x2="226.075" y2="252.423"><stop offset="0" stop-color="#ff3909"/><stop offset="1" stop-color="#fcd50e"/></linearGradient><path fill-rule="evenodd" clip-rule="evenodd" fill="url(#e)" d="M243.062 244.533l15.859 45.033-17.56 4.645 27.759 67.06-53.432-82.821 19.405-5.422-14.76-28.495z"/></svg>