<svg xmlns="http://www.w3.org/2000/svg" width="400" height="400"><linearGradient id="a" gradientUnits="userSpaceOnUse" x1="203.582" y1="38.58" x2="361.612" y2="77.981" gradientTransform="matrix(1 0 0 -1 -106 205)"><stop offset="0" stop-color="#a1a1a0"/><stop offset="1" stop-color="#fff"/></linearGradient><path fill="url(#a)" d="M74.375 220.98c-16.665 0-30.182-13.517-30.182-30.183 0-14.052 9.611-25.862 22.615-29.223a53.127 53.127 0 01-1.151-11.02c0-29.03 23.364-52.612 52.308-52.976 6.583-34.38 36.813-60.372 73.111-60.372 29.334 0 54.706 16.979 66.834 41.643a42.157 42.157 0 0114.992-2.743c23.328 0 42.251 18.921 42.251 42.255 0 3.475-.425 6.854-1.219 10.086 24.509.775 44.143 20.887 44.143 45.58 0 25.184-20.421 45.606-45.606 45.606-44.884.004-154.116 1.347-238.096 1.347z"/><linearGradient id="b" gradientUnits="userSpaceOnUse" x1="378.956" y1="80.179" x2="262.261" y2="-7.757" gradientTransform="matrix(1 0 0 -1 -106 205)"><stop offset="0" stop-color="#a1a1a0"/><stop offset="1" stop-color="#fff"/></linearGradient><path fill="url(#b)" d="M285.484 219.736c-50.096.291-130.939 1.139-198.812 1.236a41.29 41.29 0 01-8.527-27.42c1.142-21.85 19.015-38.874 40.549-39.3a32.545 32.545 0 01.009-3.2c.924-17.684 16.021-31.282 33.705-30.358a31.933 31.933 0 0112.711 3.361c9.943-16.047 28.099-26.33 48.274-25.278 28.016 1.464 49.865 24.25 50.656 51.807 18.289 6.654 30.912 24.654 29.844 45.097a45.192 45.192 0 01-8.409 24.055z"/><linearGradient id="c" gradientUnits="userSpaceOnUse" x1="329.06" y1="49.06" x2="365.008" y2="-31.681" gradientTransform="matrix(1 0 0 -1 -106 205)"><stop offset="0" stop-color="#a1a1a0"/><stop offset="1" stop-color="#fff"/></linearGradient><path fill="url(#c)" d="M343.861 207.113c-8.178 7.763-19.229 12.522-31.392 12.522-31.497 0-94.688.666-158.598 1.06 5.139-10.356 14.128-18.533 25.188-22.557.793-27.557 22.645-50.341 50.656-51.805 20.179-1.054 38.332 9.229 48.275 25.276a31.964 31.964 0 0112.714-3.361c17.684-.924 32.778 12.676 33.705 30.36.055 1.077.058 2.144.006 3.199a41.192 41.192 0 0119.446 5.306z"/><linearGradient id="d" gradientUnits="userSpaceOnUse" x1="254.744" y1="-49.708" x2="229.251" y2="-95.699" gradientTransform="matrix(1 0 0 -1 -106 205)"><stop offset="0" stop-color="#5bbfd5"/><stop offset="1" stop-color="#fff"/></linearGradient><path fill="url(#d)" d="M139.745 236.43l2.377.118.139 6.827 5.888-3.07v2.562l-5.815 4.003.048 2.283 5.767-3.004v2.56l-5.694 3.922.124 6.075 6.357-3.301v6.701l5.46-3.004.551-6.894 2.217-1.281.275 6.499 2.005-1.102.563-7.039 2.217-1.278.282 6.634 5.981-3.293 1.293 2.002-6.209 3.635 5.582 3.55-2.22 1.28-6.405-3.047-1.984 1.16 5.548 3.528-2.22 1.28-6.363-3.027-5.994 3.51 6.539 3.655-5.482 3.61 4.937 2.89 6.363-3.028 2.22 1.28-5.548 3.528 1.984 1.16 6.405-3.047 2.22 1.28-5.582 3.55 6.209 3.635-1.293 2.002-5.981-3.293-.282 6.634-2.217-1.278-.563-7.037-2.005-1.104-.275 6.499-2.217-1.281-.551-6.894-5.485-3.02v6.717l-6.36-3.301-.037 5.736 5.806 3.996v2.562l-5.827-3.041-.015 2.299 5.842 4.025v2.562l-5.866-3.06-.042 7.193-2.38-.118-.139-6.827-5.885 3.071v-2.559l5.812-4.008-.048-2.283-5.764 3.004v-2.56l5.691-3.922-.124-6.075-6.357 3.301v-6.701l-5.46 3.004-.551 6.894-2.217 1.281-.275-6.499-2.005 1.104-.562 7.037-2.217 1.278-.283-6.633-5.981 3.292-1.293-2.002 6.21-3.635-5.582-3.55 2.217-1.28 6.405 3.047 1.985-1.16-5.547-3.528 2.217-1.28 6.365 3.028 5.994-3.511-6.539-3.655 5.482-3.61-4.937-2.889-6.365 3.028-2.217-1.281 5.547-3.528-1.985-1.16-6.405 3.047-2.217-1.28 5.582-3.55-6.21-3.635 1.293-2.002 5.981 3.293.283-6.634 2.217 1.278.562 7.039 2.005 1.102.275-6.498 2.217 1.28.551 6.894 5.485 3.017V255.4l6.36 3.301.037-5.736-5.803-3.996v-2.562l5.824 3.041.015-2.299-5.839-4.025v-2.562l5.863 3.06.045-7.192zm1.314 30.483a1.656 1.656 0 100 3.311 1.656 1.656 0 100-3.311zm5.203.215l-2.417 1.414 4.077 2.388 2.617-1.722-4.277-2.08zm-7.953 1.414l-4.077-2.388-2.617 1.722 4.28 2.08 2.414-1.414zm-2.332 4.919v3.425l3.525-2.093-.07-3.234-3.455 1.902zm6.618-1.969l-.019 3.271 3.577 2.122v-3.438l-3.558-1.955zm3.582-7.868v-3.426l-3.525 2.093.067 3.234 3.458-1.901zm-6.617 1.968l.021-3.271-3.58-2.122v3.438l3.559 1.955z"/><linearGradient id="e" gradientUnits="userSpaceOnUse" x1="374.863" y1="-49.71" x2="349.371" y2="-95.7" gradientTransform="matrix(1 0 0 -1 -106 205)"><stop offset="0" stop-color="#5bbfd5"/><stop offset="1" stop-color="#fff"/></linearGradient><path fill="url(#e)" d="M259.861 236.43l2.377.118.143 6.827 5.885-3.07v2.562l-5.812 4.003.046 2.283 5.768-3.004v2.56l-5.694 3.922.124 6.075 6.357-3.301v6.701l5.459-3.004.553-6.894 2.217-1.281.277 6.499 2.002-1.102.563-7.039 2.217-1.278.285 6.634 5.981-3.293 1.289 2.002-6.209 3.635 5.582 3.55-2.217 1.28-6.404-3.047-1.984 1.16 5.546 3.528-2.217 1.28-6.366-3.027-5.994 3.51 6.542 3.655-5.481 3.61 4.935 2.89 6.366-3.028 2.217 1.28-5.546 3.528 1.983 1.16 6.406-3.047 2.217 1.28-5.582 3.55 6.209 3.635-1.291 2.002-5.98-3.293-.285 6.634-2.217-1.278-.562-7.037-2.002-1.104-.278 6.499-2.218-1.281-.551-6.894-5.484-3.02v6.717l-6.36-3.301-.036 5.736 5.807 3.996v2.562l-5.828-3.041-.014 2.299 5.842 4.025v2.562l-5.863-3.06-.045 7.193-2.379-.118-.143-6.827-5.884 3.071v-2.559l5.812-4.008-.045-2.283-5.767 3.004v-2.56l5.692-3.922-.123-6.075-6.357 3.301v-6.701l-5.463 3.004-.549 6.894-2.217 1.281-.278-6.499-2.005 1.104-.561 7.037-2.218 1.278-.284-6.633-5.98 3.292-1.291-2.002 6.209-3.635-5.582-3.55 2.218-1.28 6.405 3.047 1.982-1.16-5.545-3.528 2.217-1.28 6.367 3.028 5.992-3.511-6.542-3.655 5.481-3.61-4.934-2.889-6.365 3.028-2.217-1.281 5.545-3.528-1.983-1.16-6.405 3.047-2.218-1.28 5.582-3.55-6.209-3.635 1.291-2.002 5.981 3.293.283-6.634 2.217 1.278.562 7.039 2.005 1.102.277-6.498 2.218 1.28.549 6.894 5.487 3.017V255.4l6.359 3.301.033-5.736-5.803-3.996v-2.562l5.826 3.041.016-2.299-5.842-4.025v-2.562l5.863 3.06.045-7.192zm1.314 30.483a1.655 1.655 0 100 3.31 1.655 1.655 0 000-3.31zm5.203.215l-2.413 1.414 4.076 2.388 2.613-1.722-4.276-2.08zm-7.952 1.414l-4.076-2.388-2.617 1.722 4.279 2.08 2.414-1.414zm-2.332 4.919v3.425l3.524-2.093-.066-3.234-3.458 1.902zm6.62-1.969l-.021 3.271 3.58 2.122v-3.438l-3.559-1.955zm3.583-7.868v-3.426l-3.525 2.093.066 3.234 3.459-1.901zm-6.621 1.968l.021-3.271-3.58-2.122v3.438l3.559 1.955z"/><linearGradient id="f" gradientUnits="userSpaceOnUse" x1="314.803" y1="-112.932" x2="289.31" y2="-158.922" gradientTransform="matrix(1 0 0 -1 -106 205)"><stop offset="0" stop-color="#5bbfd5"/><stop offset="1" stop-color="#fff"/></linearGradient><path fill="url(#f)" d="M199.801 299.648l2.377.117.143 6.826 5.885-3.07v2.562l-5.812 4.004.049 2.287 5.764-3.008v2.562l-5.693 3.918.127 6.075 6.354-3.302v6.706l5.463-3.009.549-6.889 2.218-1.281.277 6.496 2.005-1.104.562-7.035 2.22-1.281.282 6.633 5.98-3.291 1.293 2.002-6.212 3.637 5.582 3.547-2.217 1.281-6.405-3.047-1.984 1.162 5.547 3.525-2.219 1.281-6.365-3.029-5.993 3.514 6.542 3.652-5.48 3.61 4.934 2.889 6.365-3.024 2.217 1.281-5.545 3.524 1.983 1.163 6.405-3.047 2.217 1.277-5.582 3.549 6.212 3.639-1.293 2.002-5.981-3.292-.281 6.629-2.221-1.278-.561-7.035-2.005-1.104-.278 6.5-2.217-1.281-.549-6.891-5.486-3.017v6.711l-6.357-3.301-.036 5.735 5.803 4.001v2.561l-5.827-3.041-.012 2.301 5.839 4.021v2.562l-5.862-3.059-.045 7.194-2.378-.121-.142-6.825-5.885 3.07v-2.561l5.812-4.004-.045-2.285-5.767 3.008v-2.561l5.694-3.925-.124-6.075-6.357 3.301v-6.698l-5.46 3.004-.551 6.891-2.217 1.281-.275-6.5-2.005 1.104-.563 7.035-2.217 1.278-.285-6.629-5.981 3.292-1.29-2.002 6.208-3.639-5.582-3.549 2.217-1.277 6.408 3.047 1.981-1.163-5.545-3.524 2.217-1.281 6.366 3.024 5.994-3.51-6.542-3.655 5.482-3.609-4.934-2.891-6.366 3.029-2.217-1.281 5.545-3.525-1.981-1.162-6.408 3.047-2.217-1.281 5.582-3.547-6.208-3.637 1.29-2.002 5.981 3.291.285-6.633 2.217 1.281.563 7.035 2.005 1.104.275-6.496 2.217 1.281.551 6.889 5.484 3.021v-6.718l6.36 3.305.036-5.738-5.806-3.998v-2.562l5.827 3.04.015-2.299-5.842-4.024v-2.56l5.863 3.062.039-7.193zm1.314 30.483a1.66 1.66 0 00-1.656 1.66c0 .914.742 1.652 1.656 1.652.918 0 1.66-.738 1.66-1.652a1.66 1.66 0 00-1.66-1.66zm5.203.215l-2.414 1.416 4.076 2.389 2.617-1.723-4.279-2.082zm-7.952 1.415l-4.077-2.387-2.613 1.72 4.276 2.084 2.414-1.417zm-2.329 4.919v3.428l3.522-2.096-.067-3.234-3.455 1.902zm6.617-1.97l-.021 3.271 3.58 2.127v-3.44l-3.559-1.958zm3.582-7.868v-3.425l-3.524 2.093.065 3.234 3.459-1.902zm-6.616 1.97l.018-3.271-3.577-2.126v3.438l3.559 1.959z"/><linearGradient id="g" gradientUnits="userSpaceOnUse" x1="307.321" y1="-40.639" x2="291.154" y2="-69.806" gradientTransform="matrix(1 0 0 -1 -106 205)"><stop offset="0" stop-color="#5bbfd5"/><stop offset="1" stop-color="#fff"/></linearGradient><path fill="url(#g)" d="M195.614 234.048l1.507.075.088 4.33 3.733-1.947v1.624l-3.688 2.538.03 1.449 3.657-1.906v1.624l-3.61 2.487.079 3.853 4.031-2.094v4.25l3.464-1.905.349-4.371 1.406-.812.175 4.121 1.271-.698.357-4.464 1.406-.811.179 4.206 3.793-2.088.819 1.27-3.938 2.306 3.54 2.251-1.407.812-4.062-1.932-1.258.735 3.519 2.237-1.408.812-4.035-1.92-3.801 2.226 4.146 2.318-3.477 2.289 3.131 1.833 4.035-1.921 1.408.812-3.519 2.237 1.258.735 4.062-1.932 1.407.812-3.54 2.251 3.938 2.306-.819 1.27-3.793-2.089-.179 4.207-1.406-.811-.357-4.463-1.271-.699-.175 4.121-1.406-.812-.349-4.372-3.479-1.914v4.259l-4.034-2.093-.023 3.638 3.683 2.534v1.625l-3.696-1.929-.009 1.458 3.705 2.553v1.625l-3.721-1.939-.026 4.562-1.509-.075-.088-4.329-3.732 1.947v-1.622l3.686-2.542-.03-1.448-3.656 1.905v-1.623l3.609-2.487-.079-3.853-4.032 2.093v-4.25l-3.462 1.905-.35 4.372-1.406.812-.174-4.122-1.271.7-.356 4.463-1.406.811-.18-4.206-3.793 2.088-.82-1.271 3.938-2.305-3.54-2.251 1.406-.812 4.062 1.933 1.259-.735-3.518-2.238 1.406-.812 4.037 1.921 3.801-2.227-4.147-2.318 3.477-2.29-3.131-1.832-4.037 1.921-1.406-.812 3.518-2.237-1.259-.736-4.062 1.933-1.406-.812 3.54-2.252-3.938-2.305.82-1.27 3.793 2.088.18-4.207 1.406.811.356 4.465 1.271.698.174-4.121 1.406.812.35 4.372 3.479 1.913v-4.258l4.033 2.094.023-3.639-3.68-2.533v-1.625l3.694 1.928.009-1.457-3.703-2.554v-1.625l3.718 1.94.03-4.563zm.833 19.332a1.051 1.051 0 10-.003 2.1 1.051 1.051 0 00.003-2.1zm3.3.137l-1.532.896 2.585 1.515 1.659-1.092-2.712-1.319zm-5.043.896l-2.586-1.515-1.659 1.093 2.714 1.318 1.531-.896zm-1.479 3.119v2.173l2.235-1.328-.044-2.051-2.191 1.206zm4.197-1.248l-.012 2.074 2.268 1.347v-2.181l-2.256-1.24zm2.271-4.99v-2.172l-2.235 1.327.042 2.051 2.193-1.206zm-4.196 1.248l.014-2.074-2.271-1.346v2.181l2.257 1.239z"/><linearGradient id="h" gradientUnits="userSpaceOnUse" x1="249.703" y1="-110.391" x2="236.638" y2="-133.962" gradientTransform="matrix(1 0 0 -1 -106 205)"><stop offset="0" stop-color="#5bbfd5"/><stop offset="1" stop-color="#fff"/></linearGradient><path fill="url(#h)" d="M139.091 306.023l1.218.061.071 3.5 3.017-1.574v1.312l-2.98 2.051.024 1.172 2.956-1.541v1.312l-2.917 2.01.063 3.113 3.257-1.691v3.435l2.799-1.54.282-3.532 1.137-.656.141 3.33 1.027-.564.289-3.607 1.137-.655.144 3.399 3.065-1.688.662 1.026-3.182 1.863 2.861 1.819-1.137.655-3.283-1.561-1.016.594 2.843 1.809-1.138.656-3.261-1.552-3.071 1.799 3.351 1.873-2.81 1.851 2.53 1.481 3.261-1.553 1.138.656-2.843 1.809 1.016.594 3.283-1.561 1.137.655-2.861 1.819 3.182 1.863-.662 1.026-3.065-1.688-.144 3.4-1.137-.655-.289-3.606-1.027-.565-.141 3.33-1.137-.656-.282-3.533-2.811-1.547v3.441l-3.26-1.691-.019 2.94 2.976 2.048v1.313l-2.987-1.559-.007 1.178 2.994 2.063v1.312l-3.007-1.567-.021 3.687-1.22-.061-.072-3.499-3.016 1.574v-1.311l2.979-2.055-.025-1.171-2.954 1.54v-1.312l2.917-2.01-.063-3.113-3.258 1.69v-3.435l-2.798 1.54-.282 3.533-1.137.657-.141-3.332-1.028.566-.288 3.606-1.136.655-.146-3.399-3.065 1.688-.663-1.026 3.183-1.863-2.861-1.818 1.136-.657 3.283 1.562 1.017-.594-2.842-1.809 1.136-.656 3.262 1.553 3.072-1.8-3.351-1.873 2.81-1.851-2.53-1.48-3.262 1.552-1.136-.656 2.842-1.809-1.017-.595-3.283 1.562-1.136-.655 2.861-1.82-3.183-1.862.663-1.026 3.065 1.688.146-3.399 1.136.655.288 3.607 1.028.564.141-3.33 1.137.655.282 3.533 2.812 1.547v-3.441l3.259 1.692.019-2.94-2.974-2.048v-1.312l2.985 1.558.008-1.178-2.993-2.063v-1.313l3.005 1.568.022-3.686zm.673 15.623a.85.85 0 10-.002 1.7.85.85 0 00.002-1.7zm2.667.111l-1.238.725 2.089 1.224 1.341-.882-2.192-1.067zm-4.076.724l-2.09-1.225-1.341.884 2.193 1.065 1.238-.724zm-1.195 2.521v1.756l1.807-1.073-.036-1.657-1.771.974zm3.392-1.009l-.01 1.677 1.833 1.088v-1.762l-1.823-1.003zm1.835-4.032v-1.756l-1.806 1.073.034 1.657 1.772-.974zm-3.391 1.008l.011-1.676-1.835-1.088v1.763l1.824 1.001z"/><linearGradient id="i" gradientUnits="userSpaceOnUse" x1="196.754" y1="-42.239" x2="183.688" y2="-65.81" gradientTransform="matrix(1 0 0 -1 -106 205)"><stop offset="0" stop-color="#5bbfd5"/><stop offset="1" stop-color="#fff"/></linearGradient><path fill="url(#i)" d="M86.142 237.872l1.218.061.071 3.5 3.017-1.574v1.312l-2.98 2.051.024 1.172 2.956-1.541v1.312l-2.917 2.01.063 3.113 3.257-1.691v3.435l2.799-1.54.282-3.532 1.137-.656.141 3.33 1.027-.564.289-3.607 1.137-.655.144 3.399 3.065-1.688.662 1.026-3.182 1.863 2.861 1.819-1.137.655-3.283-1.561-1.016.594 2.843 1.809-1.138.656-3.261-1.552-3.071 1.799 3.35 1.873-2.81 1.851 2.53 1.481 3.261-1.553 1.138.656-2.843 1.809 1.016.594 3.283-1.561 1.137.655-2.861 1.819 3.182 1.863-.662 1.026-3.065-1.688-.144 3.4-1.137-.655-.289-3.606-1.027-.565-.141 3.33-1.137-.656-.282-3.533-2.811-1.547v3.441l-3.26-1.691-.019 2.94 2.976 2.048v1.313l-2.987-1.559-.007 1.178 2.994 2.063v1.312L87.53 267.1l-.021 3.687-1.22-.061-.072-3.499-3.016 1.574v-1.311l2.979-2.055-.025-1.171-2.954 1.54v-1.312l2.917-2.01-.063-3.113-3.258 1.69v-3.435l-2.798 1.54-.282 3.533-1.137.657-.141-3.332-1.028.566-.288 3.606-1.136.655-.146-3.399-3.065 1.688-.663-1.026 3.183-1.863-2.861-1.818 1.136-.657 3.283 1.562 1.017-.594-2.842-1.809 1.136-.656 3.262 1.553 3.072-1.8-3.351-1.873 2.81-1.851-2.53-1.48-3.262 1.552-1.136-.656 2.842-1.809-1.017-.595-3.283 1.562-1.136-.655 2.861-1.82-3.183-1.862.663-1.026 3.065 1.688.146-3.399 1.136.655.288 3.607 1.028.564.141-3.33 1.137.655.282 3.533 2.812 1.547v-3.441l3.259 1.692.019-2.94-2.974-2.048v-1.312l2.985 1.558.008-1.178-2.993-2.063v-1.313l3.005 1.568.021-3.688zm.673 15.623a.85.85 0 10-.002 1.7.85.85 0 00.002-1.7zm2.666.11l-1.238.725 2.089 1.224 1.341-.882-2.192-1.067zm-4.075.725l-2.09-1.225-1.341.884 2.193 1.065 1.238-.724zm-1.196 2.521v1.756l1.807-1.073-.036-1.657-1.771.974zm3.393-1.009l-.01 1.677 1.833 1.088v-1.762l-1.823-1.003zm1.835-4.032v-1.756l-1.806 1.073.034 1.657 1.772-.974zm-3.391 1.007l.011-1.676-1.835-1.088v1.763l1.824 1.001z"/><linearGradient id="j" gradientUnits="userSpaceOnUse" x1="326.966" y1="-78.578" x2="320.118" y2="-90.932" gradientTransform="matrix(1 0 0 -1 -106 205)"><stop offset="0" stop-color="#5bbfd5"/><stop offset="1" stop-color="#fff"/></linearGradient><path fill="url(#j)" d="M218.55 278.667l.638.032.038 1.834 1.581-.825v.688l-1.562 1.074.012.614 1.55-.808v.688l-1.529 1.053.033 1.632 1.707-.887v1.801l1.468-.808.147-1.852.596-.344.074 1.745.538-.295.151-1.892.596-.343.075 1.781 1.607-.885.347.538-1.668.977 1.5.954-.597.344-1.721-.818-.532.312 1.489.947-.596.345-1.709-.813-1.61.942 1.757.982-1.473.97 1.326.776 1.709-.813.596.344-1.489.947.532.312 1.721-.817.597.343-1.5.954 1.668.977-.347.538-1.607-.886-.075 1.782-.596-.343-.151-1.891-.538-.296-.074 1.745-.596-.344-.147-1.853-1.474-.811v1.804l-1.708-.887-.011 1.542 1.561 1.073v.688l-1.566-.817-.003.617 1.569 1.082v.688l-1.577-.821-.011 1.933-.639-.032-.038-1.834-1.581.825v-.687l1.562-1.077-.013-.614-1.549.808v-.688l1.529-1.054-.033-1.632-1.708.887v-1.801l-1.467.808-.147 1.852-.596.345-.074-1.746-.539.297-.15 1.89-.596.344-.076-1.782-1.606.885-.348-.538 1.669-.977-1.5-.953.596-.344 1.721.818.533-.312-1.49-.948.596-.344 1.71.813 1.609-.943-1.756-.981 1.473-.97-1.326-.776-1.71.813-.596-.344 1.49-.948-.533-.312-1.721.818-.596-.344 1.5-.954-1.669-.976.348-.538 1.606.885.076-1.782.596.344.15 1.891.539.296.074-1.745.596.343.147 1.853 1.474.811v-1.804l1.708.887.011-1.541-1.56-1.073v-.688l1.564.816.005-.617-1.569-1.081v-.688l1.575.822.013-1.932zm.352 8.188a.445.445 0 100 .89.445.445 0 000-.89zm1.398.058l-.649.38 1.096.642.703-.462-1.15-.56zm-2.136.38l-1.096-.642-.703.463 1.149.559.65-.38zm-.627 1.321v.921l.947-.562-.02-.869-.927.51zm1.778-.528l-.006.879.961.57v-.924l-.955-.525zm.961-2.113v-.921l-.946.562.019.869.927-.51zm-1.776.527l.005-.878-.961-.57v.924l.956.524z"/></svg>