<?xml version="1.0" encoding="UTF-8" standalone="no"?>
<svg
   width="400"
   height="400"
   version="1.1"
   id="svg252"
   sodipodi:docname="13n.svg"
   inkscape:version="1.2.2 (b0a84865, 2022-12-01)"
   xmlns:inkscape="http://www.inkscape.org/namespaces/inkscape"
   xmlns:sodipodi="http://sodipodi.sourceforge.net/DTD/sodipodi-0.dtd"
   xmlns:xlink="http://www.w3.org/1999/xlink"
   xmlns="http://www.w3.org/2000/svg"
   xmlns:svg="http://www.w3.org/2000/svg">
  <defs
     id="defs256">
    <linearGradient
       inkscape:collect="always"
       xlink:href="#i"
       id="linearGradient2577"
       gradientUnits="userSpaceOnUse"
       gradientTransform="translate(-248.0449,-155.35355)"
       x1="448.753"
       y1="402.24"
       x2="435.687"
       y2="425.811" />
    <linearGradient
       inkscape:collect="always"
       xlink:href="#i"
       id="linearGradient2581"
       gradientUnits="userSpaceOnUse"
       gradientTransform="translate(-308.50252,-84.289319)"
       x1="448.753"
       y1="402.24"
       x2="435.687"
       y2="425.811" />
    <linearGradient
       inkscape:collect="always"
       xlink:href="#i"
       id="linearGradient2585"
       gradientUnits="userSpaceOnUse"
       gradientTransform="matrix(0.63518952,0,0,0.59445253,-66.340694,40.551062)"
       x1="448.753"
       y1="402.24"
       x2="435.687"
       y2="425.811" />
  </defs>
  <sodipodi:namedview
     id="namedview254"
     pagecolor="#ffffff"
     bordercolor="#000000"
     borderopacity="0.25"
     inkscape:showpageshadow="2"
     inkscape:pageopacity="0.0"
     inkscape:pagecheckerboard="0"
     inkscape:deskcolor="#d1d1d1"
     showgrid="false"
     inkscape:zoom="4"
     inkscape:cx="188.5"
     inkscape:cy="258.125"
     inkscape:window-width="1774"
     inkscape:window-height="1257"
     inkscape:window-x="0"
     inkscape:window-y="25"
     inkscape:window-maximized="0"
     inkscape:current-layer="svg252" />
  <linearGradient
     id="a"
     gradientUnits="userSpaceOnUse"
     x1="455.582"
     y1="321.419"
     x2="613.612"
     y2="282.018"
     gradientTransform="translate(-358 -155)">
    <stop
       offset="0"
       stop-color="#a1a1a0"
       id="stop182" />
    <stop
       offset="1"
       stop-color="#fff"
       id="stop184" />
  </linearGradient>
  <path
     fill="url(#a)"
     d="M74.375 220.98c-16.665 0-30.182-13.518-30.182-30.184 0-14.052 9.611-25.862 22.615-29.223a53.127 53.127 0 01-1.151-11.02c0-29.03 23.364-52.612 52.308-52.976 6.583-34.38 36.813-60.372 73.111-60.372 29.334 0 54.706 16.979 66.834 41.643a42.157 42.157 0 0114.992-2.743c23.328 0 42.25 18.921 42.25 42.255 0 3.475-.424 6.854-1.219 10.086 24.51.775 44.144 20.887 44.144 45.58 0 25.184-20.421 45.606-45.606 45.606-44.884.005-154.116 1.348-238.096 1.348z"
     id="path187" />
  <linearGradient
     id="b"
     gradientUnits="userSpaceOnUse"
     x1="630.957"
     y1="279.822"
     x2="514.262"
     y2="367.758"
     gradientTransform="translate(-358 -155)">
    <stop
       offset="0"
       stop-color="#a1a1a0"
       id="stop189" />
    <stop
       offset="1"
       stop-color="#fff"
       id="stop191" />
  </linearGradient>
  <path
     fill="url(#b)"
     d="M285.484 219.736c-50.096.291-130.939 1.139-198.812 1.236a41.29 41.29 0 01-8.527-27.421c1.142-21.85 19.015-38.874 40.549-39.3a32.545 32.545 0 01.009-3.2c.924-17.684 16.021-31.282 33.705-30.358a31.933 31.933 0 0112.711 3.361c9.943-16.047 28.099-26.33 48.273-25.278 28.017 1.464 49.865 24.25 50.656 51.807 18.289 6.654 30.912 24.654 29.844 45.097a45.183 45.183 0 01-8.408 24.056z"
     id="path194" />
  <linearGradient
     id="c"
     gradientUnits="userSpaceOnUse"
     x1="581.059"
     y1="310.94"
     x2="617.007"
     y2="391.68"
     gradientTransform="translate(-358 -155)">
    <stop
       offset="0"
       stop-color="#a1a1a0"
       id="stop196" />
    <stop
       offset="1"
       stop-color="#fff"
       id="stop198" />
  </linearGradient>
  <path
     fill="url(#c)"
     d="M343.861 207.113c-8.178 7.763-19.229 12.521-31.393 12.521-31.496 0-94.688.666-158.598 1.061 5.139-10.356 14.128-18.533 25.188-22.557.793-27.557 22.645-50.341 50.656-51.805 20.18-1.054 38.332 9.229 48.275 25.276a31.964 31.964 0 0112.714-3.361c17.685-.924 32.778 12.676 33.705 30.36.055 1.077.058 2.144.006 3.199a41.193 41.193 0 0119.447 5.306z"
     id="path201" />
  <linearGradient
     id="d"
     gradientUnits="userSpaceOnUse"
     x1="506.745"
     y1="409.709"
     x2="481.252"
     y2="455.699"
     gradientTransform="translate(-358 -155)">
    <stop
       offset="0"
       stop-color="#5bbfd5"
       id="stop203"
       style="stop-color:#5bbfd5;stop-opacity:1;" />
    <stop
       offset="1"
       stop-color="#fff"
       id="stop205"
       style="stop-color:#5bbfd5;stop-opacity:1;" />
  </linearGradient>
  <path
     fill="url(#d)"
     d="m 138.1825,236.4925 4.627,-0.0695 0.139,6.827 5.2005,-2.945 c -0.20292,5.99581 0,5.93866 0,8.404 l -4.694,3.3595 0.124,6.075 5.357,-2.7395 0.375,5.2635 5.46,-3.004 0.176,-5.4565 c 4.94911,-2.65023 -1.19319,0.68168 7.277,-4.201 l -0.4055,5.6965 5.981,-3.293 2.8555,4.1895 -6.209,3.635 4.707,2.301 c -5.76129,3.21297 -5.16013,2.97716 -7.281,4.2 l -4.6755,-1.777 -5.994,3.51 4.8515,2.405 -4.5445,3.1725 4.937,2.89 5.4255,-2.5905 c 4.59551,2.89959 -1.26626,-0.7243 7.281,4.2 l -5.0195,2.926 6.209,3.635 -2.2305,3.502 -5.981,-3.293 0.093,5.759 c -4.76376,-2.92324 -5.1617,-2.97876 -7.277,-4.201 l -0.6135,-5.4565 -5.485,-3.021 0.0625,5.2805 -5.11,-2.1145 -0.037,5.735 4.556,2.8085 c -0.1361,7.60506 0,-1.44511 0,8.407 l -4.366,-3.1235 -0.042,7.193 -4.88,0.0695 -0.139,-6.827 -4.885,2.945 c 0.005,-6.48041 0,-5.94593 0,-8.406 l 4.3785,-2.797 -0.124,-6.075 -5.0445,2.176 0.0441,-5.33496 -5.46,3.004 -0.59507,5.52896 c -5.04651,2.94325 1.19329,-0.68116 -7.276,4.201 l 0.28985,-5.66355 -5.981,3.291 -2.48277,-4.11716 6.21,-3.635 -4.96508,-2.40429 c 5.65064,-3.30277 5.16892,-2.98284 7.277,-4.199 l 4.99896,1.96942 5.994,-3.512 -5.17296,-2.59642 4.51255,-2.99208 -4.937,-2.89 -5.39555,2.41108 c -4.82145,-2.73824 0.0126,0.008 -7.277,-4.201 l 4.87695,-2.71275 -6.21,-3.635 2.43871,-3.72056 5.981,3.293 -0.15766,-5.75369 c 5.59846,3.20772 3.33536,1.92762 7.276,4.201 l 0.50693,4.82391 5.485,3.017 0.0441,-4.63991 4.7975,2.676 0.037,-5.736 -4.2405,-3.371 c -0.0648,-5.65691 0,1.44309 0,-8.407 l 4.3005,3.1225 z"
     id="path208"
     sodipodi:nodetypes="ccccccccccccccccccccccccccccccccccccccccccccccccccccccccccccccccccccccccccccccc"
     style="stroke:#5bbfd5;stroke-opacity:1;fill:#ffffff;fill-opacity:1;stroke-width:2;stroke-dasharray:none;stroke-linejoin:miter;stroke-miterlimit:4;stroke-linecap:square" />
  <linearGradient
     id="e"
     gradientUnits="userSpaceOnUse"
     x1="626.864"
     y1="409.71"
     x2="601.372"
     y2="455.699"
     gradientTransform="translate(-358 -155)">
    <stop
       offset="0"
       stop-color="#5bbfd5"
       id="stop210" />
    <stop
       offset="1"
       stop-color="#fff"
       id="stop212"
       style="stop-color:#5bbfd5;stop-opacity:1;" />
  </linearGradient>
  <linearGradient
     id="f"
     gradientUnits="userSpaceOnUse"
     x1="566.806"
     y1="472.934"
     x2="541.313"
     y2="518.923"
     gradientTransform="translate(-358 -155)">
    <stop
       offset="0"
       stop-color="#5bbfd5"
       id="stop217" />
    <stop
       offset="1"
       stop-color="#fff"
       id="stop219"
       style="stop-color:#5bbfd5;stop-opacity:1;" />
  </linearGradient>
  <linearGradient
     id="g"
     gradientUnits="userSpaceOnUse"
     x1="559.32"
     y1="400.639"
     x2="543.153"
     y2="429.806"
     gradientTransform="translate(-358 -155)">
    <stop
       offset="0"
       stop-color="#5bbfd5"
       id="stop224" />
    <stop
       offset="1"
       stop-color="#fff"
       id="stop226"
       style="stop-color:#5bbfd5;stop-opacity:1;" />
  </linearGradient>
  <linearGradient
     id="h"
     gradientUnits="userSpaceOnUse"
     x1="501.701"
     y1="470.391"
     x2="488.636"
     y2="493.961"
     gradientTransform="translate(-358 -155)">
    <stop
       offset="0"
       stop-color="#5bbfd5"
       id="stop231" />
    <stop
       offset="1"
       stop-color="#fff"
       id="stop233"
       style="stop-color:#5bbfd5;stop-opacity:1;" />
  </linearGradient>
  <linearGradient
     id="i"
     gradientUnits="userSpaceOnUse"
     x1="448.753"
     y1="402.24"
     x2="435.687"
     y2="425.811"
     gradientTransform="translate(-358 -155)">
    <stop
       offset="0"
       stop-color="#5bbfd5"
       id="stop238"
       style="stop-color:#ffffff;stop-opacity:1;" />
    <stop
       offset="1"
       stop-color="#fff"
       id="stop240"
       style="stop-color:#ffffff;stop-opacity:1;" />
  </linearGradient>
  <path
     fill="url(#i)"
     d="m 85.346505,237.78361 2.720602,0.0178 0.071,3.5 L 90.448,239.86 c 0.06361,2.31729 0,0.86148 0,4.307 l -2.430864,1.78903 0.062,3.113 L 90.85,247.6 l 0.04419,2.81628 2.799,-1.54 L 93.931,245.963 c 2.409263,-1.30957 0.830289,-0.48152 3.731,-2.15 l 0.05561,3.00025 3.064998,-1.688 1.32491,2.17405 -3.181996,1.863 2.286476,1.0667 c -1.941658,1.25193 -0.76048,0.44325 -3.731,2.153 l -2.332922,-0.8007 -3.071,1.799 2.421922,1.1217 -2.058699,1.41006 2.53,1.48 L 97.48,256.281 c 2.032112,1.31097 0.799425,0.46576 3.731,2.152 l -2.419058,1.37706 3.181998,1.862 -1.19233,1.95508 -3.064998,-1.688 -0.05561,2.91286 c -2.348685,-1.5258 -0.749212,-0.43226 -3.731,-2.15 l -0.193612,-2.64912 -2.811,-1.547 -0.08839,2.55612 -2.862252,-1.38064 -0.019,2.94 2.578252,1.73764 c -0.08386,2.30534 0,0.94784 0,4.307 l -2.341087,-1.52181 -0.021,3.688 -2.501631,-0.0168 -0.072,-3.5 L 83.201,268.801 c -0.0043,-3.06749 0,-0.86571 0,-4.309 l 2.254087,-1.65645 -0.063,-3.113 -2.595087,1.33545 0.132583,-2.81628 -2.798,1.54 L 79.717,262.696 c -1.67132,1.06695 -0.815875,0.4682 -3.73,2.151 l -0.146,-2.86867 -3.065,1.688 -1.104942,-2.04347 3.183,-1.862 L 72.435,258.43 c 2.4341,-1.4408 0.769303,-0.4453 3.73,-2.155 l 2.687476,1.42042 3.072,-1.8 -2.776476,-1.74042 2.014505,-1.36486 -2.53,-1.48 L 76.166,252.376 c -2.450858,-1.55415 -0.821483,-0.47599 -3.73,-2.153 l 2.33067,-1.50964 -3.183,-1.862 1.281718,-2.12986 3.065,1.688 0.05761,-2.6025 c 2.722059,1.58092 0.756346,0.43856 3.73,2.149 l 0.326194,2.56173 2.812,1.547 -0.04419,-2.46873 2.507699,1.29425 0.019,-2.94 L 83.116004,244.3 c -0.04419,-2.24409 0,-0.94797 0,-4.307 l 2.209505,1.47961 z"
     id="path243"
     sodipodi:nodetypes="ccccccccccccccccccccccccccccccccccccccccccccccccccccccccccccccccccccccccccccccc"
     style="stroke-width:1;stroke-dasharray:none;stroke:#5bbfd5;stroke-opacity:1" />
  <linearGradient
     id="j"
     gradientUnits="userSpaceOnUse"
     x1="578.966"
     y1="438.578"
     x2="572.118"
     y2="450.931"
     gradientTransform="translate(-358 -155)">
    <stop
       offset="0"
       stop-color="#5bbfd5"
       id="stop245" />
    <stop
       offset="1"
       stop-color="#fff"
       id="stop247"
       style="stop-color:#5bbfd5;stop-opacity:1;" />
  </linearGradient>
  <path
     fill="url(#d)"
     d="m 259.6825,233.9925 4.627,-0.0695 0.139,6.827 5.2005,-2.945 c -0.20292,5.99581 0,5.93866 0,8.404 l -4.694,3.3595 0.124,6.075 5.357,-2.7395 0.375,5.2635 5.46,-3.004 0.176,-5.4565 c 4.94911,-2.65023 -1.19319,0.68168 7.277,-4.201 l -0.4055,5.6965 5.981,-3.293 2.8555,4.1895 -6.209,3.635 4.707,2.301 c -5.76129,3.21297 -5.16013,2.97716 -7.281,4.2 l -4.6755,-1.777 -5.994,3.51 4.8515,2.405 -4.5445,3.1725 4.937,2.89 5.4255,-2.5905 c 4.59551,2.89959 -1.26626,-0.7243 7.281,4.2 l -5.0195,2.926 6.209,3.635 -2.2305,3.502 -5.981,-3.293 0.093,5.759 c -4.76376,-2.92324 -5.1617,-2.97876 -7.277,-4.201 l -0.6135,-5.4565 -5.485,-3.021 0.0625,5.2805 -5.11,-2.1145 -0.037,5.735 4.556,2.8085 c -0.1361,7.60506 0,-1.44511 0,8.407 l -4.366,-3.1235 -0.042,7.193 -4.88,0.0695 -0.139,-6.827 -4.885,2.945 c 0.005,-6.48041 0,-5.94593 0,-8.406 l 4.3785,-2.797 -0.124,-6.075 -5.0445,2.176 0.0441,-5.33496 -5.46,3.004 -0.59507,5.52896 c -5.04651,2.94325 1.19329,-0.68116 -7.276,4.201 l 0.28985,-5.66355 -5.981,3.291 -2.48277,-4.11716 6.21,-3.635 -4.96508,-2.40429 c 5.65064,-3.30277 5.16892,-2.98284 7.277,-4.199 l 4.99896,1.96942 5.994,-3.512 -5.17296,-2.59642 4.51255,-2.99208 -4.937,-2.89 -5.39555,2.41108 c -4.82145,-2.73824 0.0126,0.008 -7.277,-4.201 l 4.87695,-2.71275 -6.21,-3.635 2.43871,-3.72056 5.981,3.293 -0.15766,-5.75369 c 5.59846,3.20772 3.33536,1.92762 7.276,4.201 l 0.50693,4.82391 5.485,3.017 0.0441,-4.63991 4.7975,2.676 0.037,-5.736 -4.2405,-3.371 c -0.0648,-5.65691 0,1.44309 0,-8.407 l 4.3005,3.1225 z"
     id="path1379"
     sodipodi:nodetypes="ccccccccccccccccccccccccccccccccccccccccccccccccccccccccccccccccccccccccccccccc"
     style="fill:#ffffff;fill-opacity:1;stroke:#5bbfd5;stroke-width:2;stroke-linecap:square;stroke-linejoin:miter;stroke-miterlimit:4;stroke-dasharray:none;stroke-opacity:1" />
  <path
     fill="url(#d)"
     d="m 197.6825,293.4925 4.627,-0.0695 0.139,6.827 5.2005,-2.945 c -0.20292,5.99581 0,5.93866 0,8.404 l -4.694,3.3595 0.124,6.075 5.357,-2.7395 0.375,5.2635 5.46,-3.004 0.176,-5.4565 c 4.94911,-2.65023 -1.19319,0.68168 7.277,-4.201 l -0.4055,5.6965 5.981,-3.293 2.8555,4.1895 -6.209,3.635 4.707,2.301 c -5.76129,3.21297 -5.16013,2.97716 -7.281,4.2 l -4.6755,-1.777 -5.994,3.51 4.8515,2.405 -4.5445,3.1725 4.937,2.89 5.4255,-2.5905 c 4.59551,2.89959 -1.26626,-0.7243 7.281,4.2 l -5.0195,2.926 6.209,3.635 -2.2305,3.502 -5.981,-3.293 0.093,5.759 c -4.76376,-2.92324 -5.1617,-2.97876 -7.277,-4.201 l -0.6135,-5.4565 -5.485,-3.021 0.0625,5.2805 -5.11,-2.1145 -0.037,5.735 4.556,2.8085 c -0.1361,7.60506 0,-1.44511 0,8.407 l -4.366,-3.1235 -0.042,7.193 -4.88,0.0695 -0.139,-6.827 -4.885,2.945 c 0.005,-6.48041 0,-5.94593 0,-8.406 l 4.3785,-2.797 -0.124,-6.075 -5.0445,2.176 0.0441,-5.33496 -5.46,3.004 -0.59507,5.52896 c -5.04651,2.94325 1.19329,-0.68116 -7.276,4.201 l 0.28985,-5.66355 -5.981,3.291 -2.48277,-4.11716 6.21,-3.635 -4.96508,-2.40429 c 5.65064,-3.30277 5.16892,-2.98284 7.277,-4.199 l 4.99896,1.96942 5.994,-3.512 -5.17296,-2.59642 4.51255,-2.99208 -4.937,-2.89 -5.39555,2.41108 c -4.82145,-2.73824 0.0126,0.008 -7.277,-4.201 l 4.87695,-2.71275 -6.21,-3.635 2.43871,-3.72056 5.981,3.293 -0.15766,-5.75369 c 5.59846,3.20772 3.33536,1.92762 7.276,4.201 l 0.50693,4.82391 5.485,3.017 0.0441,-4.63991 4.7975,2.676 0.037,-5.736 -4.2405,-3.371 c -0.0648,-5.65691 0,1.44309 0,-8.407 l 4.3005,3.1225 z"
     id="path1381"
     sodipodi:nodetypes="ccccccccccccccccccccccccccccccccccccccccccccccccccccccccccccccccccccccccccccccc"
     style="fill:#ffffff;fill-opacity:1;stroke:#5bbfd5;stroke-width:2;stroke-linecap:square;stroke-linejoin:miter;stroke-miterlimit:4;stroke-dasharray:none;stroke-opacity:1" />
  <path
     fill="url(#i)"
     d="m 195.30161,237.43006 2.7206,0.0178 0.071,3.5 2.30989,-1.44141 c 0.0636,2.31729 0,0.86148 0,4.307 l -2.43086,1.78903 0.062,3.113 2.77086,-1.46903 0.0442,2.81628 2.799,-1.54 0.23781,-2.91328 c 2.40927,-1.30957 0.83029,-0.48152 3.731,-2.15 l 0.0556,3.00025 3.065,-1.688 1.32491,2.17405 -3.18199,1.863 2.28647,1.0667 c -1.94166,1.25193 -0.76048,0.44325 -3.731,2.153 l -2.33292,-0.8007 -3.071,1.799 2.42192,1.1217 -2.0587,1.41006 2.53,1.48 2.5097,-1.11106 c 2.03212,1.31097 0.79943,0.46576 3.731,2.152 l -2.41905,1.37706 3.18199,1.862 -1.19233,1.95508 -3.06499,-1.688 -0.0556,2.91286 c -2.34869,-1.5258 -0.74922,-0.43226 -3.731,-2.15 l -0.19362,-2.64912 -2.811,-1.547 -0.0884,2.55612 -2.86225,-1.38064 -0.019,2.94 2.57825,1.73764 c -0.0839,2.30534 0,0.94784 0,4.307 l -2.34108,-1.52181 -0.021,3.688 -2.50163,-0.0168 -0.072,-3.5 -2.39729,1.48561 c -0.004,-3.06749 0,-0.86571 0,-4.309 l 2.25409,-1.65645 -0.063,-3.113 -2.59509,1.33545 0.13259,-2.81628 -2.798,1.54 -0.41459,2.91428 c -1.67132,1.06695 -0.81587,0.4682 -3.73,2.151 l -0.146,-2.86867 -3.065,1.688 -1.10494,-2.04347 3.183,-1.862 -2.41906,-1.33086 c 2.4341,-1.4408 0.76931,-0.4453 3.73,-2.155 l 2.68748,1.42042 3.072,-1.8 -2.77648,-1.74042 2.01451,-1.36486 -2.53,-1.48 -2.46651,1.06586 c -2.45085,-1.55415 -0.82148,-0.47599 -3.73,-2.153 l 2.33067,-1.50964 -3.183,-1.862 1.28172,-2.12986 3.065,1.688 0.0576,-2.6025 c 2.72206,1.58092 0.75635,0.43856 3.73,2.149 l 0.3262,2.56173 2.812,1.547 -0.0442,-2.46873 2.5077,1.29425 0.019,-2.94 -2.2227,-1.65025 c -0.0442,-2.24409 0,-0.94797 0,-4.307 l 2.2095,1.47961 z"
     id="path2575"
     sodipodi:nodetypes="ccccccccccccccccccccccccccccccccccccccccccccccccccccccccccccccccccccccccccccccc"
     style="fill:url(#linearGradient2577);stroke:#5bbfd5;stroke-width:1;stroke-dasharray:none;stroke-opacity:1" />
  <path
     fill="url(#i)"
     d="m 134.84398,308.49429 2.72061,0.0178 0.071,3.5 2.30989,-1.44141 c 0.0636,2.31729 0,0.86148 0,4.307 l -2.43086,1.78903 0.062,3.113 2.77086,-1.46903 0.0442,2.81628 2.799,-1.54 0.23781,-2.91328 c 2.40927,-1.30957 0.83029,-0.48152 3.731,-2.15 l 0.0556,3.00025 3.065,-1.688 1.32491,2.17405 -3.18199,1.863 2.28647,1.0667 c -1.94166,1.25193 -0.76048,0.44325 -3.731,2.153 l -2.33292,-0.8007 -3.071,1.799 2.42192,1.1217 -2.0587,1.41006 2.53,1.48 2.5097,-1.11106 c 2.03212,1.31097 0.79943,0.46576 3.731,2.152 l -2.41905,1.37706 3.18199,1.862 -1.19233,1.95508 -3.06499,-1.688 -0.0556,2.91286 c -2.34869,-1.5258 -0.74922,-0.43226 -3.731,-2.15 l -0.19362,-2.64912 -2.811,-1.547 -0.0884,2.55612 -2.86225,-1.38064 -0.019,2.94 2.57825,1.73764 c -0.0839,2.30534 0,0.94784 0,4.307 l -2.34108,-1.52181 -0.021,3.688 -2.50164,-0.0168 -0.072,-3.5 -2.39729,1.48561 c -0.004,-3.06749 0,-0.86571 0,-4.309 l 2.25409,-1.65645 -0.063,-3.113 -2.59509,1.33545 0.13259,-2.81628 -2.798,1.54 -0.41459,2.91428 c -1.67132,1.06695 -0.81587,0.4682 -3.73,2.151 l -0.146,-2.86867 -3.065,1.688 -1.10494,-2.04347 3.183,-1.862 -2.41906,-1.33086 c 2.4341,-1.4408 0.76931,-0.4453 3.73,-2.155 l 2.68748,1.42042 3.072,-1.8 -2.77648,-1.74042 2.01451,-1.36486 -2.53,-1.48 -2.46651,1.06586 c -2.45085,-1.55415 -0.82148,-0.47599 -3.73,-2.153 l 2.33067,-1.50964 -3.183,-1.862 1.28172,-2.12986 3.065,1.688 0.0576,-2.6025 c 2.72206,1.58092 0.75635,0.43856 3.73,2.149 l 0.3262,2.56173 2.812,1.547 -0.0442,-2.46873 2.5077,1.29425 0.019,-2.94 -2.2227,-1.65025 c -0.0442,-2.24409 0,-0.94797 0,-4.307 l 2.2095,1.47961 z"
     id="path2579"
     sodipodi:nodetypes="ccccccccccccccccccccccccccccccccccccccccccccccccccccccccccccccccccccccccccccccc"
     style="fill:url(#linearGradient2581);stroke:#5bbfd5;stroke-width:1;stroke-dasharray:none;stroke-opacity:1" />
  <path
     fill="url(#i)"
     d="m 215.26835,274.04225 1.72811,0.0106 0.0451,2.08058 1.46722,-0.85686 c 0.0404,1.37753 0,0.51212 0,2.56032 l -1.54406,1.06349 0.0394,1.85053 1.76002,-0.87327 0.0281,1.67414 1.7779,-0.91545 0.15105,-1.73181 c 1.53035,-0.77848 0.5274,-0.28624 2.3699,-1.27807 l 0.0353,1.78351 1.94687,-1.00344 0.84156,1.29237 -2.02117,1.10746 1.45234,0.63411 c -1.23331,0.74421 -0.48305,0.26348 -2.36989,1.27985 l -1.48184,-0.47598 -1.95067,1.06943 1.53838,0.66679 -1.30766,0.83821 1.60702,0.8798 1.59414,-0.66048 c 1.29078,0.77931 0.50779,0.27688 2.36989,1.27926 l -1.53655,0.8186 2.02116,1.10687 -0.75735,1.1622 -1.94685,-1.00344 -0.0354,1.73157 c -1.49187,-0.90702 -0.4759,-0.25697 -2.3699,-1.27808 l -0.12298,-1.57478 -1.78552,-0.91961 -0.0561,1.51949 -1.81807,-0.82073 -0.012,1.7477 1.63768,1.03294 c -0.0533,1.37041 0,0.56345 0,2.56031 l -1.48703,-0.90465 -0.0133,2.19234 -1.58902,-0.01 -0.0457,-2.08058 -1.52274,0.88313 c -0.003,-1.82348 0,-0.51463 0,-2.56149 l 1.43178,-0.98469 -0.04,-1.85053 -1.64837,0.79387 0.0842,-1.67415 -1.77726,0.91545 -0.26334,1.7324 c -1.0616,0.63425 -0.51823,0.27833 -2.36926,1.27867 l -0.0927,-1.70529 -1.94685,1.00344 -0.70185,-1.21474 2.02181,-1.10688 -1.53656,-0.79113 c 1.54611,-0.85648 0.48866,-0.26471 2.36925,-1.28104 l 1.70706,0.84436 1.95131,-1.07 -1.76359,-1.0346 1.27959,-0.81135 -1.60703,-0.87978 -1.5667,0.6336 c -1.55675,-0.92387 -0.52179,-0.28296 -2.36926,-1.27987 l 1.48042,-0.8974 -2.02181,-1.10687 0.81414,-1.2661 1.94686,1.00343 0.0365,-1.54705 c 1.72903,0.93978 0.48043,0.26069 2.36926,1.27747 l 0.2072,1.52283 1.78615,0.91962 -0.0281,-1.46755 1.59287,0.76937 0.012,-1.74768 -1.41184,-0.981 c -0.0281,-1.334 0,-0.56353 0,-2.56031 l 1.40345,0.87956 z"
     id="path2583"
     sodipodi:nodetypes="ccccccccccccccccccccccccccccccccccccccccccccccccccccccccccccccccccccccccccccccc"
     style="fill:url(#linearGradient2585);stroke:#5bbfd5;stroke-width:0.614483;stroke-dasharray:none;stroke-opacity:1" />
</svg>
