<svg xmlns="http://www.w3.org/2000/svg" viewBox="0 0 200 200"><path fill="none" d="M19.5 127.2c-.1-.1-.3-.2-.4-.3.1.1.2.2.4.3zm-.8-.5c-.1-.1-.3-.2-.4-.3.1 0 .2.2.4.3zm-.8-.6c-.1-.1-.3-.2-.4-.3.2 0 .3.2.4.3zm-1.3-1.4c-.1-.1-.2-.3-.3-.4.1.1.2.3.3.4zm-.6-.8c-.1-.1-.2-.3-.3-.5.1.2.2.4.3.5zm1.2 1.5c-.1-.1-.2-.3-.4-.4l.4.4zm4.8 2.9c-.2-.1-.3-.1-.5-.2.2.1.4.2.5.2zm-1.7-.7c-.2-.1-.3-.2-.4-.2.1.1.2.2.4.2zm22.1-46.3c.1-.1.2-.1.3-.2-.1 0-.2.1-.3.2zM21.1 128c-.2-.1-.3-.1-.5-.2.2.1.4.2.5.2zm17.1-42.6c.1-.1.2-.2.2-.3-.1.1-.1.2-.2.3zm-22.7 37.7c-.1-.2-.2-.3-.3-.5.1.2.2.4.3.5zm21.5-36c.1-.1.1-.2.2-.3-.1.1-.2.2-.2.3zm3.9-4.6l.2-.2c-.1.1-.1.2-.2.2zm-1.3 1.3l.1-.1c-.1 0-.1.1-.1.1zM36 88.6zm-12.1 40.2c-.2 0-.3 0-.5-.1.2 0 .3 0 .5.1zm-9.2-7.5zm.3 1l-.3-.6c.2.2.3.4.3.6zm19.2-29.8c0-.1.1-.2.1-.3 0 .1 0 .2-.1.3zm.8-1.9c0-.1.1-.2.1-.3 0 .1 0 .2-.1.3zm-12 38c-.2 0-.3-.1-.5-.1.1 0 .3.1.5.1zm143-57c.1 0 .1 0 .2.1-.1-.1-.1-.1-.2-.1zm2.1.6c.1 0 .2.1.3.1-.1 0-.2 0-.3-.1zm2.2.8c.1.1.3.1.4.2-.2 0-.3-.1-.4-.2zm-6.7-1.9c.1 0 .3 0 .4.1-.2 0-.3-.1-.4-.1zm8.9 3c.1 0 .2.1.2.1s-.1-.1-.2-.1zM155.1 71c.2 0 .4-.1.6-.1-.3.1-.4.1-.6.1zm-1.7.3c.2 0 .3-.1.5-.1-.2 0-.4.1-.5.1zm21 3.9c.1 0 .1.1.2.1 0 0-.1 0-.2-.1zm-17.6-4.4h.5-.5zm2.2-.1zm17.3 5.8c.1.1.2.2.3.2 0 0-.1-.1-.3-.2zm9.9 13.3c0 .1.1.2.1.4 0-.2 0-.3-.1-.4zm-1-2.4c.1.1.1.2.2.4 0-.1-.1-.3-.2-.4zm-1-2s0 .1 0 0c0 .1 0 0 0 0zM25.5 128.9h.7-.9.2zm152.7-50.8c.1.1.2.1.2.2 0-.1-.1-.2-.2-.2zm4.7 5.2c.1.1.1.2.2.3-.1-.1-.1-.2-.2-.3zm-158 45.6h-.5c.1-.1.3-.1.5 0zm155-49.2l.1.1c0-.1 0-.1-.1-.1zm1.5 1.7l.3.3-.3-.3zm-20.2-10.6h.3-.3zM47.5 78.3c.1 0 .2-.1.3-.1-.1 0-.2 0-.3.1zm-1.8.8c.1 0 .1-.1.2-.1 0 .1-.1.1-.2.1zm5.6-2.1h.2c-.1-.1-.2-.1-.2 0zm1.9-.4zm-3.8.9c.1 0 .2-.1.3-.1-.1.1-.2.1-.3.1zm-5.3 2.6c.1 0 .1-.1.2-.1-.1 0-.1 0-.2.1z"/><path fill="#DDC72D" d="M61.7 76.6c.1 0 .3 0 .4.1-.2-.1-.3-.1-.4-.1zm-4.3-.4c-.1 0-.1 0 0 0-.1 0-.1 0 0 0zm1.4 0h.4-.4z"/><linearGradient id="a" gradientUnits="userSpaceOnUse" x1="-20.229" y1="268.343" x2="-13.898" y2="268.343" gradientTransform="rotate(79.765 2854.096 2965.574) scale(18.803)"><stop offset="0" stop-color="#febf10"/><stop offset="1" stop-color="#f58020"/></linearGradient><path fill="url(#a)" d="M60 70.3c2.6-9.1 7.8-17.3 15-23.6 3.6-3.2 7.7-5.7 12-7.7-4.7-5.9-11.9-9.6-20-9.6-14.1 0-25.6 11.5-25.6 25.6 0 6.4 2.4 12.3 6.3 16.8 3.1-1 6.3-1.6 9.7-1.6.8 0 1.7 0 2.6.1z"/><path fill="#DDC72D" d="M60.2 76.4c.2 0 .3 0 .5.1-.2-.1-.4-.1-.5-.1zm-5-.1h.3-.3zm-1.7.2c-.1 0-.2 0-.3.1.1-.1.2-.1.3-.1z"/><path fill="#F9D915" d="M38.7 9.8l8.7 21.1c2.5-2.1 5.4-3.7 8.6-4.9L42.1 7.8c-.6-.8-1.9-1-2.7-.3-.7.5-.9 1.4-.7 2.2v.1zM72 24.4L69.1 1.7v-.1C68.9.6 68-.2 66.9-.1c-.8.1-1.5.7-1.7 1.5v.1l-3 22.6c1.6-.3 3.2-.4 4.9-.4 1.6.2 3.2.4 4.9.7zM13.5 56.8h.1l22.6 3c-.3-1.6-.4-3.2-.4-4.9 0-1.7.1-3.4.4-5l-22.6 2.9h-.1c-1 .2-1.8 1.1-1.6 2.2.2 1 .8 1.6 1.6 1.8zM95.4 9.9c.2-.5.2-1 0-1.5s-.6-.9-1.1-1.1c-.8-.3-1.7-.1-2.2.5l-.1.1L78.1 26c3.1 1.2 6 2.9 8.5 5l8.8-21.1zm-75.5 20l18.1 14c1.2-3.1 2.9-6 5-8.5l-21.1-8.8h-.1c-1-.4-2.1.1-2.5 1.1-.3.8-.1 1.7.5 2.2h.1z"/><linearGradient id="b" gradientUnits="userSpaceOnUse" x1="859.54" y1="-268.58" x2="874.714" y2="-302.662" gradientTransform="matrix(1 0 0 -1 -610 -6)"><stop offset="0" stop-color="#a1a1a0"/><stop offset="1" stop-color="#fff"/></linearGradient><path fill="url(#b)" d="M187 92.3c-.2-.7-.4-1.4-.7-2.2 0-.1-.1-.3-.1-.4-.2-.7-.5-1.3-.8-2-.1-.1-.1-.2-.2-.4-.3-.7-.6-1.3-1-1.9 0 0 0-.1-.1-.1-.3-.6-.7-1.2-1.1-1.8-.1-.1-.1-.2-.2-.3-.4-.6-.8-1.1-1.2-1.7l-.3-.3c-.4-.5-.9-1.1-1.4-1.6l-.1-.1-1.4-1.4c-.1-.1-.2-.1-.2-.2-.5-.5-1-.9-1.6-1.3-.1-.1-.2-.2-.3-.2-.5-.4-1.1-.8-1.7-1.2-.1 0-.1-.1-.2-.1-.6-.4-1.1-.7-1.7-1-.1 0-.2-.1-.2-.1l-1.8-.9c-.1-.1-.2-.1-.4-.2-.6-.3-1.3-.5-1.9-.7-.1 0-.2-.1-.3-.1-.6-.2-1.3-.4-1.9-.6-.1 0-.1 0-.2-.1-.7-.2-1.3-.3-2-.4-.1 0-.3 0-.4-.1-.7-.1-1.4-.2-2-.3h-.3c-.7-.1-1.4-.1-2.1-.1h-.1c-.5 0-1.1 0-1.6.1h-.5c-.4 0-.8.1-1.2.1-.2 0-.4 0-.6.1-.4.1-.8.1-1.2.2-.2 0-.3.1-.5.1-.6.1-1.1.2-1.7.4 0 0-1.1.3-3.1.8-4.9-18.3-21.6-31.8-41.5-31.8-2.6 0-5.2.2-7.6.7-1.4.3-2.8.6-4.2 1-1.8.5-3.5 1.1-5.1 1.8C76.9 49.8 67 62.2 64.8 77.1c-.4-.1-.6-.2-.8-.2-.4.1-.5.1-.5.1-.5-.1-.9-.2-1.4-.3-.1 0-.3-.1-.4-.1-.3-.1-.7-.1-1-.2-.2 0-.3 0-.5-.1-.3 0-.7-.1-1-.1h-1.9c-.6 0-1.2 0-1.8.1h-.3c-.6.1-1.2.1-1.7.2-.1 0-.2 0-.3.1-.6.1-1.1.2-1.7.4h-.2c-.5.1-1.1.3-1.6.5-.1 0-.2.1-.3.1-.5.2-1.1.4-1.6.6-.1 0-.2.1-.3.1-.5.2-1 .5-1.5.7-.1 0-.1.1-.2.1-.5.3-.9.5-1.4.8-.1 0-.1.1-.2.1-.5.3-.9.6-1.4 1-.1.1-.2.1-.3.2-.5.3-.9.7-1.3 1.1l-.2.2-1.2 1.2-.1.1c-.4.4-.8.9-1.2 1.3-.1.1-.2.2-.2.3-.4.4-.7.9-1 1.4-.2.1-.3.2-.3.3l-.9 1.5s0 .1-.1.1c-.3.5-.6 1.1-.8 1.6 0 .1-.1.2-.1.3-.2.5-.5 1.1-.7 1.7 0 .1-.1.2-.1.3l-.6 1.8c-.2.8-.4 1.5-.5 2.3s-.2 1.5-.3 2.3c-.1 1.5-.1 3 .1 4.5-6.5 1.8-10.5 2.8-10.5 2.8-6.1 1.6-9.8 7.9-8.1 14 .1.3.2.6.3 1 0 .1.1.2.1.3l.3.6c.1.1.1.2.2.4s.2.3.3.5c.1.1.1.2.2.4s.2.3.3.5l.3.3c.1.1.2.3.3.4l.3.3c.1.1.2.3.4.4l.3.3c.1.1.2.2.4.3l.3.3c.1.1.3.2.4.3.1.1.2.2.4.3.1.1.3.2.4.3.1.1.3.1.4.2.1.1.3.2.4.2.1.1.3.1.4.2.2.1.3.1.5.2.1.1.3.1.4.2.2.1.3.1.5.2.1 0 .3.1.4.1.2 0 .3.1.5.1.1 0 .3.1.4.1.2 0 .3.1.5.1.1 0 .3 0 .4.1h133.9s5.5-.3 8.2-1c15.5-4.2 24.7-20.1 20.5-35.6z"/><path fill="#F9D915" d="M42.5 74.1C40.6 71.7 39 69 37.9 66L19.8 79.8h-.1c-.4.3-.6.8-.7 1.3-.1.5.1 1 .4 1.5.5.7 1.4.9 2.2.7h.1l18-7.4 3.2-1.3c-.2-.2-.3-.4-.4-.5z"/><path fill="#FFF" d="M181.7 81.7c.4.5.8 1.1 1.2 1.7-.4-.6-.8-1.2-1.2-1.7zm1.4 1.9c.4.6.8 1.2 1.1 1.8-.3-.6-.7-1.2-1.1-1.8zm-4.6-5.3zm1.5 1.5c.5.5.9 1 1.4 1.6-.4-.6-.9-1.1-1.4-1.6zm-16-8.6c.7.1 1.4.3 2 .4-.7-.2-1.4-.3-2-.4zm-8.4-.3c.4 0 .8-.1 1.2-.1-.4.1-.8.1-1.2.1zm1.7-.1c.6 0 1.1-.1 1.6-.1-.5 0-1 .1-1.6.1zM41.1 82.4c.4-.4.9-.7 1.3-1.1-.4.3-.9.7-1.3 1.1zm110.6-10.7c.6-.1 1.1-.3 1.7-.4-.6.1-1.1.2-1.7.4zm9.8-.8c.7.1 1.4.1 2 .3-.6-.2-1.3-.3-2-.3zm-7.6.3c.4-.1.8-.1 1.2-.2-.4.1-.8.1-1.2.2zm16.8 2l1.8.9-1.8-.9zm2 1c.6.3 1.1.6 1.7 1-.5-.3-1.1-.7-1.7-1zm2 1.1c.6.4 1.1.8 1.7 1.2-.6-.4-1.2-.8-1.7-1.2zm9.6 10.2c.4.6.7 1.3 1 1.9-.4-.6-.7-1.3-1-1.9zm-7.6-8.7c.5.4 1.1.8 1.6 1.3-.6-.5-1.1-.9-1.6-1.3zm-8.3-4.5c.6.2 1.3.5 1.9.7-.6-.2-1.3-.5-1.9-.7zm-2.2-.6c.6.2 1.3.4 1.9.6-.6-.3-1.3-.5-1.9-.6zm-7.1-1c.7 0 1.4 0 2.1.1-.7 0-1.4-.1-2.1-.1zm-125.9 26c.1-.8.3-1.5.5-2.3-.2.7-.4 1.5-.5 2.3zm14.6-18.6c.5-.2 1.1-.4 1.6-.6-.5.2-1.1.4-1.6.6zM33.7 94.4l.6-1.8c-.3.5-.5 1.1-.6 1.8zm-18.9 27.2c0-.1-.1-.2-.1-.3 0 .1.1.2.1.3zM32.9 99c.1-.8.1-1.5.3-2.3-.2.7-.2 1.5-.3 2.3zm18.5-22.1c.6-.1 1.1-.3 1.7-.4-.5.2-1.1.3-1.7.4zm-35.7 46.6c-.1-.1-.2-.2-.2-.4.1.1.1.3.2.4zm-.5-.9c-.1-.1-.1-.2-.2-.4.1.2.2.3.2.4zm34.5-45.2c.5-.2 1.1-.3 1.6-.5-.6.2-1.1.4-1.6.5zm-10 6.3l1.2-1.2-1.2 1.2zm4.6-3.7c.5-.3.9-.6 1.4-.8-.5.2-.9.5-1.4.8zm-28 44.3l-.3-.3.3.3zm22.1-39.2c.4-.5.8-.9 1.2-1.3-.4.5-.8.9-1.2 1.3zm4.3-4c.5-.3.9-.7 1.4-1-.5.3-.9.6-1.4 1zm-6.6 7.4L37 87c-.3.5-.7 1-.9 1.5zm9.8-9.5c.5-.3 1-.5 1.5-.7-.4.2-1 .4-1.5.7zM35.2 90.3c.3-.6.5-1.1.8-1.6-.3.5-.6 1-.8 1.6zm-.9 1.9c.2-.6.4-1.1.7-1.7-.2.6-.4 1.2-.7 1.7zm2.8-5.4c.3-.5.7-.9 1-1.4-.3.5-.6.9-1 1.4zm148.3 1zM22.5 128.5c-.1 0-.3-.1-.4-.1.1 0 .2 0 .4.1zm.9.2c-.1 0-.3-.1-.4-.1.1 0 .2.1.4.1zm-2.7-.9c-.1-.1-.3-.1-.4-.2.1.1.2.2.4.2zm4.6 1.1h-.4.4zm-1-.1c-.1 0-.3 0-.4-.1.1.1.3.1.4.1zm162.1-38.7c.2.7.5 1.4.7 2.2-.3-.8-.5-1.5-.7-2.2zM19.8 127.4c-.1-.1-.3-.1-.4-.2.2.1.3.1.4.2zm1.8.8c-.1-.1-.3-.1-.4-.2.1.1.2.1.4.2zm-4-2.5l-.3-.3c0 .1.1.2.3.3zm.7.6l-.3-.3c0 .2.2.3.3.3zm-1.4-1.3l-.3-.3.3.3zm2.1 1.9zM63.8 77h-.3c-.5-.1-.9-.2-1.4-.3.5.1.9.2 1.4.3h.3zm-4.6-.7c.3 0 .7.1 1 .1-.4-.1-.7-.1-1-.1zm4.6.7c.2.1.5.1.8.2-.3 0-.6-.1-.8-.2zm-6.4-.8h1.4-1.4zm-3.9.3c.6-.1 1.1-.2 1.7-.2-.6 0-1.1.1-1.7.2zm7.2-.1c.3 0 .7.1 1 .2-.4-.1-.7-.1-1-.2zm-5.2-.1c.6 0 1.2-.1 1.8-.1-.6 0-1.2 0-1.8.1z"/><linearGradient id="c" gradientUnits="userSpaceOnUse" x1="-37.055" y1="-167.405" x2="-27.757" y2="-167.405" gradientTransform="matrix(4.975 27.578 27.544 -4.981 4979.98 304.43)"><stop offset="0" stop-color="#febf10"/><stop offset="1" stop-color="#f58020"/></linearGradient><path fill="url(#c)" d="M89.5 141.8c0-.5-.5-.8-1-.8H69.2c-.5 0-.8.3-1 .5l-7.6 21.6v.3c0 .5.5.8 1 .8h7.3l-6.8 19.4v.3c0 .8.8 1.5 2 1.5.7 0 1.4-.3 1.7-.8L88.1 155v-.3c0-.5-.5-.8-1-.8h-6.8l9.1-12 .1-.1z"/><linearGradient id="d" gradientUnits="userSpaceOnUse" x1="521.596" y1="-114.889" x2="502.894" y2="-134.944" gradientTransform="matrix(1 0 0 -1 -252 149)"><stop offset="0" stop-color="#5bbfd5"/><stop offset="1" stop-color="#293787"/></linearGradient><path fill="url(#d)" d="M105.3 167.3c.4-.9-.2-1.9-1.2-2.2-.9-.3-1.9 0-2.3.7l-19.4 24.8c-.4.5-.7 1-1 1.6-1.2 3 .6 6.4 4 7.5 3.4 1.1 7-.4 8.3-3.3l11.5-28.9.1-.2z"/><linearGradient id="e" gradientUnits="userSpaceOnUse" x1="521.596" y1="-114.889" x2="502.894" y2="-134.944" gradientTransform="matrix(1 0 0 -1 -252 149)"><stop offset="0" stop-color="#5bbfd5"/><stop offset="1" stop-color="#293787"/></linearGradient><path fill="url(#e)" d="M139.3 143.3c.4-.9-.2-1.9-1.2-2.2-.9-.3-1.9 0-2.3.7l-19.4 24.8c-.4.5-.7 1-1 1.6-1.2 3 .6 6.4 4 7.5 3.4 1.1 7-.4 8.3-3.3l11.5-28.9.1-.2z"/></svg>