<svg xmlns="http://www.w3.org/2000/svg" viewBox="0 0 200 200"><linearGradient id="a" gradientUnits="userSpaceOnUse" x1="-37.055" y1="-167.405" x2="-27.757" y2="-167.405" gradientTransform="matrix(4.975 27.578 27.544 -4.981 4979.98 304.43)"><stop offset="0" stop-color="#febf10"/><stop offset="1" stop-color="#f58020"/></linearGradient><path fill="url(#a)" d="M161.1 124.3c0-.5-.5-.8-1-.8h-19.3c-.5 0-.8.3-1 .5l-7.6 21.6v.3c0 .5.5.8 1 .8h7.3l-6.8 19.4v.3c0 .8.8 1.5 2 1.5.7 0 1.4-.3 1.7-.8l22.3-29.6v-.3c0-.5-.5-.8-1-.8H152l9.1-12v-.1z"/><linearGradient id="b" gradientUnits="userSpaceOnUse" x1="521.596" y1="-114.889" x2="502.894" y2="-134.944" gradientTransform="matrix(1 0 0 -1 -252 149)"><stop offset="0" stop-color="#5bbfd5"/><stop offset="1" stop-color="#293787"/></linearGradient><path fill="url(#b)" d="M176.9 149.7c.4-.9-.2-1.9-1.2-2.2-.9-.3-1.9 0-2.3.7L154 173c-.4.5-.7 1-1 1.6-1.2 3 .6 6.4 4 7.5 3.4 1.1 7-.4 8.3-3.3l11.5-28.9.1-.2z"/><linearGradient id="c" gradientUnits="userSpaceOnUse" x1="-20.229" y1="268.343" x2="-13.898" y2="268.343" gradientTransform="rotate(79.765 2854.096 2965.574) scale(18.803)"><stop offset="0" stop-color="#febf10"/><stop offset="1" stop-color="#f58020"/></linearGradient><path fill="url(#c)" d="M99.5 117.8h-1c-.2 0-.5 0-.9-.1-.5-.1-.9-.2-1.1-.2h-.1c-.2 0-.5-.1-.8-.2-.4-.1-.8-.3-1.1-.4h-.1c-.2-.1-.5-.2-.8-.4-.4-.2-.7-.4-.9-.5-.2-.1-.4-.3-.7-.5-.4-.3-.7-.5-.8-.7l-.1-.1c-.1-.1-.4-.3-.6-.6-.3-.4-.6-.7-.8-.9l-.1-.1c-.1-.1-.3-.4-.5-.7-.3-.4-.5-.8-.7-1.1-.1-.1-.2-.4-.4-.7-.3-.7-.6-1.3-.7-2-.9-3.2-.4-6.6 1.3-9.5 1.7-2.9 4.4-5 7.6-5.8.3-.1.9-.2 1.7-.5v-.2c.1-.6.2-1.3.4-1.9.2-.6.3-1.2.6-1.8.1-.2.1-.3.2-.5v-.1c.2-.4.3-.8.5-1.2l.3-.6c.2-.4.4-.7.6-1 .1-.2.2-.4.4-.6.2-.3.4-.6.7-1l.1-.1c.1-.1.2-.3.3-.4.3-.3.6-.7.9-1.1l.3-.3c.4-.4.8-.8 1.3-1.2.1-.1.2-.2.4-.3.4-.3.7-.6 1-.8.1-.1.3-.2.4-.3h.1c.3-.2.7-.4 1-.6l.6-.3c.3-.2.7-.4 1-.5h.1c.2-.1.3-.2.5-.2.4-.2.8-.3 1.2-.5.1-.1.3-.1.4-.2.6-.2 1.1-.4 1.7-.5.1 0 .3-.1.4-.1.5-.1.9-.2 1.4-.3.2 0 .4 0 .5-.1h.1c.4-.1.8-.1 1.2-.1h.9c.1-.3.2-.6.4-1 .6-1.6 1.4-3.1 2.3-4.5-7-6.2-16.2-10-26.3-10-21.9 0-39.6 17.7-39.6 39.6 0 21.9 17.7 39.6 39.6 39.6 15.4 0 28.8-8.9 35.3-21.8H99.8c-.1-.1-.2-.1-.3-.1z"/><path fill="#F9D915" d="M49.8 30.1l13.4 32.7c3.9-3.2 8.4-5.8 13.2-7.6L55 27.1l-.1-.1c-1-1.2-2.9-1.5-4.2-.5-1 .8-1.4 2.1-1 3.4 0 0 0 .1.1.2zm51.3 22.5l-4.5-35v-.1c-.2-1.6-1.7-2.8-3.4-2.6-1.3.2-2.3 1.1-2.6 2.4 0 .1 0 .1-.1.2l-4.7 35c2.5-.4 5-.6 7.5-.6 2.7.1 5.3.3 7.8.7zM45.4 100c0-2.6.2-5.2.6-7.7l-35 4.5h-.1c-1.6.3-2.8 1.8-2.5 3.4.2 1.3 1.1 2.3 2.4 2.6.1 0 .1 0 .2.1l35 4.7c-.4-2.5-.6-5-.6-7.6zm92-69.7s0-.1 0 0c.3-.8.3-1.6 0-2.3-.3-.8-.9-1.3-1.6-1.7-1.2-.5-2.6-.2-3.4.8-.1 0-.1.1-.2.2l-21.6 27.9c4.8 1.9 9.3 4.5 13.2 7.7l13.6-32.6zm-116.8 31l28 21.6c1.9-4.8 4.5-9.3 7.7-13.2L23.7 56h-.1c-1.5-.6-3.3.2-3.9 1.7-.5 1.2-.2 2.6.8 3.4 0 .1.1.1.1.2zM48.5 117l-28.1 21.4s-.1 0-.1.1c-.6.5-1 1.2-1.1 1.9-.1.8.1 1.6.6 2.3.8 1 2.2 1.4 3.4 1 .1 0 .1 0 .2-.1l32.7-13.4c-3.1-3.9-5.7-8.4-7.6-13.2zm37.2 30.3l4.5 35v.1c.2 1.5 1.5 2.6 3 2.6h.4c1.3-.2 2.3-1.1 2.6-2.4 0-.1 0-.1.1-.2l4.7-35c-2.5.4-5 .6-7.5.6-2.7 0-5.3-.2-7.8-.7zm-36.3 22.4s0 .1 0 0c-.3.8-.3 1.6 0 2.3.3.8.9 1.3 1.6 1.7 1.2.5 2.6.2 3.4-.8.1 0 .1-.1.1-.1l21.6-28c-4.8-1.9-9.3-4.5-13.2-7.7l-13.5 32.6z"/><linearGradient id="d" gradientUnits="userSpaceOnUse" x1="859.54" y1="-268.58" x2="874.714" y2="-302.662" gradientTransform="matrix(1 0 0 -1 -610 -6)"><stop offset="0" stop-color="#a1a1a0"/><stop offset="1" stop-color="#fff"/></linearGradient><path fill="url(#d)" d="M191 91c-.1-.5-.3-1-.5-1.5-.1-.2-.1-.3-.2-.5-.1-.3-.3-.6-.4-1-.1-.2-.2-.3-.3-.5-.2-.3-.3-.6-.5-.8-.1-.2-.2-.3-.3-.5-.2-.3-.4-.5-.6-.8-.1-.1-.2-.3-.3-.4-.2-.3-.5-.6-.8-.9l-.2-.2c-.3-.4-.7-.7-1.1-1l-.3-.3c-.3-.2-.5-.4-.8-.7-.1-.1-.3-.2-.4-.3-.3-.2-.5-.3-.8-.5-.2-.1-.3-.2-.5-.3-.3-.2-.6-.3-.8-.4-.2-.1-.3-.2-.5-.2-.3-.1-.7-.3-1-.4-.1 0-.2-.1-.4-.1-.5-.2-.9-.3-1.4-.4-.1 0-.2 0-.3-.1-.4-.1-.8-.2-1.2-.2-.2 0-.3 0-.5-.1-.3 0-.6-.1-1-.1h-2c-.5 0-1 .1-1.4.1-.1 0-.2 0-.3.1l-1.5.3s-.6.2-1.8.5c-1.5-5.4-4.8-10.1-9.2-13.4-1.9-1.4-4-2.5-6.3-3.3-1.3-.5-2.8-.8-4.2-1-1.2-.2-2.5-.3-3.8-.3-9.4 0-17.6 5.4-21.6 13.2-.4.7-.7 1.5-1 2.2-.7 1.7-1.2 3.5-1.5 5.4-.4-.1-.6-.2-.6-.2l-1.2-.3h-.3c-.4-.1-.8-.1-1.2-.1h-1.7c-.3 0-.6 0-.8.1-.1 0-.3 0-.4.1-.3.1-.7.1-1 .2h-.2c-.4.1-.8.2-1.2.4-.1 0-.2.1-.3.1-.3.1-.6.2-.8.3-.1.1-.3.1-.4.2-.2.1-.5.2-.7.4-.1.1-.3.2-.4.2-.2.1-.5.3-.7.4-.1.1-.2.2-.4.2-.2.2-.5.4-.7.6-.1.1-.2.1-.3.2l-.9.9-.2.2c-.2.2-.5.5-.7.8l-.3.3c-.2.2-.3.5-.5.7-.1.1-.2.3-.3.4-.1.2-.3.5-.4.7-.1.1-.1.3-.2.4-.1.3-.2.5-.4.8-.1.1-.1.3-.2.4-.2.4-.3.8-.4 1.3-.1.4-.2.9-.3 1.3-.1.9-.2 1.7-.2 2.6 0 .4 0 .9.1 1.3-3.7 1-6 1.6-6 1.6-3.5.9-5.5 4.5-4.6 8 .1.4.2.7.4 1.1.1.1.1.2.2.3.1.2.2.4.4.6l.3.3c.1.2.3.3.4.5l.3.3c.2.1.3.3.5.4.1.1.3.2.4.3.2.1.3.2.5.3.1.1.3.1.4.2.2.1.4.2.6.2.2 0 .3.1.5.1s.4.1.6.1h76.3s3.1-.1 4.7-.6c9.2-2.3 14.4-11.4 12-20.2z"/></svg>