<svg xmlns="http://www.w3.org/2000/svg" width="400" height="400"><path opacity=".502" fill="#FEBF10" d="M98.734 209.688l37.929-1.709-28.336 25.276 36.316-11.101-21.157 31.537 32.417-19.775-12.654 35.794 26.473-27.207-3.352 37.817 18.885-32.933 6.16 37.463 10.092-36.599 15.287 34.756.67-37.956 23.45 29.855-8.795-36.931 30.143 23.089-17.7-33.584 34.927 14.874-25.491-28.129 37.539 5.716-31.685-20.911 37.775-3.802-35.895-12.361 35.645-13.068-37.837-3.068 31.269-21.521-37.414 6.457 24.944-28.632-34.631 15.552 17.031-33.931-29.671 23.679 8.065-37.104-22.858 30.319-1.421-37.943-14.608 35.049-10.797-36.4-5.429 37.574-19.517-32.568 4.095 37.751-27.013-26.689 13.348 35.537-32.796-19.14 21.768 31.107-36.524-10.37 28.82 24.716-37.953-.977 34.057 16.772-37.001 8.504 37.162 7.773z"/><linearGradient id="a" gradientUnits="userSpaceOnUse" x1="32.773" y1="-12.73" x2="39.105" y2="-12.73" gradientTransform="matrix(4.975 27.578 27.544 -4.981 373.98 -841.29)"><stop offset="0" stop-color="#febf10"/><stop offset="1" stop-color="#f58020"/></linearGradient><path fill="url(#a)" d="M89.052 227.542l42.937-7.438-28.594 32.873L143.12 235.1l-19.525 38.955 34.04-27.2-9.221 42.584 26.204-34.805 1.659 43.535 16.722-40.233 12.442 41.752 6.185-43.111 22.436 37.337-4.724-43.299 31.008 30.598-15.35-40.768 37.649 21.922-25.009-35.676 41.93 11.883-33.1-28.344 43.559 1.077-39.093-19.208 42.446-9.793-42.657-8.888 38.699-20.04-43.522 1.998 32.491-29.027-41.666 12.756 24.252-36.2-37.178 22.719 14.482-41.095-30.351 31.243 3.808-43.398-21.632 37.821-7.113-42.988-11.551 42.011-17.563-39.874-.741 43.56-26.931-34.248 10.118 42.386-34.607-26.48 20.34 38.527-40.103-17.03 29.281 32.254-43.079-6.522 36.386 23.965-43.349 4.389 41.205 14.164-40.898 15.024 43.428 3.474z"/><linearGradient id="b" gradientUnits="userSpaceOnUse" x1="42.71" y1="-6.765" x2="49.042" y2="-6.765" gradientTransform="scale(18.803 -18.803) rotate(-79.765 25.915 12.368)"><stop offset="0" stop-color="#febf10"/><stop offset="1" stop-color="#f58020"/></linearGradient><path fill="url(#b)" d="M118.68 187.759c-3.746-42.887 28.016-80.754 70.904-84.502 42.895-3.746 80.757 28.014 84.502 70.911 3.748 42.891-28.016 80.752-70.906 84.497-42.892 3.744-80.752-28.015-84.5-70.906z"/><path opacity=".118" fill="#F6EB16" d="M118.668 187.771c-3.754-42.895 28.021-80.753 70.906-84.507 42.894-3.75 80.751 28.02 84.5 70.907 6.811 49.804-147.707 65.388-155.406 13.6z"/><path opacity=".255" fill="#F6EB16" d="M131.302 170.158c-10.562-16.802-.594-40.845 22.258-53.666 22.84-12.827 49.952-9.599 60.516 7.199 10.561 16.807.581 40.851-22.267 53.671-22.843 12.822-49.95 9.591-60.507-7.204z"/><linearGradient id="c" gradientUnits="userSpaceOnUse" x1="14.124" y1="-43.542" x2="20.457" y2="-43.542" gradientTransform="scale(35.722 -35.722) rotate(34.022 -51.791 -42.58)"><stop offset="0" stop-color="#f6eb16"/><stop offset="1" stop-color="#f58020"/></linearGradient><path fill="url(#c)" d="M195.214 257.275a78.321 78.321 0 007.802-.279c41.955-3.67 73.035-40.719 69.362-82.672-3.662-41.965-40.704-73.035-82.659-69.373-41.962 3.672-73.044 40.704-69.37 82.663 3.434 39.339 36.203 69.111 74.865 69.661zm-.049 3.385c-40.375-.573-74.599-31.654-78.191-72.748-3.828-43.823 28.626-82.505 72.451-86.325 43.819-3.838 82.496 28.62 86.331 72.439 3.834 43.824-28.617 82.494-72.455 86.333a77.329 77.329 0 01-8.136.301z"/><linearGradient id="d" gradientUnits="userSpaceOnUse" x1="808.447" y1="-272.035" x2="873.108" y2="-255.913" gradientTransform="matrix(1 0 0 -1 -610 -6)"><stop offset="0" stop-color="#a1a1a0"/><stop offset="1" stop-color="#fff"/></linearGradient><path fill="url(#d)" d="M189.33 290.507c-6.805 0-12.328-5.854-12.328-13.075 0-6.084 3.926-11.2 9.238-12.657a24.301 24.301 0 01-.47-4.772c0-12.573 9.547-22.792 21.367-22.947 2.687-14.896 15.036-26.152 29.863-26.152 11.983 0 22.347 7.355 27.303 18.038a16.325 16.325 0 016.122-1.188c9.531 0 17.26 8.198 17.26 18.305 0 1.507-.172 2.969-.493 4.369 10.012.335 18.032 9.047 18.032 19.743 0 10.909-8.345 19.754-18.631 19.754-18.339-.001-62.958.582-97.263.582z"/><linearGradient id="e" gradientUnits="userSpaceOnUse" x1="881.169" y1="-255.507" x2="832.591" y2="-292.113" gradientTransform="matrix(1 0 0 -1 -610 -6)"><stop offset="0" stop-color="#a1a1a0"/><stop offset="1" stop-color="#fff"/></linearGradient><path fill="url(#e)" d="M275.567 289.97c-20.466.127-53.487.492-81.214.536-2.375-3.278-3.699-7.432-3.482-11.879.467-9.468 7.768-16.84 16.564-17.024-.021-.46-.021-.918.003-1.39.378-7.659 6.546-13.548 13.769-13.146 1.866.103 3.62.617 5.191 1.453 4.063-6.949 11.477-11.405 19.72-10.949 11.444.635 20.37 10.506 20.691 22.439 7.475 2.884 12.629 10.681 12.19 19.535-.187 3.9-1.438 7.47-3.432 10.425z"/><linearGradient id="f" gradientUnits="userSpaceOnUse" x1="859.54" y1="-268.58" x2="874.714" y2="-302.662" gradientTransform="matrix(1 0 0 -1 -610 -6)"><stop offset="0" stop-color="#a1a1a0"/><stop offset="1" stop-color="#fff"/></linearGradient><path fill="url(#f)" d="M299.412 284.501c-3.341 3.362-7.854 5.426-12.822 5.426-12.862 0-38.679.288-64.786.457 2.101-4.484 5.771-8.029 10.291-9.771.326-11.938 9.248-21.808 20.693-22.441 8.241-.457 15.657 3.998 19.72 10.948a12.462 12.462 0 015.192-1.453c7.222-.401 13.39 5.488 13.766 13.149.025.466.025.926.005 1.384 2.868.062 5.577.887 7.941 2.301z"/><linearGradient id="g" gradientUnits="userSpaceOnUse" x1="669" y1="-269.899" x2="751.87" y2="-249.238" gradientTransform="matrix(1 0 0 -1 -610 -6)"><stop offset="0" stop-color="#a1a1a0"/><stop offset="1" stop-color="#fff"/></linearGradient><path fill="url(#g)" d="M46.829 292.507c-8.74 0-15.827-7.086-15.827-15.827 0-7.367 5.039-13.562 11.859-15.322a27.845 27.845 0 01-.604-5.776c0-15.226 12.253-27.592 27.431-27.781 3.451-18.026 19.305-31.658 38.339-31.658 15.381 0 28.687 8.904 35.047 21.836a22.074 22.074 0 017.86-1.438c12.235 0 22.158 9.923 22.158 22.157 0 1.821-.222 3.595-.639 5.288 12.852.408 23.147 10.953 23.147 23.902 0 13.207-10.71 23.914-23.916 23.914-23.537.001-80.817.705-124.855.705z"/><linearGradient id="h" gradientUnits="userSpaceOnUse" x1="760.964" y1="-248.083" x2="699.77" y2="-294.196" gradientTransform="matrix(1 0 0 -1 -610 -6)"><stop offset="0" stop-color="#a1a1a0"/><stop offset="1" stop-color="#fff"/></linearGradient><path fill="url(#h)" d="M157.534 291.855c-26.271.151-68.665.598-104.256.646a21.66 21.66 0 01-4.471-14.379c.6-11.457 9.972-20.387 21.265-20.607a17.105 17.105 0 01.004-1.679c.485-9.272 8.402-16.403 17.675-15.919a16.67 16.67 0 016.667 1.764c5.213-8.416 14.733-13.81 25.315-13.258 14.688.77 26.149 12.719 26.562 27.167 9.592 3.49 16.211 12.933 15.65 23.648a23.729 23.729 0 01-4.411 12.617z"/><linearGradient id="i" gradientUnits="userSpaceOnUse" x1="734.798" y1="-264.403" x2="753.648" y2="-306.742" gradientTransform="matrix(1 0 0 -1 -610 -6)"><stop offset="0" stop-color="#a1a1a0"/><stop offset="1" stop-color="#fff"/></linearGradient><path fill="url(#i)" d="M188.144 285.236a23.836 23.836 0 01-16.459 6.565c-16.517 0-49.654.351-83.168.556a23.912 23.912 0 0113.21-11.828c.415-14.449 11.873-26.398 26.563-27.166 10.581-.553 20.102 4.841 25.315 13.255a16.762 16.762 0 016.667-1.761c9.271-.485 17.189 6.646 17.672 15.918.03.563.03 1.123.005 1.677a21.608 21.608 0 0110.195 2.784z"/></svg>