<svg xmlns="http://www.w3.org/2000/svg" viewBox="0 0 200 200"><linearGradient id="a" gradientUnits="userSpaceOnUse" x1="859.54" y1="-268.58" x2="874.714" y2="-302.662" gradientTransform="matrix(1 0 0 -1 -610 -6)"><stop offset="0" stop-color="#a1a1a0"/><stop offset="1" stop-color="#fff"/></linearGradient><path fill="url(#a)" d="M100 1C45.3 1 1 45.3 1 100s44.3 99 99 99 99-44.3 99-99-44.3-99-99-99zM81.1 108.9H40.3c-5.1 0-9.2-4.1-9.2-9.2s4.1-9.2 9.2-9.2h40.9c5.1 0 9.2 4.1 9.2 9.2s-4.2 9.2-9.3 9.2zm77.8 0H118c-5.1 0-9.2-4.1-9.2-9.2s4.1-9.2 9.2-9.2h40.9c5.1 0 9.2 4.1 9.2 9.2s-4.1 9.2-9.2 9.2z"/></svg>