<svg xmlns="http://www.w3.org/2000/svg" width="400" height="400"><linearGradient id="a" gradientUnits="userSpaceOnUse" x1="200.752" y1="27.388" x2="351.942" y2="65.084" gradientTransform="matrix(1 0 0 -1 -106 205)"><stop offset="0" stop-color="#a1a1a0"/><stop offset="1" stop-color="#fff"/></linearGradient><path fill="url(#a)" d="M72.545 229.812c-15.945 0-28.875-12.933-28.875-28.877 0-13.443 9.193-24.743 21.635-27.958a50.854 50.854 0 01-1.103-10.542c0-27.774 22.353-50.335 50.046-50.683 6.297-32.893 35.22-57.759 69.945-57.759 28.065 0 52.338 16.245 63.946 39.841a40.3 40.3 0 0114.336-2.624c22.324 0 40.426 18.102 40.426 40.426a40.55 40.55 0 01-1.162 9.65c23.443.742 42.23 19.984 42.23 43.607 0 24.094-19.54 43.631-43.633 43.631-42.941.001-147.446 1.288-227.791 1.288z"/><linearGradient id="b" gradientUnits="userSpaceOnUse" x1="368.533" y1="67.184" x2="256.889" y2="-16.946" gradientTransform="matrix(1 0 0 -1 -106 205)"><stop offset="0" stop-color="#a1a1a0"/><stop offset="1" stop-color="#fff"/></linearGradient><path fill="url(#b)" d="M274.518 228.622c-47.93.278-125.272 1.089-190.207 1.183-5.562-7.234-8.672-16.408-8.158-26.23 1.093-20.904 18.193-37.192 38.796-37.601a30.956 30.956 0 01.007-3.061c.883-16.918 15.329-29.928 32.246-29.044a30.55 30.55 0 0112.162 3.216c9.513-15.352 26.881-25.19 46.188-24.184 26.801 1.402 47.703 23.2 48.463 49.564 17.496 6.366 29.571 23.588 28.553 43.144a43.292 43.292 0 01-8.05 23.013z"/><linearGradient id="c" gradientUnits="userSpaceOnUse" x1="320.795" y1="37.415" x2="355.186" y2="-39.829" gradientTransform="matrix(1 0 0 -1 -106 205)"><stop offset="0" stop-color="#a1a1a0"/><stop offset="1" stop-color="#fff"/></linearGradient><path fill="url(#c)" d="M330.367 216.545c-7.823 7.428-18.396 11.98-30.029 11.98-30.138 0-90.591.639-151.735 1.015 4.917-9.909 13.517-17.731 24.099-21.58.757-26.366 21.663-48.164 48.461-49.565 19.308-1.008 36.677 8.831 46.187 24.183a30.58 30.58 0 0112.164-3.216c16.918-.884 31.362 12.127 32.246 29.045a30.34 30.34 0 01.009 3.06 39.43 39.43 0 0118.598 5.078z"/><linearGradient id="d" gradientUnits="userSpaceOnUse" x1="342.58" y1="-53.373" x2="334.361" y2="-62.188" gradientTransform="matrix(1 0 0 -1 -106 205)"><stop offset="0" stop-color="#5bbfd5"/><stop offset="1" stop-color="#293787"/></linearGradient><path fill="url(#d)" d="M239.605 274.035c-3.727 2.245-8.49.914-10.642-2.976-3.144-5.835.205-10.612-2.642-21.036 6.753 7.592 12.862 7.147 16.134 12.906 2.152 3.889.875 8.862-2.85 11.106z"/><path fill="#FFF" d="M239.771 269.562a6.444 6.444 0 00.116-6.413c-.65-1.144-1.449-1.967-2.363-2.661 1.521.913 2.816 1.905 3.783 3.609a6.438 6.438 0 01-.085 6.358.88.88 0 01-.33.366.824.824 0 01-1.155-.323.91.91 0 01.034-.936z"/><linearGradient id="e" gradientUnits="userSpaceOnUse" x1="268.986" y1="-82.588" x2="261.033" y2="-91.117" gradientTransform="matrix(1 0 0 -1 -106 205)"><stop offset="0" stop-color="#5bbfd5"/><stop offset="1" stop-color="#293787"/></linearGradient><path fill="url(#e)" d="M165.986 302.589a7.723 7.723 0 01-10.55-2.826c-3.117-5.545.203-10.082-2.62-19.985 6.695 7.213 12.753 6.79 15.997 12.261a7.724 7.724 0 01-2.827 10.55z"/><path fill="#FFF" d="M166.151 298.34a5.9 5.9 0 00.116-6.093c-.645-1.086-1.437-1.869-2.344-2.528 1.509.868 2.793 1.811 3.752 3.43a5.894 5.894 0 01-.084 6.04.837.837 0 11-1.44-.849z"/><linearGradient id="f" gradientUnits="userSpaceOnUse" x1="289.201" y1="-50.218" x2="279.329" y2="-60.805" gradientTransform="matrix(1 0 0 -1 -106 205)"><stop offset="0" stop-color="#5bbfd5"/><stop offset="1" stop-color="#293787"/></linearGradient><path fill="url(#f)" d="M186.925 273.84c-4.585 2.647-10.449 1.077-13.096-3.509-3.869-6.882.252-12.515-3.253-24.808 8.313 8.953 15.833 8.429 19.858 15.22 2.647 4.586 1.076 10.45-3.509 13.097z"/><path fill="#FFF" d="M187.127 268.565a7.324 7.324 0 00.145-7.562c-.8-1.349-1.782-2.32-2.907-3.139 1.872 1.077 3.464 2.247 4.656 4.257a7.325 7.325 0 01-.104 7.498 1.038 1.038 0 01-1.829.051 1.04 1.04 0 01.039-1.105z"/><linearGradient id="g" gradientUnits="userSpaceOnUse" x1="325.134" y1="-76.639" x2="315.261" y2="-87.226" gradientTransform="matrix(1 0 0 -1 -106 205)"><stop offset="0" stop-color="#5bbfd5"/><stop offset="1" stop-color="#293787"/></linearGradient><path fill="url(#g)" d="M222.857 300.263c-4.582 2.647-10.447 1.076-13.096-3.509-3.868-6.883.254-12.515-3.254-24.811 8.312 8.955 15.836 8.432 19.857 15.223 2.65 4.584 1.079 10.449-3.507 13.097z"/><path fill="#FFF" d="M223.061 294.986a7.315 7.315 0 00.145-7.561c-.801-1.35-1.781-2.321-2.907-3.142 1.874 1.081 3.464 2.249 4.657 4.259a7.32 7.32 0 01-.106 7.498 1.042 1.042 0 01-1.829.053 1.046 1.046 0 01.04-1.107z"/></svg>