<svg xmlns="http://www.w3.org/2000/svg" xmlns:xlink="http://www.w3.org/1999/xlink" width="400" height="400"><linearGradient id="a" gradientUnits="userSpaceOnUse" x1="222.603" y1="158.631" x2="161.583" y2="233.985"><stop offset="0" stop-color="#5abfd5"/><stop offset="1" stop-color="#0f298f"/></linearGradient><path fill-rule="evenodd" clip-rule="evenodd" fill="url(#a)" d="M183.687 100.927c16.979-3.903 33.937-2.391 49.071 3.401a61.47 61.47 0 00-11.645 1.528c-32.908 7.564-53.46 40.387-45.894 73.293 7.566 32.909 40.386 53.46 73.294 45.894 15.79-3.63 28.731-13.079 37.092-25.557-6.217 31.754-30.477 58.484-64.041 66.199-45.491 10.457-90.862-17.952-101.32-63.439-10.457-45.489 17.953-90.861 63.443-101.319z"/><image overflow="visible" width="1389" height="319" xlink:href="399F18E46BA64D54.png" transform="matrix(.3031 0 0 .302 -1.01 217.024)"/><image overflow="visible" width="1389" height="405" xlink:href="399F18E46BA64D53.png" transform="matrix(.3031 0 0 .3024 -14.998 156.832)"/><image overflow="visible" width="1401" height="468" xlink:href="399F18E46BA64D5C.png" transform="matrix(.3005 0 0 .2988 -11.184 172.384)"/></svg>