<svg xmlns="http://www.w3.org/2000/svg" width="400" height="400"><linearGradient id="a" gradientUnits="userSpaceOnUse" x1="701.966" y1="-230.386" x2="858.732" y2="-191.3" gradientTransform="matrix(1 0 0 -1 -610 -6)"><stop offset="0" stop-color="#a1a1a0"/><stop offset="1" stop-color="#fff"/></linearGradient><path fill="url(#a)" d="M68.942 278.507c-16.533 0-29.94-13.404-29.94-29.942 0-13.935 9.532-25.654 22.434-28.986a52.679 52.679 0 01-1.143-10.928c0-28.801 23.179-52.195 51.891-52.554 6.528-34.107 36.521-59.889 72.525-59.889 29.097 0 54.268 16.845 66.3 41.308a41.83 41.83 0 0114.869-2.719c23.146 0 41.918 18.77 41.918 41.916 0 3.445-.421 6.799-1.209 10.006 24.312.771 43.789 20.723 43.789 45.214 0 24.985-20.26 45.245-45.243 45.245-44.525-.004-152.884 1.329-236.191 1.329z"/><linearGradient id="b" gradientUnits="userSpaceOnUse" x1="875.938" y1="-189.121" x2="760.177" y2="-276.353" gradientTransform="matrix(1 0 0 -1 -610 -6)"><stop offset="0" stop-color="#a1a1a0"/><stop offset="1" stop-color="#fff"/></linearGradient><path fill="url(#b)" d="M278.364 277.276c-49.696.288-129.894 1.128-197.224 1.225-5.768-7.504-8.991-17.016-8.458-27.2 1.133-21.672 18.864-38.561 40.228-38.986a32.893 32.893 0 01.007-3.171c.918-17.544 15.894-31.033 33.435-30.115a31.603 31.603 0 0112.611 3.333c9.861-15.918 27.871-26.121 47.889-25.074 27.787 1.454 49.467 24.056 50.247 51.39 18.146 6.604 30.666 24.462 29.606 44.738a44.852 44.852 0 01-8.341 23.86z"/><linearGradient id="c" gradientUnits="userSpaceOnUse" x1="826.436" y1="-219.99" x2="862.096" y2="-300.084" gradientTransform="matrix(1 0 0 -1 -610 -6)"><stop offset="0" stop-color="#a1a1a0"/><stop offset="1" stop-color="#fff"/></linearGradient><path fill="url(#c)" d="M336.27 264.752c-8.11 7.7-19.069 12.426-31.137 12.426-31.245 0-93.93.656-157.331 1.048 5.099-10.271 14.016-18.387 24.989-22.377.785-27.335 22.461-49.938 50.25-51.391 20.016-1.045 38.027 9.156 47.89 25.073a31.666 31.666 0 0112.612-3.33c17.539-.917 32.519 12.571 33.432 30.113.056 1.067.056 2.129.009 3.174a40.907 40.907 0 0119.286 5.264z"/></svg>