<svg xmlns="http://www.w3.org/2000/svg" viewBox="0 0 200 200"><path fill="#D3D3D3" d="M106.8 88c-.3.1-.5.3-.8.4.2-.2.5-.3.8-.4zm-2.7 1.2c-.3.1-.5.2-.8.3.2 0 .5-.2.8-.3zm-3.2 1.2c-.1 0-.2.1-.3.1.1 0 .2 0 .3-.1zm-3 1c-.3.1-.5.1-.8.2.3-.1.6-.2.8-.2zm16.3-10.5c.5-.1.9-.1 1.4-.2-.5.1-1 .1-1.4.2zm1.9-.3c.6-.1 1.3-.3 1.9-.4-.6.1-1.2.3-1.9.4zm1.9-.4c-1.3 1.2-2.7 2.4-4.1 3.4 1.4-1.1 2.8-2.2 4.1-3.4zM92.1 92.5c-.2 0-.3.1-.5.1.1 0 .3 0 .5-.1zm-12.4.1c-.2 0-.5-.1-.7-.1.2.1.4.1.7.1zm3.2.3h-.5.5zm-6-.7c-.3-.1-.5-.1-.8-.2.3.1.5.1.8.2zm35.2-11.1c.5 0 .9-.1 1.4-.1-.4 0-.9.1-1.4.1zM95.2 92c-.3.1-.6.1-.9.2.3-.1.6-.1.9-.2zm-9.6 1h.5-.9.4zm3.2-.1h-.7.7zm-16-31.6c.6.8 1.2 1.6 1.9 2.4-.6-.8-1.3-1.6-1.9-2.4zm6.8 7.4c.7.6 1.4 1.3 2.2 1.9-.8-.6-1.5-1.3-2.2-1.9zm4.9 4c.8.5 1.5 1 2.3 1.5-.8-.5-1.5-1-2.3-1.5zm-9.7-8.9c.6.7 1.3 1.5 2 2.2-.7-.8-1.3-1.5-2-2.2zm7.2 6.9c.7.6 1.4 1.1 2.2 1.7-.8-.5-1.5-1.1-2.2-1.7zM68.8 55.2c.5.9 1.1 1.8 1.7 2.7-.6-.9-1.2-1.8-1.7-2.7zm1.9 3.1c.6.8 1.1 1.7 1.7 2.5-.5-.8-1.1-1.6-1.7-2.5zm3.1 33.2c-.1 0-.3-.1-.4-.1.1 0 .3.1.4.1zm21.7-12.9c.8.3 1.6.6 2.5.8-.8-.2-1.7-.5-2.5-.8zm2.9.9c.8.2 1.6.5 2.4.6-.8-.1-1.6-.3-2.4-.6zm2.6.7c.8.2 1.7.3 2.5.5-.8-.1-1.6-.3-2.5-.5zm-13.7-5.7c.8.5 1.6.9 2.4 1.4-.9-.5-1.7-.9-2.4-1.4zm16.8 6.3c.8.1 1.7.2 2.5.3-.9-.1-1.7-.2-2.5-.3zM89.9 76c.8.4 1.5.8 2.3 1.2-.7-.4-1.5-.8-2.3-1.2zm17.1 5.1c.8.1 1.6.1 2.5.1-.9 0-1.7 0-2.5-.1zm-14.4-3.8c.8.4 1.6.7 2.4 1-.8-.3-1.6-.6-2.4-1zM65.1 88.4c-.1 0-.2-.1-.3-.1.1 0 .2 0 .3.1zm-15-11.2l-.1-.1c.1 0 .1 0 .1.1zm2.5 2.5l-.6-.6.6.6zm9.8 7.2c-.2-.1-.4-.2-.6-.4.1.2.3.3.6.4zm-14.2-12c-.2-.2-.3-.4-.5-.7.2.2.3.4.5.7zm6.6 6.8c-.2-.2-.4-.3-.6-.5.2.1.4.3.6.5zm5.1 3.8c-.2-.1-.5-.3-.7-.4.3.1.5.2.7.4zm-2.8-1.9c-.1 0-.1-.1-.2-.1.1 0 .2 0 .2.1z"/><linearGradient id="a" gradientUnits="userSpaceOnUse" x1="859.54" y1="-268.58" x2="874.714" y2="-302.662" gradientTransform="matrix(1 0 0 -1 -610 -6)"><stop offset="0" stop-color="#a1a1a0"/><stop offset="1" stop-color="#fff"/></linearGradient><path fill="url(#a)" d="M186 72.2c-4.1-15.4-19.9-24.6-35.3-20.6 0 0-1.1.3-3.1.8-4.9-18.3-21.6-31.8-41.5-31.8-15.6 0-29.3 8.3-36.8 20.8 1.1 3.7 2.6 7.3 4.6 10.8 8.1 14 22.1 23 35.6 23 2.4 0 4.7-.3 7-.9.5-.1 1-.2 1.5-.2 2.2 0 4.2 1.2 5.3 3.1 1.3 2.4.8 5.4-1.2 7.3-3 2.8-6.3 5.2-9.8 7.3-8.1 4.7-17.4 7.2-26.7 7.2-19.1 0-36.9-10.3-46.4-26.8-1.1-1.9-2-3.8-2.9-5.8-1.6 2.3-2.9 4.9-3.7 7.8-.8 3.1-1 6.2-.7 9.1-6.5 1.8-10.5 2.8-10.5 2.8-6.1 1.6-9.8 7.9-8.1 14 1.4 5.4 6.5 8.8 11.8 8.5h132.1s5.5-.3 8.2-1c15.6-4 24.8-19.9 20.6-35.4z"/><path fill="#D3D3D3" d="M79.2 68.3zm-32.8 4.1c-.2-.2-.3-.5-.5-.7.2.3.4.5.5.7zm24.3 18.2c-.2-.1-.4-.2-.7-.2.3.1.5.1.7.2zm-2.6-.9c-.3-.1-.5-.2-.8-.3.3.1.5.2.8.3zm43.5-8.6c-.6 0-1.3.1-1.9.1.6 0 1.2 0 1.9-.1z"/><linearGradient id="b" gradientUnits="userSpaceOnUse" x1="521.596" y1="-114.889" x2="502.894" y2="-134.944" gradientTransform="matrix(1 0 0 -1 -252 149)"><stop offset="0" stop-color="#5bbfd5"/><stop offset="1" stop-color="#293787"/></linearGradient><path fill="url(#b)" d="M124.7 121.1c-1-.2-2 .2-2.5 1l-34.8 53.7c-.6.9-1.1 1.8-1.4 2.9-1.6 5.4 2 11 8.1 12.4 6 1.4 12.2-1.7 13.9-7.1l8.4-27.9v-.1l9.8-32.5v-.2c.3-.8-.4-1.9-1.5-2.2z"/><linearGradient id="c" gradientUnits="userSpaceOnUse" x1="521.596" y1="-114.889" x2="502.894" y2="-134.944" gradientTransform="matrix(1 0 0 -1 -252 149)"><stop offset="0" stop-color="#5bbfd5"/><stop offset="1" stop-color="#293787"/></linearGradient><path fill="url(#c)" d="M86.4 152.4l11.5-28.9.1-.1c.4-.9-.2-1.9-1.2-2.2-.9-.3-1.9 0-2.3.7l-19.4 24.8c-.4.5-.7 1-1 1.6-1.2 3 .6 6.4 4 7.5 3.4 1 7-.5 8.3-3.4z"/><linearGradient id="d" gradientUnits="userSpaceOnUse" x1="220.835" y1="160.98" x2="153.258" y2="244.43"><stop offset="0" stop-color="#5abfd5"/><stop offset="1" stop-color="#0f298f"/></linearGradient><path fill="url(#d)" d="M118 80.2c-.6.2-1.3.3-1.9.4-.2 0-.4.1-.6.1-.4.1-.9.1-1.4.2-.2 0-.4.1-.7.1-.5.1-.9.1-1.4.1h-.5c-.6 0-1.3.1-1.9.1h-.1c-.8 0-1.6 0-2.5-.1h-.4c-.8-.1-1.7-.2-2.5-.3-.2 0-.3-.1-.5-.1-.8-.1-1.7-.3-2.5-.5-.1 0-.2 0-.3-.1l-2.4-.6c-.1 0-.3-.1-.4-.1-.8-.3-1.6-.5-2.5-.8-.2-.1-.3-.1-.5-.2-.8-.3-1.6-.7-2.4-1-.1-.1-.2-.1-.3-.2-.8-.4-1.5-.7-2.3-1.2-.1-.1-.2-.1-.3-.2-.8-.4-1.6-.9-2.4-1.4-.2-.1-.3-.2-.5-.3-.8-.5-1.5-1-2.3-1.5-.1-.1-.2-.2-.4-.3-.7-.5-1.4-1.1-2.2-1.7l-.2-.2c-.7-.6-1.5-1.2-2.2-1.9l-.4-.4c-.7-.6-1.4-1.3-2-2-.1-.1-.2-.2-.3-.4-.7-.7-1.3-1.4-2-2.2l-.1-.1c-.7-.8-1.3-1.6-1.9-2.4-.1-.2-.2-.3-.4-.5-.6-.8-1.2-1.6-1.7-2.5-.1-.2-.2-.3-.3-.5-.6-.9-1.1-1.8-1.7-2.7-1.2-2-2.2-4.1-3.1-6.1-7.7-18-5.2-37.5 6-49-3.4 1-6.7 2.5-9.9 4.3-20.2 12-28.5 36.4-20.8 57.6.9 2.6 2.1 5.1 3.5 7.6.5.9 1 1.7 1.6 2.5.2.2.3.5.5.7.4.6.8 1.2 1.3 1.8.2.2.3.4.5.7.6.8 1.2 1.5 1.8 2.2l.1.1c.6.7 1.2 1.3 1.9 2l.6.6c.5.5 1 1 1.6 1.4.2.2.4.3.6.5.7.6 1.4 1.2 2.2 1.8.1 0 .1.1.2.1l2.1 1.5c.2.1.5.3.7.4.6.4 1.2.7 1.8 1.1.2.1.4.2.6.4.8.5 1.6.9 2.5 1.3.1.1.2.1.3.1.7.3 1.5.7 2.2 1 .3.1.5.2.8.3.7.3 1.3.5 2 .7.2.1.4.2.7.2.9.3 1.8.5 2.6.8.1 0 .3.1.4.1.8.2 1.5.4 2.3.5.3.1.5.1.8.2l2.1.3c.2 0 .5.1.7.1l2.7.3h.5c.7 0 1.5.1 2.3.1h.9c.7 0 1.4 0 2-.1h.7c.9-.1 1.8-.1 2.7-.3.2 0 .3-.1.5-.1.7-.1 1.5-.2 2.2-.4.3-.1.6-.1.9-.2.7-.1 1.3-.3 2-.5.3-.1.5-.1.8-.2.9-.2 1.8-.5 2.7-.8.1 0 .2-.1.3-.1.8-.3 1.6-.6 2.3-.9.3-.1.5-.2.8-.3.6-.3 1.3-.6 1.9-.9.3-.1.5-.2.8-.4.9-.4 1.7-.9 2.6-1.4 1.6-.9 3.1-1.9 4.6-3 1.2-.9 2.6-2 3.9-3.2z"/><path fill="#FFF" d="M70.1 90.4c-.7-.2-1.3-.5-2-.7.7.2 1.3.5 2 .7zm16.7-16.2c.2.1.3.2.5.3-.2-.1-.4-.2-.5-.3zm22.8 7h-.2.2zm-20-5.3c.1.1.2.1.3.2-.1-.1-.2-.2-.3-.2zm8.4 3.5c.1 0 .3.1.4.1-.2 0-.3-.1-.4-.1zm-3-1c.2.1.3.1.5.2-.2-.1-.3-.2-.5-.2zm-33.3 8.2c-.6-.4-1.2-.7-1.8-1.1.6.4 1.2.7 1.8 1.1zM79 92.5l-2.1-.3 2.1.3zm13.2-15.3c.1.1.2.1.3.2 0-.1-.2-.2-.3-.2zm-9.8 15.7l-2.7-.3 2.7.3zm-9.9-32.1c.1.2.2.3.4.5-.2-.2-.3-.3-.4-.5zm-2.1-2.9c.1.2.2.3.3.5-.1-.2-.2-.4-.3-.5zM76.1 92c-.8-.2-1.5-.3-2.3-.5.8.2 1.5.4 2.3.5zm-2.7-.6c-.9-.2-1.8-.5-2.6-.8.8.3 1.7.6 2.6.8zm10.7-19c.1.1.2.2.4.3-.1-.1-.2-.2-.4-.3zm-2.3-1.8l.2.2-.2-.2zm-7.1-7l.1.1-.1-.1zm2.4 2.7c-.1-.1-.2-.2-.3-.4.1.1.2.3.3.4zm2.1 2l.4.4-.4-.4zM46 71.7c-.5-.8-1.1-1.6-1.6-2.5.5.9 1 1.7 1.6 2.5zm10.9 11.7c-.7-.6-1.5-1.2-2.2-1.8.8.7 1.5 1.3 2.2 1.8zm34.7 9.2l-2.7.3c.8-.1 1.7-.2 2.7-.3zm17.7-6c-.8.5-1.7.9-2.6 1.4.9-.4 1.8-.9 2.6-1.4zm-3.3 1.8c-.6.3-1.3.6-1.9.9.6-.3 1.2-.6 1.9-.9zm-51.8-7.2c-.5-.5-1.1-.9-1.6-1.4.5.4 1 .9 1.6 1.4zm10.6 7c-.8-.4-1.6-.8-2.5-1.3.9.5 1.7.9 2.5 1.3zm53.2-8zm-14.7 9.4c-.8.3-1.6.6-2.3.9.7-.3 1.5-.6 2.3-.9zm-6.2 2c-.7.2-1.3.3-2 .5.7-.2 1.4-.4 2-.5zm-2.8.6c-.7.1-1.5.3-2.2.4.7-.2 1.5-.3 2.2-.4zM59.2 85l-2.1-1.5c.7.6 1.4 1.1 2.1 1.5zm41.4 5.6c-.9.3-1.8.6-2.7.8.9-.3 1.8-.5 2.7-.8zM47.7 74.2c-.4-.6-.9-1.2-1.3-1.8.5.6.9 1.2 1.3 1.8zm2.3 2.9c-.6-.7-1.2-1.5-1.8-2.2.6.7 1.2 1.5 1.8 2.2zm53.6 3.6c.2 0 .3.1.5.1-.2 0-.4-.1-.5-.1zm-2.8-.5c.1 0 .2 0 .3.1-.2-.1-.2-.1-.3-.1zm-33.5 9.2c-.7-.3-1.5-.6-2.2-1 .8.3 1.5.6 2.2 1zm39.3-8.3h.4-.4zm-54.6-2c-.6-.6-1.3-1.3-1.9-2 .7.8 1.3 1.4 1.9 2zm61.5 1.9c.2 0 .4-.1.7-.1-.2 0-.5.1-.7.1zM88.1 92.9c-.7 0-1.4.1-2 .1.6 0 1.3 0 2-.1zm-2.9.1c-.8 0-1.5 0-2.3-.1.8.1 1.5.1 2.3.1zm26.4-11.9h.5-.5zm3.9-.4c.2 0 .4-.1.6-.1-.2 0-.4.1-.6.1z"/></svg>