<svg xmlns="http://www.w3.org/2000/svg" width="400" height="400"><linearGradient id="a" gradientUnits="userSpaceOnUse" x1="285.844" y1="109.607" x2="221.181" y2="189.459"><stop offset="0" stop-color="#5abfd5"/><stop offset="1" stop-color="#0f298f"/></linearGradient><path fill-rule="evenodd" clip-rule="evenodd" fill="url(#a)" d="M244.604 48.459c17.992-4.136 35.962-2.534 52 3.604-4.083.143-8.21.668-12.34 1.619-34.873 8.017-56.651 42.797-48.634 77.668 8.018 34.873 42.798 56.651 77.67 48.634 16.731-3.848 30.446-13.859 39.306-27.082-6.588 33.649-32.295 61.976-67.864 70.15-48.205 11.081-96.286-19.023-107.367-67.227-11.083-48.204 19.022-96.284 67.229-107.366z"/><linearGradient id="b" gradientUnits="userSpaceOnUse" x1="337.555" y1="-61.113" x2="469.629" y2="-28.183" gradientTransform="matrix(1 0 0 -1 -252 149)"><stop offset="0" stop-color="#a1a1a0"/><stop offset="1" stop-color="#fff"/></linearGradient><path fill="url(#b)" d="M66.158 255.708c-13.928 0-25.225-11.294-25.225-25.223 0-11.745 8.031-21.617 18.9-24.424a44.353 44.353 0 01-.962-9.209c0-24.263 19.527-43.973 43.717-44.276 5.5-28.734 30.769-50.455 61.105-50.455 24.516 0 45.72 14.191 55.857 34.802a35.218 35.218 0 0112.525-2.29c19.5 0 35.316 15.814 35.316 35.313 0 2.905-.356 5.729-1.018 8.431 20.48.646 36.893 17.457 36.893 38.093 0 21.048-17.07 38.119-38.117 38.119-37.511 0-128.805 1.119-198.991 1.119z"/><linearGradient id="c" gradientUnits="userSpaceOnUse" x1="484.124" y1="-26.345" x2="386.596" y2="-99.838" gradientTransform="matrix(1 0 0 -1 -252 149)"><stop offset="0" stop-color="#a1a1a0"/><stop offset="1" stop-color="#fff"/></linearGradient><path fill="url(#c)" d="M242.598 254.67c-41.872.243-109.439.951-166.161 1.033a34.518 34.518 0 01-7.128-22.918c.955-18.26 15.894-32.487 33.893-32.845a27.109 27.109 0 01.004-2.674c.772-14.78 13.39-26.144 28.169-25.372 3.822.2 7.411 1.193 10.626 2.808 8.31-13.412 23.481-22.006 40.346-21.125 23.411 1.224 41.673 20.267 42.336 43.297 15.287 5.562 25.834 20.608 24.942 37.691a37.812 37.812 0 01-7.027 20.105z"/><linearGradient id="d" gradientUnits="userSpaceOnUse" x1="442.422" y1="-52.352" x2="472.465" y2="-119.831" gradientTransform="matrix(1 0 0 -1 -252 149)"><stop offset="0" stop-color="#a1a1a0"/><stop offset="1" stop-color="#fff"/></linearGradient><path fill="url(#d)" d="M291.383 244.12c-6.835 6.484-16.07 10.469-26.232 10.469-26.324 0-79.137.551-132.553.882 4.298-8.655 11.81-15.489 21.055-18.854.66-23.03 18.922-42.071 42.335-43.296 16.863-.88 32.037 7.715 40.347 21.126a26.72 26.72 0 0110.623-2.811c14.78-.771 27.396 10.593 28.17 25.375.048.898.048 1.789.008 2.674a34.456 34.456 0 0116.247 4.435z"/><linearGradient id="e" gradientUnits="userSpaceOnUse" x1="551.873" y1="-139.335" x2="533.42" y2="-159.124" gradientTransform="matrix(1 0 0 -1 -252 149)"><stop offset="0" stop-color="#5bbfd5"/><stop offset="1" stop-color="#293787"/></linearGradient><path fill="url(#e)" d="M306.835 323.144c-8.567 4.949-19.53 2.011-24.479-6.56-7.23-12.863.473-23.395-6.078-46.373 15.537 16.737 29.596 15.757 37.117 28.451 4.949 8.569 2.009 19.531-6.56 24.482z"/><path fill="#FFF" d="M307.216 313.281c2.61-4.157 2.896-9.584.269-14.133-1.494-2.524-3.33-4.338-5.436-5.871 3.503 2.017 6.479 4.203 8.704 7.961 2.603 4.507 2.351 9.873-.194 14.017a1.946 1.946 0 11-3.343-1.974z"/><linearGradient id="f" gradientUnits="userSpaceOnUse" x1="447.172" y1="-139.335" x2="428.719" y2="-159.123" gradientTransform="matrix(1 0 0 -1 -252 149)"><stop offset="0" stop-color="#5bbfd5"/><stop offset="1" stop-color="#293787"/></linearGradient><path fill="url(#f)" d="M202.134 323.144c-8.569 4.949-19.531 2.011-24.48-6.56-7.231-12.863.472-23.395-6.079-46.373 15.537 16.737 29.595 15.757 37.118 28.451 4.95 8.569 2.01 19.531-6.559 24.482z"/><path fill="#FFF" d="M202.516 313.281a13.685 13.685 0 00.269-14.133c-1.495-2.524-3.331-4.338-5.436-5.871 3.503 2.017 6.479 4.203 8.703 7.961 2.604 4.507 2.352 9.873-.193 14.017a1.942 1.942 0 01-.765.806 1.942 1.942 0 01-2.655-.712 1.936 1.936 0 01.077-2.068z"/><linearGradient id="g" gradientUnits="userSpaceOnUse" x1="514.338" y1="-188.723" x2="495.884" y2="-208.512" gradientTransform="matrix(1 0 0 -1 -252 149)"><stop offset="0" stop-color="#5bbfd5"/><stop offset="1" stop-color="#293787"/></linearGradient><path fill="url(#g)" d="M269.303 372.53c-8.572 4.948-19.531 2.013-24.479-6.56-7.231-12.86.472-23.395-6.082-46.374 15.54 16.735 29.596 15.757 37.12 28.452 4.947 8.574 2.01 19.536-6.559 24.482z"/><path fill="#FFF" d="M269.684 362.672c2.609-4.157 2.894-9.59.269-14.136-1.495-2.522-3.331-4.338-5.435-5.87 3.498 2.016 6.476 4.206 8.703 7.963 2.602 4.5 2.348 9.87-.195 14.013a1.98 1.98 0 01-.764.811 1.947 1.947 0 01-2.578-2.781z"/></svg>