<svg xmlns="http://www.w3.org/2000/svg" viewBox="0 0 200 200"><linearGradient id="a" gradientUnits="userSpaceOnUse" x1="-37.055" y1="-167.405" x2="-27.757" y2="-167.405" gradientTransform="matrix(4.975 27.578 27.544 -4.981 4979.98 304.43)"><stop offset="0" stop-color="#febf10"/><stop offset="1" stop-color="#f58020"/></linearGradient><path fill="url(#a)" d="M89.5 141.8c0-.5-.5-.8-1-.8H69.2c-.5 0-.8.3-1 .5l-7.6 21.6v.3c0 .5.5.8 1 .8h7.3l-6.8 19.4v.3c0 .8.8 1.5 2 1.5.7 0 1.4-.3 1.7-.8L88.1 155v-.3c0-.5-.5-.8-1-.8h-6.8l9.1-12 .1-.1z"/><linearGradient id="b" gradientUnits="userSpaceOnUse" x1="521.596" y1="-114.889" x2="502.894" y2="-134.944" gradientTransform="matrix(1 0 0 -1 -252 149)"><stop offset="0" stop-color="#5bbfd5"/><stop offset="1" stop-color="#293787"/></linearGradient><path fill="url(#b)" d="M105.3 167.3c.4-.9-.2-1.9-1.2-2.2-.9-.3-1.9 0-2.3.7l-19.4 24.8c-.4.5-.7 1-1 1.6-1.2 3 .6 6.4 4 7.5 3.4 1.1 7-.4 8.3-3.3l11.5-28.9.1-.2z"/><linearGradient id="c" gradientUnits="userSpaceOnUse" x1="521.596" y1="-114.889" x2="502.894" y2="-134.944" gradientTransform="matrix(1 0 0 -1 -252 149)"><stop offset="0" stop-color="#5bbfd5"/><stop offset="1" stop-color="#293787"/></linearGradient><path fill="url(#c)" d="M139.3 143.3c.4-.9-.2-1.9-1.2-2.2-.9-.3-1.9 0-2.3.7l-19.4 24.8c-.4.5-.7 1-1 1.6-1.2 3 .6 6.4 4 7.5 3.4 1.1 7-.4 8.3-3.3l11.5-28.9.1-.2z"/><linearGradient id="d" gradientUnits="userSpaceOnUse" x1="859.54" y1="-268.58" x2="874.714" y2="-302.662" gradientTransform="matrix(1 0 0 -1 -610 -6)"><stop offset="0" stop-color="#a1a1a0"/><stop offset="1" stop-color="#fff"/></linearGradient><path fill="url(#d)" d="M186 72.2c-4.1-15.4-19.9-24.6-35.3-20.6 0 0-1.1.3-3.1.8-4.9-18.3-21.6-31.8-41.5-31.8-15.6 0-29.3 8.3-36.8 20.8 1.1 3.7 2.6 7.3 4.6 10.8 8.1 14 22.1 23 35.6 23 2.4 0 4.7-.3 7-.9.5-.1 1-.2 1.5-.2 2.2 0 4.2 1.2 5.3 3.1 1.3 2.4.8 5.4-1.2 7.3-3 2.8-6.3 5.2-9.8 7.3-8.1 4.7-17.4 7.2-26.7 7.2-19.1 0-36.9-10.3-46.4-26.8-1.1-1.9-2-3.8-2.9-5.8-1.6 2.3-2.9 4.9-3.7 7.8-.8 3.1-1 6.2-.7 9.1-6.5 1.8-10.5 2.8-10.5 2.8-6.1 1.6-9.8 7.9-8.1 14 1.4 5.4 6.5 8.8 11.8 8.5h132.1s5.5-.3 8.2-1c15.6-4 24.8-19.9 20.6-35.4z"/><linearGradient id="e" gradientUnits="userSpaceOnUse" x1="220.835" y1="160.98" x2="153.258" y2="244.43"><stop offset="0" stop-color="#5abfd5"/><stop offset="1" stop-color="#0f298f"/></linearGradient><path fill="url(#e)" d="M118 80.2c-.6.2-1.3.3-1.9.4-.2 0-.4.1-.6.1-.4.1-.9.1-1.4.2-.2 0-.4.1-.7.1-.5.1-.9.1-1.4.1h-.5c-.6 0-1.3.1-1.9.1h-.1c-.8 0-1.6 0-2.5-.1h-.4c-.8-.1-1.7-.2-2.5-.3-.2 0-.3-.1-.5-.1-.8-.1-1.7-.3-2.5-.5-.1 0-.2 0-.3-.1l-2.4-.6c-.1 0-.3-.1-.4-.1-.8-.3-1.6-.5-2.5-.8-.2-.1-.3-.1-.5-.2-.8-.3-1.6-.7-2.4-1-.1-.1-.2-.1-.3-.2-.8-.4-1.5-.7-2.3-1.2-.1-.1-.2-.1-.3-.2-.8-.4-1.6-.9-2.4-1.4-.2-.1-.3-.2-.5-.3-.8-.5-1.5-1-2.3-1.5-.1-.1-.2-.2-.4-.3-.7-.5-1.4-1.1-2.2-1.7l-.2-.2c-.7-.6-1.5-1.2-2.2-1.9l-.4-.4c-.7-.6-1.4-1.3-2-2-.1-.1-.2-.2-.3-.4-.7-.7-1.3-1.4-2-2.2l-.1-.1c-.7-.8-1.3-1.6-1.9-2.4-.1-.2-.2-.3-.4-.5-.6-.8-1.2-1.6-1.7-2.5-.1-.2-.2-.3-.3-.5-.6-.9-1.1-1.8-1.7-2.7-1.2-2-2.2-4.1-3.1-6.1-7.7-18-5.2-37.5 6-49-3.4 1-6.7 2.5-9.9 4.3-20.2 12-28.5 36.4-20.8 57.6.9 2.6 2.1 5.1 3.5 7.6.5.9 1 1.7 1.6 2.5.2.2.3.5.5.7.4.6.8 1.2 1.3 1.8.2.2.3.4.5.7.6.8 1.2 1.5 1.8 2.2l.1.1c.6.7 1.2 1.3 1.9 2l.6.6c.5.5 1 1 1.6 1.4.2.2.4.3.6.5.7.6 1.4 1.2 2.2 1.8.1 0 .1.1.2.1l2.1 1.5c.2.1.5.3.7.4.6.4 1.2.7 1.8 1.1.2.1.4.2.6.4.8.5 1.6.9 2.5 1.3.1.1.2.1.3.1.7.3 1.5.7 2.2 1 .3.1.5.2.8.3.7.3 1.3.5 2 .7.2.1.4.2.7.2.9.3 1.8.5 2.6.8.1 0 .3.1.4.1.8.2 1.5.4 2.3.5.3.1.5.1.8.2l2.1.3c.2 0 .5.1.7.1l2.7.3h.5c.7 0 1.5.1 2.3.1h.9c.7 0 1.4 0 2-.1h.7c.9-.1 1.8-.1 2.7-.3.2 0 .3-.1.5-.1.7-.1 1.5-.2 2.2-.4.3-.1.6-.1.9-.2.7-.1 1.3-.3 2-.5.3-.1.5-.1.8-.2.9-.2 1.8-.5 2.7-.8.1 0 .2-.1.3-.1.8-.3 1.6-.6 2.3-.9.3-.1.5-.2.8-.3.6-.3 1.3-.6 1.9-.9.3-.1.5-.2.8-.4.9-.4 1.7-.9 2.6-1.4 1.6-.9 3.1-1.9 4.6-3 1.2-.9 2.6-2 3.9-3.2z"/></svg>