<svg xmlns="http://www.w3.org/2000/svg" width="400" height="400"><linearGradient id="a" gradientUnits="userSpaceOnUse" x1="152.006" y1="142.426" x2="100.091" y2="206.535"><stop offset="0" stop-color="#5abfd5"/><stop offset="1" stop-color="#0f298f"/></linearGradient><path fill-rule="evenodd" clip-rule="evenodd" fill="url(#a)" d="M118.896 93.333c14.445-3.32 28.872-2.034 41.748 2.894a52.314 52.314 0 00-9.907 1.3c-27.998 6.436-45.482 34.359-39.045 62.355 6.437 27.998 34.36 45.483 62.357 39.045 13.433-3.089 24.444-11.126 31.557-21.742-5.289 27.015-25.928 49.757-54.485 56.319-38.701 8.896-77.303-15.272-86.199-53.972-8.897-38.701 15.272-77.302 53.974-86.199z"/><linearGradient id="b" gradientUnits="userSpaceOnUse" x1="362.683" y1="-113.941" x2="527.491" y2="-72.85" gradientTransform="matrix(1 0 0 -1 -252 149)"><stop offset="0" stop-color="#a1a1a0"/><stop offset="1" stop-color="#fff"/></linearGradient><path fill="url(#b)" d="M86.478 319.838c-17.381 0-31.476-14.093-31.476-31.479 0-14.65 10.021-26.969 23.584-30.473a55.448 55.448 0 01-1.202-11.49c0-30.276 24.368-54.872 54.553-55.25 6.863-35.855 38.393-62.959 76.247-62.959 30.59 0 57.051 17.708 69.701 43.427a43.954 43.954 0 0115.631-2.858c24.334 0 44.067 19.732 44.067 44.066 0 3.623-.442 7.148-1.271 10.519 25.559.81 46.035 21.783 46.035 47.534 0 26.268-21.299 47.563-47.563 47.563-46.807 0-160.725 1.4-248.306 1.4z"/><linearGradient id="c" gradientUnits="userSpaceOnUse" x1="545.58" y1="-70.556" x2="423.88" y2="-162.263" gradientTransform="matrix(1 0 0 -1 -252 149)"><stop offset="0" stop-color="#a1a1a0"/><stop offset="1" stop-color="#fff"/></linearGradient><path fill="url(#c)" d="M306.645 318.543c-52.248.304-136.559 1.188-207.341 1.289-6.064-7.891-9.452-17.891-8.893-28.598 1.192-22.785 19.832-40.539 42.291-40.983a33.454 33.454 0 01.008-3.336c.965-18.445 16.708-32.627 35.15-31.66a33.194 33.194 0 0113.258 3.503c10.369-16.734 29.301-27.46 50.346-26.362 29.213 1.528 52.005 25.292 52.826 54.027 19.077 6.942 32.24 25.716 31.126 47.032a47.216 47.216 0 01-8.771 25.088z"/><linearGradient id="d" gradientUnits="userSpaceOnUse" x1="493.54" y1="-103.014" x2="531.029" y2="-187.216" gradientTransform="matrix(1 0 0 -1 -252 149)"><stop offset="0" stop-color="#a1a1a0"/><stop offset="1" stop-color="#fff"/></linearGradient><path fill="url(#d)" d="M367.52 305.379c-8.526 8.092-20.049 13.061-32.733 13.061-32.849 0-98.749.691-165.401 1.103 5.361-10.799 14.736-19.326 26.271-23.524.826-28.738 23.614-52.5 52.829-54.027 21.043-1.1 39.978 9.627 50.347 26.359a33.342 33.342 0 0113.26-3.502c18.438-.964 34.185 13.219 35.147 31.66.06 1.121.06 2.235.009 3.335a42.951 42.951 0 0120.271 5.535z"/></svg>