<svg xmlns="http://www.w3.org/2000/svg" width="400" height="400"><linearGradient id="a" gradientUnits="userSpaceOnUse" x1="681.45" y1="-227.519" x2="830.028" y2="-190.474" gradientTransform="matrix(1 0 0 -1 -610 -6)"><stop offset="0" stop-color="#a1a1a0"/><stop offset="1" stop-color="#fff"/></linearGradient><path fill="url(#a)" d="M49.63 272.811c-15.67 0-28.376-12.705-28.376-28.379 0-13.207 9.034-24.313 21.262-27.471a49.954 49.954 0 01-1.083-10.359c0-27.294 21.968-49.467 49.181-49.809 6.187-32.324 34.612-56.76 68.737-56.76 27.578 0 51.433 15.965 62.836 39.15a39.629 39.629 0 0114.092-2.577c21.938 0 39.729 17.79 39.729 39.728a39.6 39.6 0 01-1.146 9.482c23.041.73 41.502 19.641 41.502 42.854 0 23.68-19.201 42.881-42.881 42.881-42.198-.004-144.898 1.26-223.853 1.26z"/><linearGradient id="b" gradientUnits="userSpaceOnUse" x1="846.336" y1="-188.405" x2="736.621" y2="-271.081" gradientTransform="matrix(1 0 0 -1 -610 -6)"><stop offset="0" stop-color="#a1a1a0"/><stop offset="1" stop-color="#fff"/></linearGradient><path fill="url(#b)" d="M248.113 271.645c-47.102.271-123.108 1.068-186.922 1.16-5.466-7.111-8.521-16.127-8.016-25.779 1.074-20.541 17.878-36.547 38.126-36.948a30.787 30.787 0 01.007-3.007c.87-16.628 15.063-29.411 31.688-28.541a29.934 29.934 0 0111.952 3.158c9.346-15.088 26.416-24.757 45.388-23.766 26.335 1.377 46.885 22.801 47.623 48.705 17.198 6.26 29.064 23.186 28.061 42.402a42.53 42.53 0 01-7.907 22.616z"/><linearGradient id="c" gradientUnits="userSpaceOnUse" x1="799.421" y1="-217.664" x2="833.219" y2="-293.575" gradientTransform="matrix(1 0 0 -1 -610 -6)"><stop offset="0" stop-color="#a1a1a0"/><stop offset="1" stop-color="#fff"/></linearGradient><path fill="url(#c)" d="M302.994 259.773c-7.686 7.299-18.074 11.776-29.51 11.776-29.613 0-89.023.621-149.112.992 4.833-9.733 13.284-17.424 23.683-21.207.744-25.907 21.287-47.33 47.625-48.707 18.97-.991 36.039 8.679 45.388 23.765a29.999 29.999 0 0111.953-3.156c16.623-.869 30.819 11.914 31.687 28.539.053 1.012.053 2.018.007 3.008a38.772 38.772 0 0118.279 4.99z"/><linearGradient id="d" gradientUnits="userSpaceOnUse" x1="849.998" y1="-243.939" x2="936.489" y2="-222.374" gradientTransform="matrix(1 0 0 -1 -610 -6)"><stop offset="0" stop-color="#a1a1a0"/><stop offset="1" stop-color="#fff"/></linearGradient><path fill="url(#d)" d="M227.297 267.797c-9.121 0-16.52-7.396-16.52-16.52 0-7.689 5.26-14.154 12.377-15.992a29.16 29.16 0 01-.631-6.029c0-15.891 12.789-28.797 28.631-28.996 3.602-18.816 20.148-33.041 40.013-33.041 16.054 0 29.94 9.295 36.579 22.791a23.054 23.054 0 018.203-1.5c12.77 0 23.127 10.355 23.127 23.125 0 1.9-.23 3.752-.666 5.52 13.413.427 24.158 11.435 24.158 24.947 0 13.785-11.178 24.961-24.963 24.961-24.562-.002-84.347.734-130.308.734z"/><linearGradient id="e" gradientUnits="userSpaceOnUse" x1="945.981" y1="-221.171" x2="882.114" y2="-269.298" gradientTransform="matrix(1 0 0 -1 -610 -6)"><stop offset="0" stop-color="#a1a1a0"/><stop offset="1" stop-color="#fff"/></linearGradient><path fill="url(#e)" d="M342.839 267.117c-27.419.158-71.665.623-108.812.676a22.613 22.613 0 01-4.666-15.008c.625-11.957 10.408-21.273 22.195-21.508a17.618 17.618 0 01.004-1.75c.504-9.68 8.769-17.121 18.444-16.615 2.502.131 4.854.779 6.958 1.838 5.439-8.781 15.377-14.41 26.422-13.832 15.329.801 27.292 13.271 27.721 28.352 10.014 3.646 16.92 13.496 16.334 24.685a24.732 24.732 0 01-4.6 13.162z"/><linearGradient id="f" gradientUnits="userSpaceOnUse" x1="918.671" y1="-238.201" x2="938.345" y2="-282.39" gradientTransform="matrix(1 0 0 -1 -610 -6)"><stop offset="0" stop-color="#a1a1a0"/><stop offset="1" stop-color="#fff"/></linearGradient><path fill="url(#f)" d="M374.786 260.207a24.874 24.874 0 01-17.181 6.855c-17.237 0-51.82.362-86.801.578 2.812-5.666 7.732-10.144 13.786-12.347.435-15.08 12.392-27.551 27.724-28.354 11.045-.575 20.979 5.054 26.422 13.834a17.505 17.505 0 016.959-1.838c9.677-.506 17.941 6.937 18.445 16.615.03.588.03 1.174.004 1.75a22.598 22.598 0 0110.642 2.907z"/></svg>