<svg xmlns="http://www.w3.org/2000/svg" width="400" height="400"><path opacity=".502" fill="#FEBF10" d="M205.522 189.078l22.593-1.018-16.879 15.055 21.632-6.611-12.602 18.785 19.309-11.779-7.537 21.321 15.77-16.206-1.997 22.526 11.249-19.618 3.669 22.316 6.011-21.8 9.107 20.702.398-22.608 13.969 17.783-5.239-21.998 17.955 13.754-10.543-20.006 20.804 8.859-15.183-16.755 22.36 3.406-18.874-12.457 22.502-2.264-21.382-7.363 21.233-7.785-22.538-1.827 18.626-12.819-22.288 3.846 14.86-17.055-20.629 9.264 10.144-20.212-17.673 14.105 4.803-22.102-13.615 18.06-.847-22.601-8.701 20.878-6.431-21.683-3.235 22.382-11.625-19.4 2.44 22.487-16.091-15.897 7.951 21.167-19.535-11.4 12.966 18.529-21.756-6.177 17.167 14.722-22.608-.582 20.288 9.991-22.041 5.066 22.136 4.629z"/><linearGradient id="a" gradientUnits="userSpaceOnUse" x1="-27.754" y1="270.682" x2="-23.982" y2="270.682" gradientTransform="matrix(4.975 27.578 -27.544 4.981 7860.517 -445.29)"><stop offset="0" stop-color="#febf10"/><stop offset="1" stop-color="#f58020"/></linearGradient><path fill="url(#a)" d="M199.755 199.713l25.576-4.431-17.032 19.581 23.662-10.648-11.63 23.204 20.276-16.202-5.493 25.366 15.61-20.732.988 25.932 9.961-23.966 7.411 24.871 3.684-25.68 13.365 22.24-2.815-25.791 18.47 18.226-9.142-24.285 22.425 13.059-14.897-21.251 43.976 8.079-38.716-17.884 44.947 1.641-42.287-12.441 44.284-4.833-44.409-6.295 42.052-10.937-44.925.19 19.353-17.29-24.818 7.598 14.445-21.563-22.145 13.533 8.627-24.479-18.079 18.61 2.268-25.85-12.886 22.528-4.237-25.606-6.881 25.024-10.461-23.751-.441 25.947-16.042-20.4 6.027 25.247-20.614-15.773 12.115 22.95-23.888-10.144 17.442 19.212-25.66-3.885 21.674 14.275-25.822 2.614 24.544 8.437-24.361 8.95 25.868 2.069z"/><linearGradient id="b" gradientUnits="userSpaceOnUse" x1="-20.145" y1="266.891" x2="-16.374" y2="266.891" gradientTransform="rotate(79.765 2854.096 2965.574) scale(18.803)"><stop offset="0" stop-color="#febf10"/><stop offset="1" stop-color="#f58020"/></linearGradient><path fill="url(#b)" d="M217.403 176.016c-2.231-25.546 16.688-48.103 42.235-50.335 25.551-2.231 48.104 16.687 50.334 42.239 2.233 25.548-16.688 48.102-42.236 50.332s-48.1-16.688-50.333-42.236z"/><path opacity=".118" fill="#F6EB16" d="M217.396 176.023c-2.236-25.551 16.69-48.102 42.236-50.338 25.55-2.234 48.1 16.69 50.333 42.237 4.057 29.666-87.983 38.949-92.569 8.101z"/><path opacity=".255" fill="#F6EB16" d="M224.922 165.531c-6.291-10.008-.354-24.33 13.258-31.967 13.605-7.641 29.755-5.718 36.048 4.288 6.29 10.011.346 24.333-13.265 31.97-13.607 7.638-29.753 5.714-36.041-4.291z"/><linearGradient id="c" gradientUnits="userSpaceOnUse" x1="-42.524" y1="293.377" x2="-38.751" y2="293.377" gradientTransform="rotate(-34.023 -17446.75 2501.372) scale(35.722)"><stop offset="0" stop-color="#f6eb16"/><stop offset="1" stop-color="#f58020"/></linearGradient><path fill="url(#c)" d="M262.992 217.424a46.048 46.048 0 004.646-.166c24.991-2.186 43.505-24.255 41.317-49.245-2.182-24.998-24.246-43.505-49.237-41.323-24.995 2.187-43.51 24.246-41.321 49.239 2.046 23.433 21.565 41.167 44.595 41.495zm-.029 2.016c-24.05-.342-44.437-18.855-46.576-43.333-2.28-26.104 17.052-49.146 43.156-51.421 26.103-2.286 49.141 17.048 51.425 43.149 2.284 26.104-17.046 49.138-43.159 51.426a45.92 45.92 0 01-4.846.179z"/><linearGradient id="d" gradientUnits="userSpaceOnUse" x1="429.451" y1="376.518" x2="578.029" y2="339.473" gradientTransform="translate(-358 -155)"><stop offset="0" stop-color="#a1a1a0"/><stop offset="1" stop-color="#fff"/></linearGradient><path fill="url(#d)" d="M49.63 272.811c-15.67 0-28.376-12.705-28.376-28.379 0-13.207 9.034-24.314 21.262-27.471a49.954 49.954 0 01-1.083-10.359c0-27.295 21.968-49.467 49.181-49.809 6.187-32.324 34.612-56.76 68.737-56.76 27.578 0 51.433 15.965 62.836 39.15a39.639 39.639 0 0114.093-2.577c21.938 0 39.729 17.79 39.729 39.728a39.65 39.65 0 01-1.146 9.482c23.042.73 41.502 19.641 41.502 42.854 0 23.68-19.201 42.881-42.88 42.881-42.2-.004-144.9 1.26-223.855 1.26z"/><linearGradient id="e" gradientUnits="userSpaceOnUse" x1="594.336" y1="337.406" x2="484.622" y2="420.082" gradientTransform="translate(-358 -155)"><stop offset="0" stop-color="#a1a1a0"/><stop offset="1" stop-color="#fff"/></linearGradient><path fill="url(#e)" d="M248.114 271.645c-47.102.271-123.109 1.068-186.923 1.16-5.466-7.111-8.521-16.127-8.016-25.779 1.074-20.541 17.878-36.547 38.126-36.949a30.766 30.766 0 01.007-3.006c.87-16.629 15.063-29.412 31.688-28.541a29.934 29.934 0 0111.952 3.158c9.346-15.088 26.416-24.757 45.388-23.766 26.335 1.377 46.884 22.801 47.623 48.705 17.198 6.26 29.064 23.186 28.06 42.402a42.529 42.529 0 01-7.905 22.616z"/><linearGradient id="f" gradientUnits="userSpaceOnUse" x1="547.421" y1="366.665" x2="581.219" y2="442.576" gradientTransform="translate(-358 -155)"><stop offset="0" stop-color="#a1a1a0"/><stop offset="1" stop-color="#fff"/></linearGradient><path fill="url(#f)" d="M302.994 259.773c-7.686 7.299-18.074 11.777-29.51 11.777-29.613 0-89.023.621-149.112.992 4.833-9.734 13.284-17.424 23.683-21.207.744-25.908 21.287-47.33 47.625-48.707 18.971-.992 36.039 8.678 45.388 23.764a30.02 30.02 0 0111.954-3.156c16.623-.869 30.819 11.914 31.686 28.539.053 1.012.053 2.018.007 3.008a38.768 38.768 0 0118.279 4.99z"/><linearGradient id="g" gradientUnits="userSpaceOnUse" x1="597.999" y1="392.938" x2="684.489" y2="371.373" gradientTransform="translate(-358 -155)"><stop offset="0" stop-color="#a1a1a0"/><stop offset="1" stop-color="#fff"/></linearGradient><path fill="url(#g)" d="M227.297 267.797c-9.121 0-16.519-7.396-16.519-16.52 0-7.689 5.259-14.154 12.376-15.992a29.16 29.16 0 01-.63-6.029c0-15.891 12.789-28.797 28.63-28.996 3.602-18.816 20.149-33.041 40.013-33.041 16.054 0 29.94 9.295 36.579 22.791a23.054 23.054 0 018.203-1.5c12.77 0 23.127 10.355 23.127 23.125a23.1 23.1 0 01-.666 5.52c13.413.426 24.158 11.434 24.158 24.947 0 13.785-11.178 24.961-24.962 24.961-24.563-.002-84.348.734-130.309.734z"/><linearGradient id="h" gradientUnits="userSpaceOnUse" x1="693.983" y1="370.17" x2="630.116" y2="418.297" gradientTransform="translate(-358 -155)"><stop offset="0" stop-color="#a1a1a0"/><stop offset="1" stop-color="#fff"/></linearGradient><path fill="url(#h)" d="M342.839 267.117c-27.419.158-71.665.623-108.812.676a22.612 22.612 0 01-4.665-15.008c.625-11.957 10.407-21.273 22.194-21.508a17.618 17.618 0 01.004-1.75c.505-9.68 8.769-17.121 18.445-16.615 2.502.131 4.854.779 6.958 1.838 5.44-8.781 15.377-14.41 26.422-13.832 15.329.801 27.292 13.271 27.721 28.352 10.013 3.645 16.92 13.496 16.334 24.684a24.742 24.742 0 01-4.601 13.163z"/><linearGradient id="i" gradientUnits="userSpaceOnUse" x1="666.672" y1="387.201" x2="686.346" y2="431.39" gradientTransform="translate(-358 -155)"><stop offset="0" stop-color="#a1a1a0"/><stop offset="1" stop-color="#fff"/></linearGradient><path fill="url(#i)" d="M374.786 260.207a24.871 24.871 0 01-17.18 6.855c-17.238 0-51.821.363-86.801.578 2.812-5.666 7.732-10.143 13.786-12.346.434-15.08 12.392-27.551 27.724-28.354 11.044-.576 20.979 5.053 26.422 13.834a17.504 17.504 0 016.958-1.838c9.677-.506 17.941 6.936 18.445 16.615.031.588.031 1.174.004 1.75a22.585 22.585 0 0110.642 2.906z"/></svg>