<svg xmlns="http://www.w3.org/2000/svg" width="400" height="400"><linearGradient id="a" gradientUnits="userSpaceOnUse" x1="452.753" y1="332.612" x2="603.942" y2="294.917" gradientTransform="translate(-358 -155)"><stop offset="0" stop-color="#a1a1a0"/><stop offset="1" stop-color="#fff"/></linearGradient><path fill="url(#a)" d="M72.545 229.812c-15.945 0-28.875-12.934-28.875-28.877 0-13.443 9.193-24.744 21.635-27.958a50.854 50.854 0 01-1.103-10.542c0-27.774 22.353-50.335 50.046-50.683 6.297-32.893 35.22-57.759 69.945-57.759 28.065 0 52.338 16.245 63.946 39.841a40.3 40.3 0 0114.336-2.624c22.324 0 40.426 18.102 40.426 40.426a40.55 40.55 0 01-1.161 9.65c23.442.742 42.229 19.984 42.229 43.607 0 24.093-19.539 43.63-43.633 43.63-42.941.002-147.446 1.289-227.791 1.289z"/><linearGradient id="b" gradientUnits="userSpaceOnUse" x1="620.534" y1="292.815" x2="508.889" y2="376.946" gradientTransform="translate(-358 -155)"><stop offset="0" stop-color="#a1a1a0"/><stop offset="1" stop-color="#fff"/></linearGradient><path fill="url(#b)" d="M274.518 228.622c-47.93.278-125.271 1.089-190.207 1.183-5.562-7.234-8.672-16.408-8.158-26.229 1.093-20.904 18.193-37.192 38.796-37.601a30.956 30.956 0 01.007-3.061c.883-16.918 15.329-29.928 32.246-29.044a30.55 30.55 0 0112.162 3.216c9.513-15.352 26.881-25.19 46.188-24.184 26.801 1.402 47.702 23.2 48.463 49.564 17.496 6.366 29.57 23.588 28.553 43.145a43.291 43.291 0 01-8.05 23.011z"/><linearGradient id="c" gradientUnits="userSpaceOnUse" x1="572.794" y1="322.585" x2="607.186" y2="399.83" gradientTransform="translate(-358 -155)"><stop offset="0" stop-color="#a1a1a0"/><stop offset="1" stop-color="#fff"/></linearGradient><path fill="url(#c)" d="M330.367 216.545c-7.823 7.428-18.396 11.98-30.029 11.98-30.138 0-90.591.639-151.735 1.015 4.917-9.909 13.517-17.731 24.099-21.58.757-26.366 21.663-48.164 48.461-49.565 19.308-1.008 36.677 8.831 46.187 24.183a30.58 30.58 0 0112.164-3.216c16.918-.884 31.362 12.127 32.246 29.045a30.05 30.05 0 01.01 3.06 39.43 39.43 0 0118.597 5.078z"/><linearGradient id="d" gradientUnits="userSpaceOnUse" x1="621.597" y1="416.888" x2="602.895" y2="436.943" gradientTransform="translate(-358 -155)"><stop offset="0" stop-color="#5bbfd5"/><stop offset="1" stop-color="#293787"/></linearGradient><path fill="url(#d)" d="M270.65 297.161c-8.688 5.016-19.793 2.04-24.811-6.646-7.326-13.037.479-23.707-6.158-46.992 15.743 16.959 29.987 15.966 37.614 28.83 5.016 8.687 2.039 19.795-6.645 24.808z"/><path fill="#FFF" d="M271.036 287.171c2.646-4.213 2.935-9.716.272-14.325-1.518-2.556-3.377-4.396-5.511-5.945 3.548 2.039 6.566 4.258 8.82 8.063 2.637 4.563 2.382 10.005-.197 14.203a1.968 1.968 0 01-3.464.093 1.958 1.958 0 01.08-2.089z"/><linearGradient id="e" gradientUnits="userSpaceOnUse" x1="521.491" y1="418.886" x2="502.79" y2="438.94" gradientTransform="translate(-358 -155)"><stop offset="0" stop-color="#5bbfd5"/><stop offset="1" stop-color="#293787"/></linearGradient><path fill="url(#e)" d="M170.547 299.161c-8.686 5.016-19.793 2.04-24.807-6.646-7.329-13.037.477-23.707-6.163-46.992 15.747 16.959 29.992 15.966 37.617 28.83 5.014 8.687 2.038 19.795-6.647 24.808z"/><path fill="#FFF" d="M170.931 289.171c2.647-4.213 2.935-9.716.274-14.325-1.516-2.556-3.376-4.396-5.507-5.945 3.546 2.039 6.563 4.258 8.82 8.063 2.635 4.563 2.377 10.005-.198 14.203a1.968 1.968 0 01-3.465.093 1.964 1.964 0 01.076-2.089z"/><linearGradient id="f" gradientUnits="userSpaceOnUse" x1="589.559" y1="468.935" x2="570.857" y2="488.989" gradientTransform="translate(-358 -155)"><stop offset="0" stop-color="#5bbfd5"/><stop offset="1" stop-color="#293787"/></linearGradient><path fill="url(#f)" d="M238.611 349.213c-8.68 5.014-19.789 2.037-24.805-6.646-7.328-13.039.479-23.707-6.164-46.999 15.746 16.964 29.996 15.973 37.614 28.837 5.017 8.683 2.043 19.792-6.645 24.808z"/><path fill="#FFF" d="M238.997 339.217c2.647-4.214 2.937-9.713.274-14.319-1.519-2.559-3.375-4.397-5.508-5.951 3.551 2.047 6.562 4.261 8.819 8.065a13.867 13.867 0 01-.2 14.204 1.972 1.972 0 01-3.465.098 1.993 1.993 0 01.08-2.097z"/><linearGradient id="g" gradientUnits="userSpaceOnUse" x1="533.58" y1="475.372" x2="525.361" y2="484.186" gradientTransform="translate(-358 -155)"><stop offset="0" stop-color="#5bbfd5"/><stop offset="1" stop-color="#293787"/></linearGradient><path fill="url(#g)" d="M178.605 336.035c-3.727 2.245-8.49.914-10.642-2.977-3.144-5.835.205-10.611-2.642-21.035 6.753 7.592 12.862 7.146 16.134 12.905 2.152 3.89.875 8.863-2.85 11.107z"/><path fill="#FFF" d="M178.771 331.562a6.444 6.444 0 00.116-6.413c-.65-1.145-1.449-1.968-2.363-2.661 1.521.913 2.816 1.904 3.783 3.608a6.438 6.438 0 01-.085 6.358.88.88 0 01-.33.366.824.824 0 01-1.155-.323.908.908 0 01.034-.935z"/><linearGradient id="h" gradientUnits="userSpaceOnUse" x1="628.987" y1="474.587" x2="621.034" y2="483.116" gradientTransform="translate(-358 -155)"><stop offset="0" stop-color="#5bbfd5"/><stop offset="1" stop-color="#293787"/></linearGradient><path fill="url(#h)" d="M273.986 334.589a7.724 7.724 0 01-10.551-2.826c-3.117-5.545.203-10.082-2.619-19.984 6.695 7.213 12.752 6.79 15.996 12.261a7.722 7.722 0 01-2.826 10.549z"/><path fill="#FFF" d="M274.15 330.34a5.898 5.898 0 00.115-6.093c-.646-1.086-1.437-1.869-2.344-2.528 1.51.868 2.793 1.812 3.752 3.431a5.892 5.892 0 01-.084 6.04.837.837 0 11-1.439-.85z"/><linearGradient id="i" gradientUnits="userSpaceOnUse" x1="572.201" y1="417.219" x2="562.328" y2="427.806" gradientTransform="translate(-358 -155)"><stop offset="0" stop-color="#5bbfd5"/><stop offset="1" stop-color="#293787"/></linearGradient><path fill="url(#i)" d="M217.925 280.84c-4.585 2.646-10.448 1.077-13.097-3.509-3.869-6.882.252-12.515-3.253-24.808 8.313 8.953 15.833 8.429 19.858 15.22 2.648 4.586 1.077 10.45-3.508 13.097z"/><path fill="#FFF" d="M218.127 275.564a7.32 7.32 0 00.145-7.562c-.799-1.349-1.78-2.319-2.905-3.14 1.87 1.078 3.465 2.248 4.655 4.258a7.325 7.325 0 01-.104 7.498 1.038 1.038 0 01-1.828.051 1.034 1.034 0 01.037-1.105z"/><linearGradient id="j" gradientUnits="userSpaceOnUse" x1="482.134" y1="430.638" x2="472.261" y2="441.225" gradientTransform="translate(-358 -155)"><stop offset="0" stop-color="#5bbfd5"/><stop offset="1" stop-color="#293787"/></linearGradient><path fill="url(#j)" d="M127.857 294.264c-4.582 2.646-10.447 1.075-13.096-3.51-3.868-6.883.254-12.516-3.254-24.811 8.312 8.955 15.836 8.432 19.857 15.223 2.65 4.584 1.079 10.449-3.507 13.098z"/><path fill="#FFF" d="M128.061 288.986a7.317 7.317 0 00.145-7.562c-.801-1.35-1.781-2.321-2.907-3.142 1.874 1.08 3.464 2.249 4.657 4.259a7.32 7.32 0 01-.106 7.498 1.032 1.032 0 01-.407.433 1.043 1.043 0 01-1.422-.38 1.044 1.044 0 01.04-1.106z"/></svg>