<svg xmlns="http://www.w3.org/2000/svg" width="400" height="400"><linearGradient id="a" gradientUnits="userSpaceOnUse" x1="200.752" y1="27.388" x2="351.942" y2="65.084" gradientTransform="matrix(1 0 0 -1 -106 205)"><stop offset="0" stop-color="#a1a1a0"/><stop offset="1" stop-color="#fff"/></linearGradient><path fill="url(#a)" d="M72.545 229.812c-15.945 0-28.875-12.933-28.875-28.877 0-13.443 9.193-24.743 21.635-27.958a50.854 50.854 0 01-1.103-10.542c0-27.774 22.353-50.335 50.046-50.683 6.297-32.893 35.22-57.759 69.945-57.759 28.065 0 52.338 16.245 63.946 39.841a40.3 40.3 0 0114.336-2.624c22.324 0 40.426 18.102 40.426 40.426a40.55 40.55 0 01-1.162 9.65c23.443.742 42.23 19.984 42.23 43.607 0 24.094-19.54 43.631-43.633 43.631-42.941.001-147.446 1.288-227.791 1.288z"/><linearGradient id="b" gradientUnits="userSpaceOnUse" x1="368.533" y1="67.184" x2="256.889" y2="-16.946" gradientTransform="matrix(1 0 0 -1 -106 205)"><stop offset="0" stop-color="#a1a1a0"/><stop offset="1" stop-color="#fff"/></linearGradient><path fill="url(#b)" d="M274.518 228.622c-47.93.278-125.272 1.089-190.207 1.183-5.562-7.234-8.672-16.408-8.158-26.23 1.093-20.904 18.193-37.192 38.796-37.601a30.956 30.956 0 01.007-3.061c.883-16.918 15.329-29.928 32.246-29.044a30.55 30.55 0 0112.162 3.216c9.513-15.352 26.881-25.19 46.188-24.184 26.801 1.402 47.703 23.2 48.463 49.564 17.496 6.366 29.571 23.588 28.553 43.144a43.292 43.292 0 01-8.05 23.013z"/><linearGradient id="c" gradientUnits="userSpaceOnUse" x1="320.795" y1="37.415" x2="355.186" y2="-39.829" gradientTransform="matrix(1 0 0 -1 -106 205)"><stop offset="0" stop-color="#a1a1a0"/><stop offset="1" stop-color="#fff"/></linearGradient><path fill="url(#c)" d="M330.367 216.545c-7.823 7.428-18.396 11.98-30.029 11.98-30.138 0-90.591.639-151.735 1.015 4.917-9.909 13.517-17.731 24.099-21.58.757-26.366 21.663-48.164 48.461-49.565 19.308-1.008 36.677 8.831 46.187 24.183a30.58 30.58 0 0112.164-3.216c16.918-.884 31.362 12.127 32.246 29.045a30.34 30.34 0 01.009 3.06 39.43 39.43 0 0118.598 5.078z"/><linearGradient id="d" gradientUnits="userSpaceOnUse" x1="295.493" y1="-50.886" x2="276.792" y2="-70.941" gradientTransform="matrix(1 0 0 -1 -106 205)"><stop offset="0" stop-color="#5bbfd5"/><stop offset="1" stop-color="#293787"/></linearGradient><path fill="url(#d)" d="M196.547 291.161c-8.686 5.016-19.793 2.04-24.807-6.646-7.329-13.037.477-23.707-6.163-46.992 15.747 16.959 29.992 15.966 37.616 28.83 5.015 8.687 2.039 19.795-6.646 24.808z"/><path fill="#FFF" d="M196.931 281.171c2.647-4.213 2.935-9.716.274-14.325-1.516-2.556-3.376-4.396-5.507-5.945 3.546 2.039 6.563 4.257 8.819 8.063 2.635 4.563 2.377 10.005-.198 14.203a1.968 1.968 0 01-3.465.094 1.968 1.968 0 01.077-2.09z"/></svg>