<svg xmlns="http://www.w3.org/2000/svg" width="400" height="400"><linearGradient id="a" gradientUnits="userSpaceOnUse" x1="455.582" y1="321.419" x2="613.612" y2="282.018" gradientTransform="translate(-358 -155)"><stop offset="0" stop-color="#a1a1a0"/><stop offset="1" stop-color="#fff"/></linearGradient><path fill="url(#a)" d="M74.375 220.98c-16.665 0-30.182-13.518-30.182-30.184 0-14.052 9.611-25.862 22.615-29.223a53.127 53.127 0 01-1.151-11.02c0-29.03 23.364-52.612 52.308-52.976 6.583-34.38 36.813-60.372 73.111-60.372 29.334 0 54.706 16.979 66.834 41.643a42.157 42.157 0 0114.992-2.743c23.328 0 42.25 18.921 42.25 42.255 0 3.475-.424 6.854-1.219 10.086 24.51.775 44.144 20.887 44.144 45.58 0 25.184-20.421 45.606-45.606 45.606-44.884.005-154.116 1.348-238.096 1.348z"/><linearGradient id="b" gradientUnits="userSpaceOnUse" x1="630.957" y1="279.822" x2="514.262" y2="367.758" gradientTransform="translate(-358 -155)"><stop offset="0" stop-color="#a1a1a0"/><stop offset="1" stop-color="#fff"/></linearGradient><path fill="url(#b)" d="M285.484 219.736c-50.096.291-130.939 1.139-198.812 1.236a41.29 41.29 0 01-8.527-27.421c1.142-21.85 19.015-38.874 40.549-39.3a32.545 32.545 0 01.009-3.2c.924-17.684 16.021-31.282 33.705-30.358a31.933 31.933 0 0112.711 3.361c9.943-16.047 28.099-26.33 48.273-25.278 28.017 1.464 49.865 24.25 50.656 51.807 18.289 6.654 30.912 24.654 29.844 45.097a45.183 45.183 0 01-8.408 24.056z"/><linearGradient id="c" gradientUnits="userSpaceOnUse" x1="581.059" y1="310.94" x2="617.007" y2="391.68" gradientTransform="translate(-358 -155)"><stop offset="0" stop-color="#a1a1a0"/><stop offset="1" stop-color="#fff"/></linearGradient><path fill="url(#c)" d="M343.861 207.113c-8.178 7.763-19.229 12.521-31.393 12.521-31.496 0-94.688.666-158.598 1.061 5.139-10.356 14.128-18.533 25.188-22.557.793-27.557 22.645-50.341 50.656-51.805 20.18-1.054 38.332 9.229 48.275 25.276a31.964 31.964 0 0112.714-3.361c17.685-.924 32.778 12.676 33.705 30.36.055 1.077.058 2.144.006 3.199a41.193 41.193 0 0119.447 5.306z"/><linearGradient id="d" gradientUnits="userSpaceOnUse" x1="506.745" y1="409.709" x2="481.252" y2="455.699" gradientTransform="translate(-358 -155)"><stop offset="0" stop-color="#5bbfd5"/><stop offset="1" stop-color="#fff"/></linearGradient><path fill="url(#d)" d="M139.745 236.43l2.377.118.139 6.827 5.888-3.07v2.562l-5.815 4.003.048 2.282 5.767-3.004v2.561l-5.694 3.922.124 6.075 6.357-3.302v6.701l5.46-3.004.551-6.894 2.217-1.281.275 6.499 2.005-1.102.563-7.039 2.217-1.278.282 6.634 5.981-3.293 1.293 2.002-6.209 3.635 5.582 3.551-2.22 1.279-6.405-3.047-1.984 1.16 5.548 3.528-2.22 1.28-6.363-3.027-5.994 3.51 6.539 3.655-5.482 3.61 4.937 2.89 6.363-3.028 2.22 1.28-5.548 3.528 1.984 1.16 6.405-3.047 2.22 1.279-5.582 3.551 6.209 3.635-1.293 2.002-5.981-3.293-.282 6.634-2.217-1.278-.563-7.037-2.005-1.104-.275 6.499-2.217-1.281-.551-6.894-5.485-3.021v6.718l-6.36-3.302-.037 5.735 5.806 3.996v2.562l-5.827-3.041-.015 2.299 5.842 4.025v2.562l-5.866-3.061-.042 7.193-2.38-.118-.139-6.827-5.885 3.07v-2.559l5.812-4.008-.048-2.283-5.764 3.004v-2.56l5.691-3.922-.124-6.075-6.357 3.301v-6.701l-5.46 3.004-.551 6.895-2.217 1.281-.275-6.499-2.005 1.104-.562 7.037-2.217 1.278-.283-6.633-5.981 3.291-1.293-2.002 6.21-3.635-5.582-3.55 2.217-1.28 6.405 3.047 1.985-1.16-5.547-3.527 2.217-1.279 6.365 3.027 5.994-3.512-6.539-3.654 5.482-3.609-4.937-2.89-6.365 3.028-2.217-1.281 5.547-3.527-1.985-1.16-6.405 3.047-2.217-1.28 5.582-3.55-6.21-3.635 1.293-2.002 5.981 3.293.283-6.635 2.217 1.278.562 7.039 2.005 1.102.275-6.497 2.217 1.279.551 6.895 5.485 3.017V255.4l6.36 3.301.037-5.736-5.803-3.996v-2.562l5.824 3.041.015-2.3-5.839-4.024v-2.562l5.863 3.06.045-7.192zm1.314 30.483a1.656 1.656 0 100 3.311 1.656 1.656 0 100-3.311zm5.203.215l-2.417 1.414 4.077 2.388 2.617-1.722-4.277-2.08zm-7.953 1.414l-4.077-2.388-2.617 1.722 4.28 2.08 2.414-1.414zm-2.332 4.919v3.425l3.525-2.093-.07-3.234-3.455 1.902zm6.618-1.969l-.019 3.271 3.577 2.121v-3.438l-3.558-1.954zm3.582-7.868v-3.426l-3.525 2.093.067 3.234 3.458-1.901zm-6.617 1.968l.021-3.271-3.58-2.121v3.438l3.559 1.954z"/><linearGradient id="e" gradientUnits="userSpaceOnUse" x1="626.864" y1="409.71" x2="601.372" y2="455.699" gradientTransform="translate(-358 -155)"><stop offset="0" stop-color="#5bbfd5"/><stop offset="1" stop-color="#fff"/></linearGradient><path fill="url(#e)" d="M259.861 236.43l2.377.118.143 6.827 5.885-3.07v2.562l-5.812 4.003.046 2.282 5.768-3.004v2.561l-5.693 3.922.124 6.075 6.356-3.302v6.701l5.459-3.004.553-6.894 2.218-1.281.276 6.499 2.002-1.102.563-7.039 2.218-1.278.284 6.634 5.981-3.293 1.289 2.002-6.209 3.635 5.582 3.551-2.217 1.279-6.404-3.047-1.984 1.16 5.546 3.528-2.217 1.28-6.366-3.027-5.994 3.51 6.542 3.655-5.481 3.61 4.936 2.89 6.366-3.028 2.217 1.28-5.546 3.528 1.982 1.16 6.406-3.047 2.217 1.279-5.582 3.551 6.209 3.635-1.291 2.002-5.979-3.293-.284 6.634-2.218-1.278-.562-7.037-2.002-1.104-.278 6.499-2.218-1.281-.551-6.894-5.484-3.021v6.718l-6.36-3.302-.036 5.735 5.807 3.996v2.562l-5.827-3.041-.015 2.299 5.842 4.025v2.562l-5.862-3.061-.045 7.193-2.379-.118-.144-6.827-5.884 3.07v-2.559l5.812-4.008-.045-2.283-5.767 3.004v-2.56l5.692-3.922-.123-6.075-6.357 3.301v-6.701l-5.463 3.004-.549 6.895-2.217 1.281-.278-6.499-2.005 1.104-.561 7.037-2.219 1.278-.283-6.633-5.98 3.291-1.291-2.002 6.209-3.635-5.582-3.55 2.218-1.28 6.405 3.047 1.982-1.16-5.545-3.527 2.217-1.279 6.367 3.027 5.991-3.512-6.542-3.654 5.481-3.609-4.935-2.89-6.365 3.028-2.217-1.281 5.545-3.527-1.982-1.16-6.405 3.047-2.218-1.28 5.582-3.55-6.209-3.635 1.291-2.002 5.98 3.293.283-6.635 2.217 1.278.562 7.039 2.005 1.102.276-6.497 2.219 1.279.549 6.895 5.486 3.017V255.4l6.359 3.301.033-5.736-5.803-3.996v-2.562l5.826 3.041.016-2.3-5.842-4.024v-2.562l5.863 3.06.047-7.192zm1.314 30.483a1.655 1.655 0 100 3.31 1.655 1.655 0 000-3.31zm5.203.215l-2.413 1.414 4.076 2.388 2.613-1.722-4.276-2.08zm-7.952 1.414l-4.076-2.388-2.617 1.722 4.279 2.08 2.414-1.414zm-2.332 4.919v3.425l3.524-2.093-.066-3.234-3.458 1.902zm6.62-1.969l-.021 3.271 3.58 2.121v-3.438l-3.559-1.954zm3.583-7.868v-3.426l-3.525 2.093.066 3.234 3.459-1.901zm-6.621 1.968l.021-3.271-3.58-2.121v3.438l3.559 1.954z"/><linearGradient id="f" gradientUnits="userSpaceOnUse" x1="566.806" y1="472.934" x2="541.313" y2="518.923" gradientTransform="translate(-358 -155)"><stop offset="0" stop-color="#5bbfd5"/><stop offset="1" stop-color="#fff"/></linearGradient><path fill="url(#f)" d="M199.801 299.648l2.377.117.143 6.825 5.886-3.069v2.562l-5.812 4.004.049 2.287 5.764-3.008v2.562l-5.693 3.918.127 6.075 6.354-3.302v6.706l5.463-3.009.549-6.89 2.218-1.28.277 6.495 2.005-1.104.562-7.035 2.221-1.281.281 6.634 5.98-3.291 1.293 2.002-6.212 3.637 5.582 3.547-2.217 1.281-6.405-3.047-1.984 1.162 5.547 3.524-2.219 1.281-6.365-3.029-5.992 3.515 6.542 3.651-5.479 3.61 4.934 2.889 6.365-3.023 2.217 1.28-5.545 3.524 1.982 1.163 6.405-3.047 2.217 1.276-5.582 3.549 6.212 3.64-1.293 2.002-5.98-3.292-.281 6.629-2.221-1.278-.562-7.035-2.005-1.104-.277 6.5-2.218-1.281-.549-6.891-5.485-3.018v6.712l-6.357-3.302-.036 5.735 5.803 4.001v2.561l-5.827-3.041-.012 2.302 5.839 4.021v2.562l-5.862-3.06-.045 7.194-2.377-.121-.142-6.825-5.885 3.07v-2.562l5.812-4.004-.045-2.285-5.767 3.009v-2.562l5.694-3.925-.124-6.075-6.357 3.301v-6.697l-5.46 3.004-.551 6.891-2.217 1.281-.275-6.5-2.005 1.104-.563 7.035-2.217 1.278-.285-6.629-5.981 3.292-1.29-2.002 6.208-3.64-5.582-3.549 2.217-1.276 6.408 3.047 1.981-1.163-5.545-3.524 2.217-1.281 6.366 3.024 5.994-3.51-6.542-3.655 5.482-3.609-4.934-2.891-6.366 3.029-2.217-1.281 5.545-3.525-1.981-1.161-6.408 3.047-2.217-1.281 5.582-3.547-6.208-3.637 1.29-2.003 5.981 3.291.285-6.633 2.217 1.281.563 7.035 2.005 1.104.275-6.496 2.217 1.281.551 6.89 5.484 3.021v-6.718l6.36 3.305.036-5.738-5.806-3.998v-2.562l5.827 3.04.015-2.299-5.842-4.024v-2.56l5.863 3.062.035-7.192zm1.314 30.483a1.66 1.66 0 00-1.656 1.66c0 .914.742 1.652 1.656 1.652.918 0 1.66-.738 1.66-1.652a1.66 1.66 0 00-1.66-1.66zm5.203.215l-2.414 1.416 4.076 2.39 2.617-1.724-4.279-2.082zm-7.952 1.415l-4.077-2.387-2.613 1.72 4.276 2.084 2.414-1.417zm-2.329 4.919v3.429l3.522-2.097-.067-3.233-3.455 1.901zm6.617-1.97l-.021 3.271 3.58 2.127v-3.44l-3.559-1.958zm3.582-7.868v-3.425l-3.524 2.093.065 3.234 3.459-1.902zm-6.616 1.97l.018-3.271-3.577-2.126v3.438l3.559 1.959z"/><linearGradient id="g" gradientUnits="userSpaceOnUse" x1="559.32" y1="400.639" x2="543.153" y2="429.806" gradientTransform="translate(-358 -155)"><stop offset="0" stop-color="#5bbfd5"/><stop offset="1" stop-color="#fff"/></linearGradient><path fill="url(#g)" d="M195.614 234.048l1.507.075.088 4.33 3.732-1.947v1.624l-3.688 2.538.03 1.449 3.657-1.906v1.624l-3.61 2.487.079 3.853 4.031-2.094v4.25l3.463-1.905.35-4.371 1.406-.812.175 4.12 1.271-.697.357-4.464 1.406-.812.179 4.207 3.793-2.089.819 1.271-3.938 2.306 3.539 2.251-1.406.812-4.062-1.933-1.258.735 3.52 2.236-1.408.814-4.035-1.92-3.801 2.227 4.146 2.317-3.478 2.289 3.131 1.833 4.035-1.921 1.408.812-3.519 2.237 1.258.735 4.062-1.933 1.407.812-3.54 2.251 3.938 2.306-.819 1.271-3.793-2.09-.179 4.207-1.406-.811-.356-4.463-1.271-.699-.175 4.121-1.406-.812-.349-4.371-3.479-1.914v4.259l-4.034-2.093-.023 3.638 3.683 2.534v1.625l-3.696-1.93-.009 1.459 3.705 2.553v1.625l-3.721-1.939-.026 4.562-1.509-.075-.088-4.329-3.732 1.947v-1.622l3.686-2.542-.03-1.448-3.656 1.905v-1.623l3.609-2.487-.079-3.853-4.032 2.093v-4.25l-3.462 1.905-.35 4.371-1.406.812-.174-4.122-1.271.7-.356 4.463-1.406.811-.18-4.205-3.793 2.088-.82-1.271 3.938-2.305-3.54-2.251 1.406-.812 4.062 1.932 1.259-.734-3.518-2.238 1.406-.812 4.037 1.921 3.801-2.227-4.147-2.318 3.477-2.29-3.131-1.832-4.037 1.921-1.406-.812 3.518-2.236-1.259-.736-4.062 1.934-1.406-.812 3.54-2.252-3.938-2.305.82-1.27 3.793 2.088.18-4.207 1.406.811.356 4.465 1.271.698.174-4.121 1.406.812.35 4.373 3.479 1.912v-4.258l4.033 2.094.023-3.639-3.68-2.533v-1.625l3.694 1.928.009-1.457-3.703-2.554v-1.625l3.718 1.94.03-4.565zm.833 19.332a1.05 1.05 0 100 2.101 1.05 1.05 0 100-2.101zm3.3.138l-1.532.896 2.585 1.515 1.659-1.092-2.712-1.319zm-5.043.895l-2.586-1.515-1.659 1.093 2.714 1.317 1.531-.895zm-1.479 3.119v2.173l2.235-1.328-.044-2.051-2.191 1.206zm4.197-1.248l-.012 2.073 2.268 1.348v-2.182l-2.256-1.239zm2.271-4.99v-2.172l-2.235 1.327.042 2.051 2.193-1.206zm-4.196 1.248l.014-2.074-2.271-1.346v2.181l2.257 1.239z"/><linearGradient id="h" gradientUnits="userSpaceOnUse" x1="501.701" y1="470.391" x2="488.636" y2="493.961" gradientTransform="translate(-358 -155)"><stop offset="0" stop-color="#5bbfd5"/><stop offset="1" stop-color="#fff"/></linearGradient><path fill="url(#h)" d="M139.091 306.023l1.218.061.071 3.5 3.017-1.574v1.312l-2.98 2.051.024 1.172 2.956-1.541v1.312l-2.917 2.01.063 3.113 3.257-1.691v3.435l2.799-1.54.282-3.531 1.137-.656.141 3.33 1.027-.564.289-3.606 1.137-.655.144 3.399 3.065-1.688.662 1.026-3.182 1.862 2.861 1.819-1.137.655-3.283-1.562-1.016.595 2.843 1.809-1.138.656-3.261-1.553-3.071 1.8 3.351 1.873-2.81 1.851 2.53 1.481 3.261-1.554 1.138.656-2.843 1.809 1.016.595 3.283-1.562 1.137.655-2.861 1.819 3.182 1.862-.662 1.026-3.065-1.688-.144 3.4-1.137-.655-.289-3.605-1.027-.565-.141 3.33-1.137-.656-.282-3.532-2.811-1.547v3.44l-3.26-1.69-.019 2.939 2.976 2.048v1.313l-2.987-1.56-.007 1.179 2.994 2.062v1.312l-3.007-1.567-.021 3.687-1.22-.061-.072-3.499-3.016 1.574v-1.312l2.979-2.055-.025-1.171-2.954 1.54v-1.312l2.917-2.01-.063-3.113-3.258 1.69v-3.435l-2.798 1.54-.282 3.532-1.137.657-.141-3.332-1.028.566-.288 3.605-1.136.655-.146-3.399-3.065 1.688-.663-1.026 3.183-1.862-2.861-1.818 1.136-.657 3.283 1.562 1.017-.595-2.842-1.809 1.136-.656 3.262 1.554 3.072-1.801-3.351-1.873 2.81-1.851-2.53-1.48-3.262 1.553-1.136-.656 2.842-1.809-1.017-.596-3.283 1.562-1.136-.655 2.861-1.82-3.183-1.861.663-1.026 3.065 1.688.146-3.399 1.136.655.288 3.606 1.028.564.141-3.33 1.137.655.282 3.532 2.812 1.548v-3.441l3.259 1.692.019-2.94-2.974-2.048v-1.312l2.985 1.559.008-1.179-2.993-2.062v-1.313l3.005 1.568.022-3.683zm.673 15.623a.85.85 0 10-.002 1.7.85.85 0 00.002-1.7zm2.667.111l-1.238.726 2.089 1.224 1.341-.882-2.192-1.068zm-4.076.724l-2.09-1.226-1.341.884 2.193 1.065 1.238-.723zm-1.195 2.521v1.756l1.807-1.073-.036-1.656-1.771.973zm3.392-1.009l-.01 1.677 1.833 1.088v-1.762l-1.823-1.003zm1.835-4.032v-1.756l-1.806 1.073.034 1.656 1.772-.973zm-3.391 1.008l.011-1.676-1.835-1.088v1.763l1.824 1.001z"/><linearGradient id="i" gradientUnits="userSpaceOnUse" x1="448.753" y1="402.24" x2="435.687" y2="425.811" gradientTransform="translate(-358 -155)"><stop offset="0" stop-color="#5bbfd5"/><stop offset="1" stop-color="#fff"/></linearGradient><path fill="url(#i)" d="M86.142 237.872l1.218.062.071 3.5 3.017-1.574v1.312l-2.98 2.052.024 1.172 2.956-1.541v1.312l-2.917 2.01.062 3.113 3.257-1.69v3.435l2.799-1.54.282-3.532 1.137-.655.141 3.329 1.027-.563.289-3.607 1.137-.654.144 3.398 3.065-1.688.662 1.025-3.182 1.863 2.861 1.818-1.137.655-3.283-1.562-1.016.595 2.843 1.81-1.138.655-3.261-1.552-3.071 1.799 3.35 1.873-2.81 1.852 2.53 1.48 3.261-1.553 1.138.656-2.843 1.809 1.016.594 3.283-1.561 1.137.654-2.861 1.819 3.182 1.862-.662 1.027-3.065-1.688-.144 3.399-1.137-.654-.289-3.606-1.027-.565-.141 3.33-1.137-.655-.282-3.533-2.811-1.547v3.44l-3.26-1.69-.019 2.94 2.976 2.047v1.313l-2.987-1.56-.007 1.179 2.994 2.063v1.312L87.53 267.1l-.021 3.688-1.22-.061-.072-3.5-3.016 1.574v-1.311l2.979-2.055-.025-1.172-2.954 1.541v-1.312l2.917-2.01-.063-3.113-3.258 1.689v-3.435l-2.798 1.54-.282 3.533-1.137.656-.141-3.332-1.028.566-.288 3.605-1.136.656-.146-3.399-3.065 1.688-.663-1.027 3.183-1.862-2.861-1.817 1.136-.658 3.283 1.562 1.017-.594-2.842-1.809 1.136-.656 3.262 1.553 3.072-1.8-3.351-1.873 2.81-1.851-2.53-1.48-3.262 1.552-1.136-.655 2.842-1.81-1.017-.595-3.283 1.562-1.136-.655 2.861-1.819-3.183-1.862.663-1.025 3.065 1.688.146-3.398 1.136.654.288 3.607 1.028.563.141-3.329 1.137.654.282 3.534 2.812 1.547v-3.441l3.259 1.692.019-2.94-2.974-2.048v-1.312l2.985 1.558.008-1.178-2.993-2.063v-1.312l3.005 1.568.021-3.689zm.673 15.623a.85.85 0 10-.002 1.7.85.85 0 00.002-1.7zm2.666.11l-1.238.725 2.089 1.225 1.341-.883-2.192-1.067zm-4.075.725l-2.09-1.225-1.341.883 2.193 1.066 1.238-.724zm-1.196 2.522v1.756l1.807-1.073-.036-1.657-1.771.974zm3.393-1.01l-.01 1.678 1.833 1.088v-1.762l-1.823-1.004zm1.835-4.031v-1.756l-1.806 1.072.034 1.657 1.772-.973zm-3.391 1.005l.011-1.676-1.835-1.088v1.764l1.824 1z"/><linearGradient id="j" gradientUnits="userSpaceOnUse" x1="578.966" y1="438.578" x2="572.118" y2="450.931" gradientTransform="translate(-358 -155)"><stop offset="0" stop-color="#5bbfd5"/><stop offset="1" stop-color="#fff"/></linearGradient><path fill="url(#j)" d="M218.55 278.667l.638.032.039 1.834 1.58-.825v.688l-1.562 1.074.012.613 1.55-.809v.688l-1.529 1.054.033 1.631 1.707-.887v1.801l1.469-.808.146-1.853.596-.344.074 1.746.538-.296.151-1.892.596-.344.075 1.781 1.606-.885.348.538-1.668.978 1.5.953-.598.344-1.721-.817-.531.312 1.488.947-.596.346-1.709-.813-1.61.942 1.757.981-1.473.97 1.326.776 1.709-.813.596.345-1.488.946.531.312 1.721-.816.598.342-1.5.955 1.668.977-.348.538-1.606-.886-.075 1.781-.596-.343-.151-1.891-.538-.296-.074 1.744-.596-.344-.146-1.853-1.475-.812v1.805l-1.707-.887-.012 1.541 1.561 1.073v.688l-1.565-.817-.003.617 1.568 1.082v.688l-1.576-.822-.012 1.934-.639-.032-.038-1.834-1.581.825v-.688l1.562-1.076-.014-.614-1.549.808v-.688l1.529-1.055-.033-1.631-1.708.887v-1.801l-1.467.808-.147 1.853-.596.344-.074-1.746-.539.298-.149 1.89-.597.344-.076-1.781-1.605.885-.348-.538 1.669-.978-1.5-.953.596-.344 1.722.818.532-.312-1.489-.947.596-.344 1.71.812 1.608-.943-1.756-.98 1.473-.971-1.325-.775-1.71.812-.596-.344 1.489-.947-.532-.312-1.722.818-.596-.344 1.5-.955-1.669-.976.348-.538 1.605.885.076-1.781.597.344.149 1.891.539.297.074-1.746.596.344.147 1.853 1.474.812v-1.805l1.709.887.01-1.541-1.56-1.072v-.688l1.563.815.006-.617-1.569-1.081v-.688l1.575.822.014-1.93zm.352 8.188a.444.444 0 10-.001.889.444.444 0 00.001-.889zm1.398.058l-.649.38 1.097.643.703-.463-1.151-.56zm-2.136.38l-1.096-.643-.703.464 1.148.559.651-.38zm-.627 1.321v.921l.947-.562-.021-.869-.926.51zm1.777-.528l-.006.879.961.57v-.924l-.955-.525zm.961-2.113v-.921l-.945.562.02.868.925-.509zm-1.775.527l.005-.878-.961-.57v.925l.956.523z"/></svg>