<svg xmlns="http://www.w3.org/2000/svg" width="400" height="400"><linearGradient id="a" gradientUnits="userSpaceOnUse" x1="349.583" y1="-17.421" x2="507.613" y2="21.98" gradientTransform="matrix(1 0 0 -1 -252 149)"><stop offset="0" stop-color="#a1a1a0"/><stop offset="1" stop-color="#fff"/></linearGradient><path fill="url(#a)" d="M74.375 220.98c-16.665 0-30.182-13.517-30.182-30.183 0-14.052 9.611-25.862 22.615-29.223a53.127 53.127 0 01-1.151-11.02c0-29.03 23.364-52.612 52.308-52.976 6.583-34.38 36.813-60.372 73.111-60.372 29.334 0 54.706 16.979 66.834 41.643a42.157 42.157 0 0114.992-2.743c23.328 0 42.25 18.921 42.25 42.255 0 3.475-.424 6.854-1.217 10.086 24.508.775 44.142 20.887 44.142 45.58 0 25.184-20.421 45.606-45.606 45.606-44.884.004-154.116 1.347-238.096 1.347z"/><linearGradient id="b" gradientUnits="userSpaceOnUse" x1="524.957" y1="24.179" x2="408.263" y2="-63.757" gradientTransform="matrix(1 0 0 -1 -252 149)"><stop offset="0" stop-color="#a1a1a0"/><stop offset="1" stop-color="#fff"/></linearGradient><path fill="url(#b)" d="M285.484 219.736c-50.096.291-130.939 1.139-198.812 1.236a41.29 41.29 0 01-8.527-27.42c1.142-21.85 19.015-38.874 40.549-39.3a32.545 32.545 0 01.009-3.2c.924-17.684 16.021-31.282 33.705-30.358a31.933 31.933 0 0112.711 3.361c9.943-16.047 28.099-26.33 48.274-25.278 28.016 1.464 49.865 24.25 50.656 51.807 18.289 6.654 30.912 24.654 29.844 45.097a45.192 45.192 0 01-8.409 24.055z"/><linearGradient id="c" gradientUnits="userSpaceOnUse" x1="475.059" y1="-6.939" x2="511.008" y2="-87.682" gradientTransform="matrix(1 0 0 -1 -252 149)"><stop offset="0" stop-color="#a1a1a0"/><stop offset="1" stop-color="#fff"/></linearGradient><path fill="url(#c)" d="M343.861 207.113c-8.178 7.763-19.229 12.523-31.391 12.523-31.498 0-94.688.665-158.599 1.059 5.139-10.356 14.128-18.533 25.188-22.557.793-27.557 22.645-50.341 50.656-51.805 20.179-1.054 38.332 9.229 48.275 25.276a31.964 31.964 0 0112.714-3.361c17.684-.924 32.777 12.676 33.705 30.36.055 1.077.058 2.144.006 3.199a41.192 41.192 0 0119.446 5.306z"/><linearGradient id="d" gradientUnits="userSpaceOnUse" x1="400.744" y1="-105.707" x2="375.251" y2="-151.698" gradientTransform="matrix(1 0 0 -1 -252 149)"><stop offset="0" stop-color="#5bbfd5"/><stop offset="1" stop-color="#fff"/></linearGradient><path fill="url(#d)" d="M139.745 236.43l2.377.118.139 6.827 5.888-3.07v2.562l-5.815 4.003.048 2.283 5.767-3.004v2.56l-5.694 3.922.124 6.075 6.357-3.301v6.701l5.46-3.004.551-6.894 2.217-1.281.275 6.499 2.005-1.102.563-7.039 2.217-1.278.282 6.634 5.981-3.293 1.293 2.002-6.209 3.635 5.582 3.55-2.22 1.28-6.405-3.047-1.984 1.16 5.548 3.528-2.22 1.28-6.363-3.027-5.994 3.51 6.539 3.655-5.482 3.61 4.937 2.89 6.363-3.028 2.22 1.28-5.548 3.528 1.984 1.16 6.405-3.047 2.22 1.28-5.582 3.55 6.209 3.635-1.293 2.002-5.981-3.293-.282 6.634-2.217-1.278-.563-7.037-2.005-1.104-.275 6.499-2.217-1.281-.551-6.894-5.485-3.02v6.717l-6.36-3.301-.037 5.736 5.806 3.996v2.562l-5.827-3.041-.015 2.299 5.842 4.025v2.562l-5.866-3.06-.042 7.193-2.38-.118-.139-6.827-5.885 3.071v-2.559l5.812-4.008-.048-2.283-5.764 3.004v-2.56l5.691-3.922-.124-6.075-6.357 3.301v-6.701l-5.46 3.004-.551 6.894-2.217 1.281-.275-6.499-2.005 1.104-.562 7.037-2.217 1.278-.283-6.633-5.981 3.292-1.293-2.002 6.21-3.635-5.582-3.55 2.217-1.28 6.405 3.047 1.985-1.16-5.547-3.528 2.217-1.28 6.365 3.028 5.994-3.511-6.539-3.655 5.482-3.61-4.937-2.889-6.365 3.028-2.217-1.281 5.547-3.528-1.985-1.16-6.405 3.047-2.217-1.28 5.582-3.55-6.21-3.635 1.293-2.002 5.981 3.293.283-6.634 2.217 1.278.562 7.039 2.005 1.102.275-6.498 2.217 1.28.551 6.894 5.485 3.017V255.4l6.36 3.301.037-5.736-5.803-3.996v-2.562l5.824 3.041.015-2.299-5.839-4.025v-2.562l5.863 3.06.045-7.192zm1.314 30.483a1.656 1.656 0 100 3.311 1.656 1.656 0 100-3.311zm5.203.215l-2.417 1.414 4.077 2.388 2.617-1.722-4.277-2.08zm-7.953 1.414l-4.077-2.388-2.617 1.722 4.28 2.08 2.414-1.414zm-2.332 4.919v3.425l3.525-2.093-.07-3.234-3.455 1.902zm6.618-1.969l-.019 3.271 3.577 2.122v-3.438l-3.558-1.955zm3.582-7.868v-3.426l-3.525 2.093.067 3.234 3.458-1.901zm-6.617 1.968l.021-3.271-3.58-2.122v3.438l3.559 1.955z"/><linearGradient id="e" gradientUnits="userSpaceOnUse" x1="520.862" y1="-105.71" x2="495.37" y2="-151.701" gradientTransform="matrix(1 0 0 -1 -252 149)"><stop offset="0" stop-color="#5bbfd5"/><stop offset="1" stop-color="#fff"/></linearGradient><path fill="url(#e)" d="M259.861 236.43l2.377.118.143 6.827 5.885-3.07v2.562l-5.812 4.003.046 2.283 5.768-3.004v2.56l-5.694 3.922.124 6.075 6.357-3.301v6.701l5.459-3.004.553-6.894 2.217-1.281.277 6.499 2.002-1.102.563-7.039 2.217-1.278.285 6.634 5.981-3.293 1.289 2.002-6.209 3.635 5.582 3.55-2.217 1.28-6.404-3.047-1.984 1.16 5.546 3.528-2.217 1.28-6.366-3.027-5.994 3.51 6.542 3.655-5.481 3.61 4.935 2.89 6.366-3.028 2.217 1.28-5.546 3.528 1.983 1.16 6.406-3.047 2.217 1.28-5.582 3.55 6.209 3.635-1.291 2.002-5.98-3.293-.285 6.634-2.217-1.278-.562-7.037-2.002-1.104-.278 6.499-2.218-1.281-.551-6.894-5.484-3.02v6.717l-6.36-3.301-.036 5.736 5.807 3.996v2.562l-5.828-3.041-.014 2.299 5.842 4.025v2.562l-5.863-3.06-.045 7.193-2.379-.118-.143-6.827-5.884 3.071v-2.559l5.812-4.008-.045-2.283-5.767 3.004v-2.56l5.692-3.922-.123-6.075-6.357 3.301v-6.701l-5.463 3.004-.549 6.894-2.217 1.281-.278-6.499-2.005 1.104-.561 7.037-2.218 1.278-.284-6.633-5.98 3.292-1.291-2.002 6.209-3.635-5.582-3.55 2.218-1.28 6.405 3.047 1.982-1.16-5.545-3.528 2.217-1.28 6.367 3.028 5.992-3.511-6.542-3.655 5.481-3.61-4.934-2.889-6.365 3.028-2.217-1.281 5.545-3.528-1.983-1.16-6.405 3.047-2.218-1.28 5.582-3.55-6.209-3.635 1.291-2.002 5.981 3.293.283-6.634 2.217 1.278.562 7.039 2.005 1.102.277-6.498 2.218 1.28.549 6.894 5.487 3.017V255.4l6.359 3.301.033-5.736-5.803-3.996v-2.562l5.826 3.041.016-2.299-5.842-4.025v-2.562l5.863 3.06.045-7.192zm1.314 30.483a1.655 1.655 0 100 3.31 1.655 1.655 0 000-3.31zm5.203.215l-2.413 1.414 4.076 2.388 2.613-1.722-4.276-2.08zm-7.952 1.414l-4.076-2.388-2.617 1.722 4.279 2.08 2.414-1.414zm-2.332 4.919v3.425l3.524-2.093-.066-3.234-3.458 1.902zm6.62-1.969l-.021 3.271 3.58 2.122v-3.438l-3.559-1.955zm3.583-7.868v-3.426l-3.525 2.093.066 3.234 3.459-1.901zm-6.621 1.968l.021-3.271-3.58-2.122v3.438l3.559 1.955z"/><linearGradient id="f" gradientUnits="userSpaceOnUse" x1="460.804" y1="-168.932" x2="435.312" y2="-214.92" gradientTransform="matrix(1 0 0 -1 -252 149)"><stop offset="0" stop-color="#5bbfd5"/><stop offset="1" stop-color="#fff"/></linearGradient><path fill="url(#f)" d="M199.801 299.648l2.377.117.143 6.826 5.885-3.07v2.562l-5.812 4.004.049 2.287 5.764-3.008v2.562l-5.693 3.919.127 6.075 6.354-3.302v6.706l5.463-3.008.549-6.891 2.218-1.28.277 6.495 2.005-1.103.562-7.035 2.22-1.281.282 6.634 5.98-3.292 1.293 2.002-6.212 3.637 5.582 3.547-2.217 1.281-6.405-3.047-1.984 1.163 5.547 3.524-2.219 1.281-6.365-3.029-5.993 3.515 6.542 3.651-5.48 3.61 4.934 2.889 6.365-3.024 2.217 1.28-5.545 3.525 1.983 1.163 6.405-3.047 2.217 1.276-5.582 3.551 6.212 3.638-1.293 2.002-5.981-3.292-.281 6.629-2.221-1.278-.561-7.034-2.005-1.105-.278 6.5-2.217-1.281-.549-6.891-5.486-3.017v6.712l-6.357-3.302-.036 5.735 5.803 4.001v2.56l-5.827-3.041-.012 2.303 5.839 4.021v2.562l-5.862-3.06-.045 7.195-2.378-.121-.142-6.826-5.885 3.071v-2.56l5.812-4.005-.045-2.285-5.767 3.008v-2.561l5.694-3.925-.124-6.075-6.357 3.302v-6.699l-5.46 3.004-.551 6.891-2.217 1.281-.275-6.5-2.005 1.105-.563 7.034-2.217 1.278-.285-6.629-5.981 3.292-1.29-2.002 6.208-3.638-5.582-3.551 2.217-1.276 6.408 3.047 1.981-1.163-5.545-3.525 2.217-1.28 6.366 3.024 5.994-3.51-6.542-3.655 5.482-3.609-4.934-2.891-6.366 3.029-2.217-1.281 5.545-3.524-1.981-1.163-6.408 3.047-2.217-1.281 5.582-3.547-6.208-3.637 1.29-2.002 5.981 3.292.285-6.634 2.217 1.281.563 7.035 2.005 1.103.275-6.495 2.217 1.28.551 6.891 5.484 3.02v-6.718l6.36 3.305.036-5.738-5.806-3.998v-2.562l5.827 3.04.015-2.299-5.842-4.024v-2.56l5.863 3.062.039-7.195zm1.314 30.483a1.66 1.66 0 00-1.656 1.66c0 .914.742 1.653 1.656 1.653.918 0 1.66-.739 1.66-1.653a1.66 1.66 0 00-1.66-1.66zm5.203.215l-2.414 1.415 4.076 2.391 2.617-1.725-4.279-2.081zm-7.952 1.415l-4.077-2.387-2.613 1.72 4.276 2.084 2.414-1.417zm-2.329 4.918v3.43l3.522-2.097-.067-3.233-3.455 1.9zm6.617-1.969l-.021 3.271 3.58 2.126v-3.44l-3.559-1.957zm3.582-7.868v-3.425l-3.524 2.093.065 3.234 3.459-1.902zm-6.616 1.97l.018-3.271-3.577-2.126v3.438l3.559 1.959z"/></svg>