<svg xmlns="http://www.w3.org/2000/svg" width="400" height="400"><path opacity=".502" fill="#FEBF10" d="M55.926 239.404l55.694-2.508-41.609 37.113 53.323-16.297-31.064 46.311 47.6-29.043-18.578 52.56 38.87-39.944-4.921 55.527 27.731-48.359 9.044 55.008 14.822-53.743 22.443 51.036.987-55.738 34.43 43.845-12.911-54.233 44.26 33.909-25.99-49.319 51.293 21.842-37.436-41.303 55.122 8.392-46.53-30.701 55.467-5.59-52.703-18.148 52.339-19.189-55.557-4.502 45.91-31.604-54.937 9.479 36.633-42.042-50.855 22.839 25.011-49.826-43.572 34.769 11.845-54.481-33.566 44.52-2.087-55.715-21.448 51.465-15.855-53.447-7.973 55.171-28.661-47.823 6.012 55.433-39.66-39.189 19.597 52.183L90.29 99.958l31.964 45.676-53.631-15.227 42.318 36.294-55.731-1.436 50.009 24.627-54.33 12.487 54.566 11.415z"/><linearGradient id="a" gradientUnits="userSpaceOnUse" x1="-37.055" y1="-167.405" x2="-27.757" y2="-167.405" gradientTransform="matrix(4.975 27.578 27.544 -4.981 4979.98 304.43)"><stop offset="0" stop-color="#febf10"/><stop offset="1" stop-color="#f58020"/></linearGradient><path fill="url(#a)" d="M41.708 265.618l63.047-10.912-41.988 48.262 58.334-26.245-28.669 57.195 49.981-39.939-13.538 62.53 38.478-51.111 2.434 63.931 24.556-59.079 18.266 61.312 9.082-63.307 32.948 54.83-6.935-63.584 45.526 44.935-22.539-59.868 55.286 32.195-36.724-52.391 61.571 17.444-48.603-41.612 63.965 1.575-57.409-28.204 62.328-14.38-62.636-13.05 56.829-29.425-63.911 2.934 47.713-42.623-61.188 18.733 35.615-53.158-54.593 33.36 21.261-60.342-44.564 45.877 5.594-63.728L219.46 93.31l-10.442-63.124-16.966 61.69-25.786-58.549-1.091 63.963-39.544-50.291 14.858 62.239-50.817-38.883 29.867 56.574L60.65 101.92l42.997 47.364-63.256-9.579 53.431 35.19-63.656 6.445 60.504 20.801-60.052 22.061 63.767 5.101z"/><linearGradient id="b" gradientUnits="userSpaceOnUse" x1="-32.989" y1="-165.674" x2="-23.693" y2="-165.674" gradientTransform="matrix(3.341 18.504 18.504 -3.341 3364.887 197.184)"><stop offset="0" stop-color="#febf10"/><stop offset="1" stop-color="#f58020"/></linearGradient><path fill="url(#b)" d="M85.214 207.204C79.712 144.228 126.35 88.625 189.328 83.122c62.986-5.501 118.581 41.136 124.083 104.123 5.501 62.983-41.138 118.578-104.12 124.076-62.982 5.504-118.574-41.133-124.077-104.117z"/><path opacity=".118" fill="#F6EB16" d="M85.194 207.223c-5.512-62.987 41.147-118.58 104.118-124.093 62.986-5.503 118.577 41.146 124.083 104.122C323.396 260.38 96.5 283.268 85.194 207.223z"/><path opacity=".255" fill="#F6EB16" d="M103.748 181.359c-15.511-24.675-.873-59.979 32.683-78.804 33.537-18.833 73.35-14.094 88.858 10.57 15.509 24.682.854 59.987-32.692 78.81-33.544 18.829-73.349 14.086-88.849-10.576z"/><linearGradient id="c" gradientUnits="userSpaceOnUse" x1="-46.528" y1="-178.268" x2="-37.229" y2="-178.268" gradientTransform="scale(35.722 -35.722) rotate(34.022 -300.913 -12.869)"><stop offset="0" stop-color="#f6eb16"/><stop offset="1" stop-color="#f58020"/></linearGradient><path fill="url(#c)" d="M197.595 309.279c3.776.062 7.588-.081 11.461-.409 61.602-5.394 107.237-59.789 101.846-121.391-5.375-61.624-59.77-107.246-121.374-101.869-61.618 5.395-107.257 59.77-101.863 121.383 5.041 57.766 53.158 101.48 109.93 102.286zm-.073 4.97c-59.286-.838-109.54-46.478-114.816-106.819-5.622-64.348 42.035-121.148 106.388-126.76 64.346-5.633 121.139 42.026 126.768 106.373 5.629 64.348-42.024 121.127-106.391 126.766-4.013.37-8.012.5-11.949.44z"/></svg>