<svg xmlns="http://www.w3.org/2000/svg" width="400" height="400"><linearGradient id="a" gradientUnits="userSpaceOnUse" x1="80.901" y1="189.909" x2="261.112" y2="144.977"><stop offset="0" stop-color="#a1a1a1"/><stop offset="1" stop-color="#fff"/></linearGradient><path fill-rule="evenodd" clip-rule="evenodd" fill="url(#a)" d="M54.434 252.124c-19.005 0-34.417-15.413-34.417-34.419 0-16.025 10.96-29.491 25.789-33.321a60.654 60.654 0 01-1.314-12.568c0-33.107 26.646-59.997 59.652-60.412 7.506-39.206 41.981-68.846 83.374-68.846 33.454 0 62.382 19.365 76.217 47.484a48.136 48.136 0 0117.092-3.125c26.607 0 48.183 21.579 48.183 48.186 0 3.965-.483 7.819-1.385 11.504 27.943.884 50.337 23.817 50.337 51.978 0 28.717-23.291 52.009-52.009 52.009-51.188.001-175.752 1.53-271.519 1.53z"/><linearGradient id="b" gradientUnits="userSpaceOnUse" x1="280.896" y1="142.466" x2="147.821" y2="242.745"><stop offset="0" stop-color="#a1a1a1"/><stop offset="1" stop-color="#fff"/></linearGradient><path fill-rule="evenodd" clip-rule="evenodd" fill="url(#b)" d="M295.179 250.705c-57.134.331-149.323 1.299-226.722 1.409-6.629-8.624-10.335-19.562-9.724-31.267 1.304-24.918 21.686-44.328 46.243-44.818a36.684 36.684 0 01.009-3.647c1.055-20.166 18.271-35.673 38.436-34.62a36.392 36.392 0 0114.497 3.833c11.34-18.301 32.042-30.026 55.054-28.824 31.946 1.668 56.861 27.65 57.766 59.075 20.854 7.587 35.248 28.117 34.032 51.425-.539 10.255-4.024 19.66-9.591 27.434z"/><linearGradient id="c" gradientUnits="userSpaceOnUse" x1="223.986" y1="177.95" x2="264.979" y2="270.022"><stop offset="0" stop-color="#a1a1a1"/><stop offset="1" stop-color="#fff"/></linearGradient><path fill-rule="evenodd" clip-rule="evenodd" fill="url(#c)" d="M361.745 236.31c-9.325 8.853-21.927 14.285-35.794 14.285-35.922 0-107.979.753-180.86 1.205 5.863-11.812 16.111-21.133 28.725-25.724.903-31.424 25.821-57.407 57.765-59.078 23.012-1.202 43.716 10.527 55.055 28.824a36.429 36.429 0 0114.495-3.83c20.166-1.053 37.383 14.45 38.436 34.62.066 1.226.066 2.441.011 3.646a47.014 47.014 0 0122.167 6.052z"/><linearGradient id="d" gradientUnits="userSpaceOnUse" x1="235.375" y1="294.168" x2="70.042" y2="371.264"><stop offset="0" stop-color="#5abfd5"/><stop offset="1" stop-color="#0f298f"/></linearGradient><path fill="url(#d)" d="M59.891 294.094a2.688 2.688 0 01-3.741-.67 2.689 2.689 0 01.674-3.741c23.822-16.55 47.141-23.516 70.433-22.856 23.215.653 46.288 8.891 69.721 22.75 22.597 13.369 45.73 18.636 68.995 17.928 23.354-.708 46.907-7.446 70.233-18.062a2.691 2.691 0 112.227 4.897c-23.909 10.879-48.147 17.786-72.31 18.525-24.251.735-48.352-4.749-71.876-18.664-22.687-13.421-44.918-21.392-67.138-22.017-22.139-.625-44.39 6.053-67.218 21.91zm0 41.941c22.829-15.859 45.079-22.535 67.219-21.914 22.219.625 44.451 8.597 67.138 22.018 23.524 13.918 47.625 19.399 71.876 18.663 24.162-.735 48.4-7.643 72.31-18.525a2.691 2.691 0 00-2.227-4.898c-23.326 10.617-46.88 17.355-70.233 18.066-23.265.708-46.397-4.559-68.995-17.928-23.433-13.863-46.505-22.101-69.721-22.753-23.292-.656-46.611 6.31-70.433 22.856a2.688 2.688 0 003.066 4.415zm0-20.971c22.829-15.859 45.079-22.535 67.219-21.91 22.219.625 44.451 8.596 67.138 22.017 23.524 13.915 47.625 19.399 71.876 18.66 24.162-.735 48.4-7.643 72.31-18.525a2.688 2.688 0 10-2.227-4.894c-23.326 10.616-46.88 17.352-70.233 18.062-23.265.708-46.397-4.559-68.995-17.928-23.433-13.863-46.505-22.097-69.721-22.753-23.292-.656-46.611 6.31-70.433 22.859a2.687 2.687 0 003.066 4.412z"/></svg>